<svg xmlns="http://www.w3.org/2000/svg" viewBox="0 0 3300 1507" width="2145" height="980" font-family="sans-serif" font-size="12">
<text x="100.0" y="30" font-size="18" font-weight="bold">6 knots</text>
<text x="100.0" y="52" font-size="12" fill="#666">residual on lever row: RMS 3.51 mm   max 14.65 mm</text>
<polyline points="100.0,1354.7 101.7,1352.5 103.3,1350.2 105.0,1348.0 106.6,1345.8 108.3,1343.6 110.0,1341.3 111.6,1339.1 113.3,1336.9 114.9,1334.7 116.6,1332.5 118.3,1330.2 119.9,1328.0 121.6,1325.8 123.2,1323.5 124.9,1321.3 126.6,1319.1 128.2,1316.8 129.9,1314.5 131.5,1312.3 133.2,1310.0 134.9,1307.7 136.5,1305.4 138.2,1303.1 139.9,1300.8 141.5,1298.5 143.2,1296.1 144.8,1293.8 146.5,1291.4 148.2,1289.0 149.8,1286.6 151.5,1284.2 153.1,1281.8 154.8,1279.3 156.5,1276.8 158.1,1274.4 159.8,1271.8 161.4,1269.3 163.1,1266.8 164.8,1264.2 166.4,1261.6 168.1,1259.0 169.7,1256.3 171.4,1253.7 173.1,1251.0 174.7,1248.2 176.4,1245.5 178.0,1242.7 179.7,1239.9 181.4,1237.1 183.0,1234.2 184.7,1231.3 186.3,1228.4 188.0,1225.4 189.7,1222.4 191.3,1219.4 193.0,1216.4 194.6,1213.3 196.3,1210.1 198.0,1207.0 199.6,1203.8 201.3,1200.5 202.9,1197.3 204.6,1193.9 206.3,1190.6 207.9,1187.2 209.6,1183.8 211.2,1180.3 212.9,1176.7 214.6,1173.2 216.2,1169.6 217.9,1165.9 219.6,1162.2 221.2,1158.5 222.9,1154.7 224.5,1150.8 226.2,1146.9 227.9,1143.0 229.5,1139.0 231.2,1135.0 232.8,1130.9 234.5,1126.7 236.2,1122.6 237.8,1118.3 239.5,1114.0 241.1,1109.7 242.8,1105.3 244.5,1100.9 246.1,1096.4 247.8,1091.9 249.4,1087.3 251.1,1082.7 252.8,1078.1 254.4,1073.4 256.1,1068.7 257.7,1064.0 259.4,1059.2 261.1,1054.4 262.7,1049.6 264.4,1044.7 266.0,1039.8 267.7,1034.8 269.4,1029.9 271.0,1024.9 272.7,1019.9 274.3,1014.9 276.0,1009.8 277.7,1004.7 279.3,999.6 281.0,994.5 282.6,989.3 284.3,984.2 286.0,979.0 287.6,973.8 289.3,968.6 290.9,963.4 292.6,958.2 294.3,952.9 295.9,947.7 297.6,942.4 299.3,937.2 300.9,931.9 302.6,926.6 304.2,921.3 305.9,916.1 307.6,910.8 309.2,905.5 310.9,900.2 312.5,894.9 314.2,889.7 315.9,884.4 317.5,879.1 319.2,873.9 320.8,868.6 322.5,863.4 324.2,858.1 325.8,852.9 327.5,847.7 329.1,842.5 330.8,837.3 332.5,832.2 334.1,827.0 335.8,821.9 337.4,816.8 339.1,811.7 340.8,806.6 342.4,801.5 344.1,796.5 345.7,791.5 347.4,786.5 349.1,781.6 350.7,776.7 352.4,771.8 354.0,766.9 355.7,762.1 357.4,757.3 359.0,752.5 360.7,747.8 362.3,743.1 364.0,738.4 365.7,733.8 367.3,729.2 369.0,724.7 370.6,720.2 372.3,715.7 374.0,711.3 375.6,706.9 377.3,702.6 379.0,698.3 380.6,694.0 382.3,689.7 383.9,685.5 385.6,681.4 387.3,677.2 388.9,673.1 390.6,669.1 392.2,665.0 393.9,661.0 395.6,657.1 397.2,653.1 398.9,649.2 400.5,645.4 402.2,641.6 403.9,637.8 405.5,634.0 407.2,630.3 408.8,626.6 410.5,622.9 412.2,619.3 413.8,615.6 415.5,612.1 417.1,608.5 418.8,605.0 420.5,601.5 422.1,598.1 423.8,594.6 425.4,591.2 427.1,587.9 428.8,584.5 430.4,581.2 432.1,577.9 433.7,574.6 435.4,571.4 437.1,568.2 438.7,565.0 440.4,561.9 442.0,558.7 443.7,555.6 445.4,552.6 447.0,549.5 448.7,546.5 450.4,543.5 452.0,540.5 453.7,537.5 455.3,534.6 457.0,531.7 458.7,528.8 460.3,525.9 462.0,523.1 463.6,520.3 465.3,517.5 467.0,514.7 468.6,511.9 470.3,509.2 471.9,506.5 473.6,503.8 475.3,501.1 476.9,498.5 478.6,495.8 480.2,493.2 481.9,490.6 483.6,488.0 485.2,485.5 486.9,482.9 488.5,480.4 490.2,477.9 491.9,475.4 493.5,472.9 495.2,470.5 496.8,468.0 498.5,465.6 500.2,463.2 501.8,460.8 503.5,458.4 505.1,456.1 506.8,453.7 508.5,451.4 510.1,449.1 511.8,446.8 513.4,444.5 515.1,442.2 516.8,440.0 518.4,437.7 520.1,435.5 521.7,433.3 523.4,431.1 525.1,428.9 526.7,426.7 528.4,424.6 530.1,422.4 531.7,420.3 533.4,418.2 535.0,416.1 536.7,414.0 538.4,411.9 540.0,409.9 541.7,407.8 543.3,405.8 545.0,403.8 546.7,401.8 548.3,399.8 550.0,397.8 551.6,395.8 553.3,393.9 555.0,391.9 556.6,390.0 558.3,388.1 559.9,386.2 561.6,384.3 563.3,382.4 564.9,380.6 566.6,378.7 568.2,376.9 569.9,375.0 571.6,373.2 573.2,371.4 574.9,369.6 576.5,367.8 578.2,366.1 579.9,364.3 581.5,362.6 583.2,360.8 584.8,359.1 586.5,357.4 588.2,355.7 589.8,354.0 591.5,352.3 593.1,350.6 594.8,349.0 596.5,347.3 598.1,345.7 599.8,344.1 601.4,342.4 603.1,340.8 604.8,339.2 606.4,337.6 608.1,336.1 609.8,334.5 611.4,332.9 613.1,331.4 614.7,329.8 616.4,328.3 618.1,326.8 619.7,325.3 621.4,323.8 623.0,322.3 624.7,320.8 626.4,319.3 628.0,317.9 629.7,316.4 631.3,314.9 633.0,313.5 634.7,312.1 636.3,310.7 638.0,309.2 639.6,307.8 641.3,306.4 643.0,305.0 644.6,303.7 646.3,302.3 647.9,300.9 649.6,299.6 651.3,298.2 652.9,296.9 654.6,295.5 656.2,294.2 657.9,292.9 659.6,291.6 661.2,290.3 662.9,289.0 664.5,287.7 666.2,286.4 667.9,285.1 669.5,283.8 671.2,282.6 672.8,281.3 674.5,280.1 676.2,278.8 677.8,277.6 679.5,276.4 681.1,275.2 682.8,273.9 684.5,272.7 686.1,271.5 687.8,270.3 689.5,269.1 691.1,268.0 692.8,266.8 694.4,265.6 696.1,264.5 697.8,263.3 699.4,262.2 701.1,261.0 702.7,259.9 704.4,258.7 706.1,257.6 707.7,256.5 709.4,255.4 711.0,254.3 712.7,253.2 714.4,252.1 716.0,251.0 717.7,249.9 719.3,248.8 721.0,247.7 722.7,246.7 724.3,245.6 726.0,244.5 727.6,243.5 729.3,242.4 731.0,241.4 732.6,240.3 734.3,239.3 735.9,238.3 737.6,237.2 739.3,236.2 740.9,235.2 742.6,234.2 744.2,233.2 745.9,232.2 747.6,231.2 749.2,230.2 750.9,229.2 752.5,228.2 754.2,227.2 755.9,226.2 757.5,225.3 759.2,224.3 760.8,223.3 762.5,222.4" fill="none" stroke="#7a2a2a" stroke-width="0.9" stroke-dasharray="4,3"/>
<circle cx="232.5" cy="1131.7" r="3.5" fill="#7a2a2a"/>
<circle cx="365.0" cy="735.7" r="3.5" fill="#7a2a2a"/>
<circle cx="497.5" cy="467.1" r="3.5" fill="#7a2a2a"/>
<circle cx="630.0" cy="316.1" r="3.5" fill="#7a2a2a"/>
<circle cx="100.0" cy="1354.7" r="3.5" fill="#7a2a2a"/>
<circle cx="762.5" cy="222.4" r="3.5" fill="#7a2a2a"/>
<line x1="90.0" y1="151.6" x2="780.0" y2="151.6" stroke="#0a7" stroke-width="0.5" stroke-dasharray="2,3"/>
<line x1="100.00" y1="79.0" x2="100.00" y2="1354.7" stroke="#111" stroke-width="0.6"/>
<circle cx="103.74" cy="79.0" r="3.74" fill="#bfbfbf" stroke="#555" stroke-width="0.4"/>
<circle cx="103.21" cy="150.6" r="3.21" fill="#3050a0" stroke="#0b1a40" stroke-width="0.4"/>
<line x1="119.15" y1="81.4" x2="119.15" y2="1329.0" stroke="#111" stroke-width="0.6"/>
<circle cx="122.90" cy="81.4" r="3.74" fill="#bfbfbf" stroke="#555" stroke-width="0.4"/>
<circle cx="122.36" cy="151.4" r="3.21" fill="#3050a0" stroke="#0b1a40" stroke-width="0.4"/>
<line x1="138.30" y1="83.3" x2="138.30" y2="1303.0" stroke="#111" stroke-width="0.6"/>
<circle cx="142.05" cy="83.3" r="3.74" fill="#bfbfbf" stroke="#555" stroke-width="0.4"/>
<circle cx="141.51" cy="151.8" r="3.21" fill="#3050a0" stroke="#0b1a40" stroke-width="0.4"/>
<line x1="157.46" y1="88.5" x2="157.46" y2="1275.3" stroke="#111" stroke-width="0.6"/>
<circle cx="161.20" cy="88.5" r="3.74" fill="#bfbfbf" stroke="#555" stroke-width="0.4"/>
<circle cx="160.67" cy="155.1" r="3.21" fill="#3050a0" stroke="#0b1a40" stroke-width="0.4"/>
<line x1="176.61" y1="95.6" x2="176.61" y2="1245.1" stroke="#111" stroke-width="0.6"/>
<circle cx="180.35" cy="95.6" r="3.74" fill="#bfbfbf" stroke="#555" stroke-width="0.4"/>
<circle cx="179.82" cy="160.1" r="3.21" fill="#3050a0" stroke="#0b1a40" stroke-width="0.4"/>
<line x1="195.76" y1="80.4" x2="195.76" y2="1211.2" stroke="#111" stroke-width="0.6"/>
<circle cx="199.50" cy="80.4" r="3.74" fill="#bfbfbf" stroke="#555" stroke-width="0.4"/>
<circle cx="198.97" cy="143.9" r="3.21" fill="#3050a0" stroke="#0b1a40" stroke-width="0.4"/>
<line x1="214.91" y1="74.3" x2="214.91" y2="1172.4" stroke="#111" stroke-width="0.6"/>
<circle cx="218.66" cy="74.3" r="3.74" fill="#bfbfbf" stroke="#555" stroke-width="0.4"/>
<circle cx="218.12" cy="135.9" r="3.21" fill="#3050a0" stroke="#0b1a40" stroke-width="0.4"/>
<line x1="234.06" y1="99.8" x2="234.06" y2="1127.8" stroke="#111" stroke-width="0.6"/>
<circle cx="237.81" cy="99.8" r="3.74" fill="#bfbfbf" stroke="#555" stroke-width="0.4"/>
<circle cx="237.27" cy="157.5" r="3.21" fill="#3050a0" stroke="#0b1a40" stroke-width="0.4"/>
<line x1="253.22" y1="100.2" x2="253.22" y2="1076.8" stroke="#111" stroke-width="0.6"/>
<circle cx="256.96" cy="100.2" r="3.74" fill="#bfbfbf" stroke="#555" stroke-width="0.4"/>
<circle cx="256.43" cy="155.0" r="3.21" fill="#3050a0" stroke="#0b1a40" stroke-width="0.4"/>
<line x1="272.37" y1="104.9" x2="272.37" y2="1020.8" stroke="#111" stroke-width="0.6"/>
<circle cx="276.11" cy="104.9" r="3.74" fill="#bfbfbf" stroke="#555" stroke-width="0.4"/>
<circle cx="275.58" cy="156.3" r="3.21" fill="#3050a0" stroke="#0b1a40" stroke-width="0.4"/>
<line x1="291.52" y1="106.5" x2="291.52" y2="961.6" stroke="#111" stroke-width="0.6"/>
<circle cx="295.27" cy="106.5" r="3.74" fill="#bfbfbf" stroke="#555" stroke-width="0.4"/>
<circle cx="294.73" cy="154.5" r="3.21" fill="#3050a0" stroke="#0b1a40" stroke-width="0.4"/>
<line x1="310.14" y1="103.5" x2="310.14" y2="902.6" stroke="#111" stroke-width="0.6"/>
<circle cx="313.88" cy="103.5" r="3.74" fill="#bfbfbf" stroke="#555" stroke-width="0.4"/>
<circle cx="313.35" cy="148.4" r="3.21" fill="#3050a0" stroke="#0b1a40" stroke-width="0.4"/>
<line x1="328.75" y1="110.1" x2="328.75" y2="843.7" stroke="#111" stroke-width="0.6"/>
<circle cx="332.50" cy="110.1" r="3.74" fill="#bfbfbf" stroke="#555" stroke-width="0.4"/>
<circle cx="331.96" cy="151.3" r="3.21" fill="#3050a0" stroke="#0b1a40" stroke-width="0.4"/>
<line x1="346.30" y1="112.3" x2="346.30" y2="789.8" stroke="#111" stroke-width="0.6"/>
<circle cx="350.05" cy="112.3" r="3.74" fill="#bfbfbf" stroke="#555" stroke-width="0.4"/>
<circle cx="349.51" cy="150.3" r="3.21" fill="#3050a0" stroke="#0b1a40" stroke-width="0.4"/>
<line x1="363.85" y1="122.0" x2="363.85" y2="738.9" stroke="#111" stroke-width="0.6"/>
<circle cx="367.59" cy="122.0" r="3.74" fill="#bfbfbf" stroke="#555" stroke-width="0.4"/>
<circle cx="367.06" cy="156.6" r="3.21" fill="#3050a0" stroke="#0b1a40" stroke-width="0.4"/>
<line x1="381.40" y1="117.2" x2="381.40" y2="692.0" stroke="#111" stroke-width="0.6"/>
<circle cx="385.14" cy="117.2" r="3.74" fill="#bfbfbf" stroke="#555" stroke-width="0.4"/>
<circle cx="384.61" cy="149.5" r="3.21" fill="#3050a0" stroke="#0b1a40" stroke-width="0.4"/>
<line x1="398.94" y1="121.1" x2="398.94" y2="649.1" stroke="#111" stroke-width="0.6"/>
<circle cx="402.69" cy="121.1" r="3.74" fill="#bfbfbf" stroke="#555" stroke-width="0.4"/>
<circle cx="402.15" cy="150.7" r="3.21" fill="#3050a0" stroke="#0b1a40" stroke-width="0.4"/>
<line x1="416.49" y1="123.9" x2="416.49" y2="609.9" stroke="#111" stroke-width="0.6"/>
<circle cx="420.23" cy="123.9" r="3.74" fill="#bfbfbf" stroke="#555" stroke-width="0.4"/>
<circle cx="419.70" cy="151.2" r="3.21" fill="#3050a0" stroke="#0b1a40" stroke-width="0.4"/>
<line x1="434.04" y1="125.5" x2="434.04" y2="574.1" stroke="#111" stroke-width="0.6"/>
<circle cx="437.78" cy="125.5" r="3.74" fill="#bfbfbf" stroke="#555" stroke-width="0.4"/>
<circle cx="437.25" cy="150.6" r="3.21" fill="#3050a0" stroke="#0b1a40" stroke-width="0.4"/>
<line x1="451.58" y1="125.4" x2="451.58" y2="541.3" stroke="#111" stroke-width="0.6"/>
<circle cx="455.33" cy="125.4" r="3.74" fill="#bfbfbf" stroke="#555" stroke-width="0.4"/>
<circle cx="454.79" cy="148.7" r="3.21" fill="#3050a0" stroke="#0b1a40" stroke-width="0.4"/>
<line x1="468.06" y1="129.7" x2="468.06" y2="512.9" stroke="#111" stroke-width="0.6"/>
<circle cx="471.81" cy="129.7" r="3.74" fill="#bfbfbf" stroke="#555" stroke-width="0.4"/>
<circle cx="471.27" cy="151.1" r="3.21" fill="#3050a0" stroke="#0b1a40" stroke-width="0.4"/>
<line x1="484.54" y1="131.4" x2="484.54" y2="486.5" stroke="#111" stroke-width="0.6"/>
<circle cx="488.28" cy="131.4" r="3.74" fill="#bfbfbf" stroke="#555" stroke-width="0.4"/>
<circle cx="487.75" cy="151.3" r="3.21" fill="#3050a0" stroke="#0b1a40" stroke-width="0.4"/>
<line x1="501.02" y1="134.9" x2="501.02" y2="462.0" stroke="#111" stroke-width="0.6"/>
<circle cx="504.76" cy="134.9" r="3.74" fill="#bfbfbf" stroke="#555" stroke-width="0.4"/>
<circle cx="504.23" cy="153.2" r="3.21" fill="#3050a0" stroke="#0b1a40" stroke-width="0.4"/>
<line x1="517.49" y1="135.3" x2="517.49" y2="439.0" stroke="#111" stroke-width="0.6"/>
<circle cx="521.24" cy="135.3" r="3.74" fill="#bfbfbf" stroke="#555" stroke-width="0.4"/>
<circle cx="520.70" cy="152.3" r="3.21" fill="#3050a0" stroke="#0b1a40" stroke-width="0.4"/>
<line x1="533.97" y1="137.0" x2="533.97" y2="417.4" stroke="#111" stroke-width="0.6"/>
<circle cx="537.71" cy="137.0" r="3.74" fill="#bfbfbf" stroke="#555" stroke-width="0.4"/>
<circle cx="537.18" cy="152.8" r="3.21" fill="#3050a0" stroke="#0b1a40" stroke-width="0.4"/>
<line x1="550.45" y1="140.3" x2="550.45" y2="397.2" stroke="#111" stroke-width="0.6"/>
<circle cx="554.19" cy="140.3" r="3.74" fill="#bfbfbf" stroke="#555" stroke-width="0.4"/>
<circle cx="553.66" cy="154.7" r="3.21" fill="#3050a0" stroke="#0b1a40" stroke-width="0.4"/>
<line x1="566.92" y1="135.3" x2="566.92" y2="378.3" stroke="#111" stroke-width="0.6"/>
<circle cx="570.67" cy="135.3" r="3.74" fill="#bfbfbf" stroke="#555" stroke-width="0.4"/>
<circle cx="570.13" cy="148.9" r="3.21" fill="#3050a0" stroke="#0b1a40" stroke-width="0.4"/>
<line x1="582.33" y1="142.1" x2="582.33" y2="361.7" stroke="#111" stroke-width="0.6"/>
<circle cx="586.08" cy="142.1" r="3.74" fill="#bfbfbf" stroke="#555" stroke-width="0.4"/>
<circle cx="585.54" cy="154.4" r="3.21" fill="#3050a0" stroke="#0b1a40" stroke-width="0.4"/>
<line x1="597.74" y1="140.5" x2="597.74" y2="346.1" stroke="#111" stroke-width="0.6"/>
<circle cx="601.48" cy="140.5" r="3.74" fill="#bfbfbf" stroke="#555" stroke-width="0.4"/>
<circle cx="600.95" cy="152.0" r="3.21" fill="#3050a0" stroke="#0b1a40" stroke-width="0.4"/>
<line x1="613.15" y1="139.8" x2="613.15" y2="331.3" stroke="#111" stroke-width="0.6"/>
<circle cx="616.89" cy="139.8" r="3.74" fill="#bfbfbf" stroke="#555" stroke-width="0.4"/>
<circle cx="616.36" cy="150.5" r="3.21" fill="#3050a0" stroke="#0b1a40" stroke-width="0.4"/>
<line x1="628.55" y1="139.8" x2="628.55" y2="317.4" stroke="#111" stroke-width="0.6"/>
<circle cx="632.30" cy="139.8" r="3.74" fill="#bfbfbf" stroke="#555" stroke-width="0.4"/>
<circle cx="631.76" cy="149.8" r="3.21" fill="#3050a0" stroke="#0b1a40" stroke-width="0.4"/>
<line x1="643.96" y1="140.7" x2="643.96" y2="304.2" stroke="#111" stroke-width="0.6"/>
<circle cx="647.71" cy="140.7" r="3.74" fill="#bfbfbf" stroke="#555" stroke-width="0.4"/>
<circle cx="647.17" cy="149.9" r="3.21" fill="#3050a0" stroke="#0b1a40" stroke-width="0.4"/>
<line x1="659.37" y1="142.2" x2="659.37" y2="291.7" stroke="#111" stroke-width="0.6"/>
<circle cx="663.11" cy="142.2" r="3.74" fill="#bfbfbf" stroke="#555" stroke-width="0.4"/>
<circle cx="662.58" cy="150.6" r="3.21" fill="#3050a0" stroke="#0b1a40" stroke-width="0.4"/>
<line x1="674.77" y1="144.4" x2="674.77" y2="279.9" stroke="#111" stroke-width="0.6"/>
<circle cx="678.52" cy="144.4" r="3.74" fill="#bfbfbf" stroke="#555" stroke-width="0.4"/>
<circle cx="677.98" cy="152.0" r="3.21" fill="#3050a0" stroke="#0b1a40" stroke-width="0.4"/>
<line x1="690.18" y1="147.1" x2="690.18" y2="268.6" stroke="#111" stroke-width="0.6"/>
<circle cx="693.93" cy="147.1" r="3.74" fill="#bfbfbf" stroke="#555" stroke-width="0.4"/>
<circle cx="693.39" cy="154.0" r="3.21" fill="#3050a0" stroke="#0b1a40" stroke-width="0.4"/>
<line x1="705.59" y1="145.8" x2="705.59" y2="257.9" stroke="#111" stroke-width="0.6"/>
<circle cx="709.33" cy="145.8" r="3.74" fill="#bfbfbf" stroke="#555" stroke-width="0.4"/>
<circle cx="708.80" cy="152.1" r="3.21" fill="#3050a0" stroke="#0b1a40" stroke-width="0.4"/>
<line x1="719.82" y1="145.7" x2="719.82" y2="248.5" stroke="#111" stroke-width="0.6"/>
<circle cx="723.56" cy="145.7" r="3.74" fill="#bfbfbf" stroke="#555" stroke-width="0.4"/>
<circle cx="723.03" cy="151.4" r="3.21" fill="#3050a0" stroke="#0b1a40" stroke-width="0.4"/>
<line x1="734.05" y1="146.0" x2="734.05" y2="239.4" stroke="#111" stroke-width="0.6"/>
<circle cx="737.79" cy="146.0" r="3.74" fill="#bfbfbf" stroke="#555" stroke-width="0.4"/>
<circle cx="737.26" cy="151.3" r="3.21" fill="#3050a0" stroke="#0b1a40" stroke-width="0.4"/>
<line x1="748.28" y1="146.6" x2="748.28" y2="230.7" stroke="#111" stroke-width="0.6"/>
<circle cx="752.02" cy="146.6" r="3.74" fill="#bfbfbf" stroke="#555" stroke-width="0.4"/>
<circle cx="751.49" cy="151.4" r="3.21" fill="#3050a0" stroke="#0b1a40" stroke-width="0.4"/>
<line x1="762.51" y1="147.6" x2="762.51" y2="222.4" stroke="#111" stroke-width="0.6"/>
<circle cx="766.26" cy="147.6" r="3.74" fill="#bfbfbf" stroke="#555" stroke-width="0.4"/>
<circle cx="765.72" cy="151.7" r="3.21" fill="#3050a0" stroke="#0b1a40" stroke-width="0.4"/>
<text x="910.0" y="30" font-size="18" font-weight="bold">7 knots</text>
<text x="910.0" y="52" font-size="12" fill="#666">residual on lever row: RMS 3.34 mm   max 10.89 mm</text>
<polyline points="910.0,1357.7 911.7,1354.8 913.3,1351.9 915.0,1349.1 916.6,1346.3 918.3,1343.5 920.0,1340.8 921.6,1338.1 923.3,1335.5 924.9,1332.9 926.6,1330.3 928.3,1327.8 929.9,1325.3 931.6,1322.9 933.2,1320.4 934.9,1318.0 936.6,1315.6 938.2,1313.3 939.9,1310.9 941.5,1308.6 943.2,1306.3 944.9,1304.0 946.5,1301.8 948.2,1299.5 949.9,1297.3 951.5,1295.0 953.2,1292.8 954.8,1290.6 956.5,1288.3 958.2,1286.1 959.8,1283.9 961.5,1281.7 963.1,1279.4 964.8,1277.2 966.5,1275.0 968.1,1272.7 969.8,1270.4 971.4,1268.2 973.1,1265.9 974.8,1263.5 976.4,1261.2 978.1,1258.9 979.7,1256.5 981.4,1254.1 983.1,1251.7 984.7,1249.2 986.4,1246.7 988.0,1244.2 989.7,1241.7 991.4,1239.1 993.0,1236.5 994.7,1233.8 996.3,1231.1 998.0,1228.4 999.7,1225.6 1001.3,1222.8 1003.0,1219.9 1004.6,1216.9 1006.3,1214.0 1008.0,1210.9 1009.6,1207.8 1011.3,1204.7 1012.9,1201.5 1014.6,1198.2 1016.3,1194.9 1017.9,1191.5 1019.6,1188.0 1021.2,1184.5 1022.9,1180.9 1024.6,1177.2 1026.2,1173.5 1027.9,1169.7 1029.6,1165.8 1031.2,1161.9 1032.9,1157.9 1034.5,1153.9 1036.2,1149.8 1037.9,1145.7 1039.5,1141.4 1041.2,1137.2 1042.8,1132.9 1044.5,1128.5 1046.2,1124.1 1047.8,1119.6 1049.5,1115.1 1051.1,1110.6 1052.8,1106.0 1054.5,1101.4 1056.1,1096.7 1057.8,1092.0 1059.4,1087.2 1061.1,1082.4 1062.8,1077.6 1064.4,1072.7 1066.1,1067.8 1067.7,1062.9 1069.4,1057.9 1071.1,1052.9 1072.7,1047.9 1074.4,1042.9 1076.0,1037.8 1077.7,1032.7 1079.4,1027.6 1081.0,1022.5 1082.7,1017.3 1084.3,1012.2 1086.0,1007.0 1087.7,1001.8 1089.3,996.6 1091.0,991.3 1092.6,986.1 1094.3,980.9 1096.0,975.6 1097.6,970.3 1099.3,965.1 1100.9,959.8 1102.6,954.5 1104.3,949.2 1105.9,944.0 1107.6,938.7 1109.3,933.4 1110.9,928.2 1112.6,922.9 1114.2,917.6 1115.9,912.4 1117.6,907.1 1119.2,901.9 1120.9,896.7 1122.5,891.5 1124.2,886.3 1125.9,881.1 1127.5,876.0 1129.2,870.8 1130.8,865.7 1132.5,860.6 1134.2,855.6 1135.8,850.5 1137.5,845.5 1139.1,840.5 1140.8,835.5 1142.5,830.5 1144.1,825.6 1145.8,820.7 1147.4,815.8 1149.1,810.9 1150.8,806.1 1152.4,801.3 1154.1,796.4 1155.7,791.7 1157.4,786.9 1159.1,782.2 1160.7,777.5 1162.4,772.8 1164.0,768.1 1165.7,763.5 1167.4,758.9 1169.0,754.3 1170.7,749.8 1172.3,745.2 1174.0,740.7 1175.7,736.2 1177.3,731.8 1179.0,727.3 1180.6,722.9 1182.3,718.5 1184.0,714.2 1185.6,709.8 1187.3,705.5 1189.0,701.2 1190.6,697.0 1192.3,692.7 1193.9,688.5 1195.6,684.4 1197.3,680.2 1198.9,676.1 1200.6,672.0 1202.2,667.9 1203.9,663.9 1205.6,659.8 1207.2,655.9 1208.9,651.9 1210.5,648.0 1212.2,644.0 1213.9,640.2 1215.5,636.3 1217.2,632.5 1218.8,628.7 1220.5,624.9 1222.2,621.2 1223.8,617.5 1225.5,613.8 1227.1,610.1 1228.8,606.5 1230.5,602.9 1232.1,599.3 1233.8,595.8 1235.4,592.3 1237.1,588.8 1238.8,585.3 1240.4,581.9 1242.1,578.5 1243.7,575.2 1245.4,571.8 1247.1,568.5 1248.7,565.2 1250.4,562.0 1252.0,558.8 1253.7,555.6 1255.4,552.4 1257.0,549.3 1258.7,546.2 1260.4,543.1 1262.0,540.0 1263.7,537.0 1265.3,534.0 1267.0,531.0 1268.7,528.1 1270.3,525.2 1272.0,522.3 1273.6,519.4 1275.3,516.5 1277.0,513.7 1278.6,510.9 1280.3,508.1 1281.9,505.4 1283.6,502.7 1285.3,499.9 1286.9,497.3 1288.6,494.6 1290.2,492.0 1291.9,489.3 1293.6,486.7 1295.2,484.2 1296.9,481.6 1298.5,479.1 1300.2,476.6 1301.9,474.1 1303.5,471.6 1305.2,469.2 1306.8,466.7 1308.5,464.3 1310.2,461.9 1311.8,459.5 1313.5,457.2 1315.1,454.8 1316.8,452.5 1318.5,450.2 1320.1,447.9 1321.8,445.7 1323.4,443.4 1325.1,441.2 1326.8,439.0 1328.4,436.8 1330.1,434.6 1331.7,432.4 1333.4,430.3 1335.1,428.1 1336.7,426.0 1338.4,423.9 1340.1,421.8 1341.7,419.7 1343.4,417.6 1345.0,415.6 1346.7,413.5 1348.4,411.5 1350.0,409.5 1351.7,407.5 1353.3,405.5 1355.0,403.5 1356.7,401.6 1358.3,399.6 1360.0,397.7 1361.6,395.7 1363.3,393.8 1365.0,391.9 1366.6,390.0 1368.3,388.1 1369.9,386.2 1371.6,384.4 1373.3,382.5 1374.9,380.7 1376.6,378.9 1378.2,377.1 1379.9,375.2 1381.6,373.4 1383.2,371.7 1384.9,369.9 1386.5,368.1 1388.2,366.4 1389.9,364.6 1391.5,362.9 1393.2,361.2 1394.8,359.5 1396.5,357.8 1398.2,356.1 1399.8,354.4 1401.5,352.7 1403.1,351.1 1404.8,349.4 1406.5,347.8 1408.1,346.1 1409.8,344.5 1411.4,342.9 1413.1,341.3 1414.8,339.7 1416.4,338.1 1418.1,336.5 1419.8,335.0 1421.4,333.4 1423.1,331.9 1424.7,330.3 1426.4,328.8 1428.1,327.3 1429.7,325.8 1431.4,324.2 1433.0,322.7 1434.7,321.3 1436.4,319.8 1438.0,318.3 1439.7,316.8 1441.3,315.4 1443.0,313.9 1444.7,312.5 1446.3,311.1 1448.0,309.6 1449.6,308.2 1451.3,306.8 1453.0,305.4 1454.6,304.0 1456.3,302.6 1457.9,301.2 1459.6,299.9 1461.3,298.5 1462.9,297.1 1464.6,295.8 1466.2,294.4 1467.9,293.1 1469.6,291.8 1471.2,290.5 1472.9,289.1 1474.5,287.8 1476.2,286.5 1477.9,285.2 1479.5,283.9 1481.2,282.7 1482.8,281.4 1484.5,280.1 1486.2,278.8 1487.8,277.6 1489.5,276.3 1491.1,275.1 1492.8,273.9 1494.5,272.6 1496.1,271.4 1497.8,270.2 1499.5,269.0 1501.1,267.8 1502.8,266.6 1504.4,265.4 1506.1,264.2 1507.8,263.1 1509.4,261.9 1511.1,260.8 1512.7,259.6 1514.4,258.5 1516.1,257.3 1517.7,256.2 1519.4,255.1 1521.0,253.9 1522.7,252.8 1524.4,251.7 1526.0,250.6 1527.7,249.5 1529.3,248.5 1531.0,247.4 1532.7,246.3 1534.3,245.3 1536.0,244.2 1537.6,243.2 1539.3,242.1 1541.0,241.1 1542.6,240.1 1544.3,239.0 1545.9,238.0 1547.6,237.0 1549.3,236.0 1550.9,235.0 1552.6,234.0 1554.2,233.0 1555.9,232.1 1557.6,231.1 1559.2,230.1 1560.9,229.2 1562.5,228.2 1564.2,227.3 1565.9,226.4 1567.5,225.5 1569.2,224.5 1570.8,223.6 1572.5,222.7" fill="none" stroke="#7a2a2a" stroke-width="0.9" stroke-dasharray="4,3"/>
<circle cx="1020.4" cy="1186.3" r="3.5" fill="#7a2a2a"/>
<circle cx="1130.8" cy="865.7" r="3.5" fill="#7a2a2a"/>
<circle cx="1241.3" cy="580.2" r="3.5" fill="#7a2a2a"/>
<circle cx="1351.7" cy="407.5" r="3.5" fill="#7a2a2a"/>
<circle cx="1462.1" cy="297.8" r="3.5" fill="#7a2a2a"/>
<circle cx="910.0" cy="1357.7" r="3.5" fill="#7a2a2a"/>
<circle cx="1572.5" cy="222.7" r="3.5" fill="#7a2a2a"/>
<line x1="900.0" y1="151.6" x2="1590.0" y2="151.6" stroke="#0a7" stroke-width="0.5" stroke-dasharray="2,3"/>
<line x1="910.00" y1="82.0" x2="910.00" y2="1357.7" stroke="#111" stroke-width="0.6"/>
<circle cx="913.74" cy="82.0" r="3.74" fill="#bfbfbf" stroke="#555" stroke-width="0.4"/>
<circle cx="913.21" cy="153.7" r="3.21" fill="#3050a0" stroke="#0b1a40" stroke-width="0.4"/>
<line x1="929.15" y1="78.8" x2="929.15" y2="1326.5" stroke="#111" stroke-width="0.6"/>
<circle cx="932.90" cy="78.8" r="3.74" fill="#bfbfbf" stroke="#555" stroke-width="0.4"/>
<circle cx="932.36" cy="148.9" r="3.21" fill="#3050a0" stroke="#0b1a40" stroke-width="0.4"/>
<line x1="948.30" y1="79.7" x2="948.30" y2="1299.4" stroke="#111" stroke-width="0.6"/>
<circle cx="952.05" cy="79.7" r="3.74" fill="#bfbfbf" stroke="#555" stroke-width="0.4"/>
<circle cx="951.51" cy="148.2" r="3.21" fill="#3050a0" stroke="#0b1a40" stroke-width="0.4"/>
<line x1="967.46" y1="86.7" x2="967.46" y2="1273.6" stroke="#111" stroke-width="0.6"/>
<circle cx="971.20" cy="86.7" r="3.74" fill="#bfbfbf" stroke="#555" stroke-width="0.4"/>
<circle cx="970.67" cy="153.4" r="3.21" fill="#3050a0" stroke="#0b1a40" stroke-width="0.4"/>
<line x1="986.61" y1="96.9" x2="986.61" y2="1246.4" stroke="#111" stroke-width="0.6"/>
<circle cx="990.35" cy="96.9" r="3.74" fill="#bfbfbf" stroke="#555" stroke-width="0.4"/>
<circle cx="989.82" cy="161.4" r="3.21" fill="#3050a0" stroke="#0b1a40" stroke-width="0.4"/>
<line x1="1005.76" y1="84.2" x2="1005.76" y2="1214.9" stroke="#111" stroke-width="0.6"/>
<circle cx="1009.50" cy="84.2" r="3.74" fill="#bfbfbf" stroke="#555" stroke-width="0.4"/>
<circle cx="1008.97" cy="147.6" r="3.21" fill="#3050a0" stroke="#0b1a40" stroke-width="0.4"/>
<line x1="1024.91" y1="78.3" x2="1024.91" y2="1176.5" stroke="#111" stroke-width="0.6"/>
<circle cx="1028.66" cy="78.3" r="3.74" fill="#bfbfbf" stroke="#555" stroke-width="0.4"/>
<circle cx="1028.12" cy="140.0" r="3.21" fill="#3050a0" stroke="#0b1a40" stroke-width="0.4"/>
<line x1="1044.06" y1="101.7" x2="1044.06" y2="1129.7" stroke="#111" stroke-width="0.6"/>
<circle cx="1047.81" cy="101.7" r="3.74" fill="#bfbfbf" stroke="#555" stroke-width="0.4"/>
<circle cx="1047.27" cy="159.3" r="3.21" fill="#3050a0" stroke="#0b1a40" stroke-width="0.4"/>
<line x1="1063.22" y1="99.6" x2="1063.22" y2="1076.2" stroke="#111" stroke-width="0.6"/>
<circle cx="1066.96" cy="99.6" r="3.74" fill="#bfbfbf" stroke="#555" stroke-width="0.4"/>
<circle cx="1066.43" cy="154.4" r="3.21" fill="#3050a0" stroke="#0b1a40" stroke-width="0.4"/>
<line x1="1082.37" y1="102.4" x2="1082.37" y2="1018.3" stroke="#111" stroke-width="0.6"/>
<circle cx="1086.11" cy="102.4" r="3.74" fill="#bfbfbf" stroke="#555" stroke-width="0.4"/>
<circle cx="1085.58" cy="153.8" r="3.21" fill="#3050a0" stroke="#0b1a40" stroke-width="0.4"/>
<line x1="1101.52" y1="102.9" x2="1101.52" y2="958.0" stroke="#111" stroke-width="0.6"/>
<circle cx="1105.27" cy="102.9" r="3.74" fill="#bfbfbf" stroke="#555" stroke-width="0.4"/>
<circle cx="1104.73" cy="150.9" r="3.21" fill="#3050a0" stroke="#0b1a40" stroke-width="0.4"/>
<line x1="1120.14" y1="100.0" x2="1120.14" y2="899.0" stroke="#111" stroke-width="0.6"/>
<circle cx="1123.88" cy="100.0" r="3.74" fill="#bfbfbf" stroke="#555" stroke-width="0.4"/>
<circle cx="1123.35" cy="144.8" r="3.21" fill="#3050a0" stroke="#0b1a40" stroke-width="0.4"/>
<line x1="1138.75" y1="108.0" x2="1138.75" y2="841.6" stroke="#111" stroke-width="0.6"/>
<circle cx="1142.50" cy="108.0" r="3.74" fill="#bfbfbf" stroke="#555" stroke-width="0.4"/>
<circle cx="1141.96" cy="149.2" r="3.21" fill="#3050a0" stroke="#0b1a40" stroke-width="0.4"/>
<line x1="1156.30" y1="112.5" x2="1156.30" y2="790.1" stroke="#111" stroke-width="0.6"/>
<circle cx="1160.05" cy="112.5" r="3.74" fill="#bfbfbf" stroke="#555" stroke-width="0.4"/>
<circle cx="1159.51" cy="150.6" r="3.21" fill="#3050a0" stroke="#0b1a40" stroke-width="0.4"/>
<line x1="1173.85" y1="124.3" x2="1173.85" y2="741.1" stroke="#111" stroke-width="0.6"/>
<circle cx="1177.59" cy="124.3" r="3.74" fill="#bfbfbf" stroke="#555" stroke-width="0.4"/>
<circle cx="1177.06" cy="158.9" r="3.21" fill="#3050a0" stroke="#0b1a40" stroke-width="0.4"/>
<line x1="1191.40" y1="120.2" x2="1191.40" y2="695.0" stroke="#111" stroke-width="0.6"/>
<circle cx="1195.14" cy="120.2" r="3.74" fill="#bfbfbf" stroke="#555" stroke-width="0.4"/>
<circle cx="1194.61" cy="152.5" r="3.21" fill="#3050a0" stroke="#0b1a40" stroke-width="0.4"/>
<line x1="1208.94" y1="123.7" x2="1208.94" y2="651.7" stroke="#111" stroke-width="0.6"/>
<circle cx="1212.69" cy="123.7" r="3.74" fill="#bfbfbf" stroke="#555" stroke-width="0.4"/>
<circle cx="1212.15" cy="153.3" r="3.21" fill="#3050a0" stroke="#0b1a40" stroke-width="0.4"/>
<line x1="1226.49" y1="125.6" x2="1226.49" y2="611.5" stroke="#111" stroke-width="0.6"/>
<circle cx="1230.23" cy="125.6" r="3.74" fill="#bfbfbf" stroke="#555" stroke-width="0.4"/>
<circle cx="1229.70" cy="152.8" r="3.21" fill="#3050a0" stroke="#0b1a40" stroke-width="0.4"/>
<line x1="1244.04" y1="126.0" x2="1244.04" y2="574.6" stroke="#111" stroke-width="0.6"/>
<circle cx="1247.78" cy="126.0" r="3.74" fill="#bfbfbf" stroke="#555" stroke-width="0.4"/>
<circle cx="1247.25" cy="151.1" r="3.21" fill="#3050a0" stroke="#0b1a40" stroke-width="0.4"/>
<line x1="1261.58" y1="125.0" x2="1261.58" y2="540.8" stroke="#111" stroke-width="0.6"/>
<circle cx="1265.33" cy="125.0" r="3.74" fill="#bfbfbf" stroke="#555" stroke-width="0.4"/>
<circle cx="1264.79" cy="148.3" r="3.21" fill="#3050a0" stroke="#0b1a40" stroke-width="0.4"/>
<line x1="1278.06" y1="128.7" x2="1278.06" y2="511.8" stroke="#111" stroke-width="0.6"/>
<circle cx="1281.81" cy="128.7" r="3.74" fill="#bfbfbf" stroke="#555" stroke-width="0.4"/>
<circle cx="1281.27" cy="150.1" r="3.21" fill="#3050a0" stroke="#0b1a40" stroke-width="0.4"/>
<line x1="1294.54" y1="130.1" x2="1294.54" y2="485.2" stroke="#111" stroke-width="0.6"/>
<circle cx="1298.28" cy="130.1" r="3.74" fill="#bfbfbf" stroke="#555" stroke-width="0.4"/>
<circle cx="1297.75" cy="150.0" r="3.21" fill="#3050a0" stroke="#0b1a40" stroke-width="0.4"/>
<line x1="1311.02" y1="133.6" x2="1311.02" y2="460.7" stroke="#111" stroke-width="0.6"/>
<circle cx="1314.76" cy="133.6" r="3.74" fill="#bfbfbf" stroke="#555" stroke-width="0.4"/>
<circle cx="1314.23" cy="151.9" r="3.21" fill="#3050a0" stroke="#0b1a40" stroke-width="0.4"/>
<line x1="1327.49" y1="134.3" x2="1327.49" y2="438.0" stroke="#111" stroke-width="0.6"/>
<circle cx="1331.24" cy="134.3" r="3.74" fill="#bfbfbf" stroke="#555" stroke-width="0.4"/>
<circle cx="1330.70" cy="151.3" r="3.21" fill="#3050a0" stroke="#0b1a40" stroke-width="0.4"/>
<line x1="1343.97" y1="136.5" x2="1343.97" y2="416.9" stroke="#111" stroke-width="0.6"/>
<circle cx="1347.71" cy="136.5" r="3.74" fill="#bfbfbf" stroke="#555" stroke-width="0.4"/>
<circle cx="1347.18" cy="152.2" r="3.21" fill="#3050a0" stroke="#0b1a40" stroke-width="0.4"/>
<line x1="1360.45" y1="140.1" x2="1360.45" y2="397.1" stroke="#111" stroke-width="0.6"/>
<circle cx="1364.19" cy="140.1" r="3.74" fill="#bfbfbf" stroke="#555" stroke-width="0.4"/>
<circle cx="1363.66" cy="154.6" r="3.21" fill="#3050a0" stroke="#0b1a40" stroke-width="0.4"/>
<line x1="1376.92" y1="135.5" x2="1376.92" y2="378.5" stroke="#111" stroke-width="0.6"/>
<circle cx="1380.67" cy="135.5" r="3.74" fill="#bfbfbf" stroke="#555" stroke-width="0.4"/>
<circle cx="1380.13" cy="149.1" r="3.21" fill="#3050a0" stroke="#0b1a40" stroke-width="0.4"/>
<line x1="1392.33" y1="142.5" x2="1392.33" y2="362.1" stroke="#111" stroke-width="0.6"/>
<circle cx="1396.08" cy="142.5" r="3.74" fill="#bfbfbf" stroke="#555" stroke-width="0.4"/>
<circle cx="1395.54" cy="154.8" r="3.21" fill="#3050a0" stroke="#0b1a40" stroke-width="0.4"/>
<line x1="1407.74" y1="140.9" x2="1407.74" y2="346.5" stroke="#111" stroke-width="0.6"/>
<circle cx="1411.48" cy="140.9" r="3.74" fill="#bfbfbf" stroke="#555" stroke-width="0.4"/>
<circle cx="1410.95" cy="152.5" r="3.21" fill="#3050a0" stroke="#0b1a40" stroke-width="0.4"/>
<line x1="1423.15" y1="140.2" x2="1423.15" y2="331.8" stroke="#111" stroke-width="0.6"/>
<circle cx="1426.89" cy="140.2" r="3.74" fill="#bfbfbf" stroke="#555" stroke-width="0.4"/>
<circle cx="1426.36" cy="151.0" r="3.21" fill="#3050a0" stroke="#0b1a40" stroke-width="0.4"/>
<line x1="1438.55" y1="140.3" x2="1438.55" y2="317.8" stroke="#111" stroke-width="0.6"/>
<circle cx="1442.30" cy="140.3" r="3.74" fill="#bfbfbf" stroke="#555" stroke-width="0.4"/>
<circle cx="1441.76" cy="150.2" r="3.21" fill="#3050a0" stroke="#0b1a40" stroke-width="0.4"/>
<line x1="1453.96" y1="141.1" x2="1453.96" y2="304.6" stroke="#111" stroke-width="0.6"/>
<circle cx="1457.71" cy="141.1" r="3.74" fill="#bfbfbf" stroke="#555" stroke-width="0.4"/>
<circle cx="1457.17" cy="150.2" r="3.21" fill="#3050a0" stroke="#0b1a40" stroke-width="0.4"/>
<line x1="1469.37" y1="142.4" x2="1469.37" y2="291.9" stroke="#111" stroke-width="0.6"/>
<circle cx="1473.11" cy="142.4" r="3.74" fill="#bfbfbf" stroke="#555" stroke-width="0.4"/>
<circle cx="1472.58" cy="150.8" r="3.21" fill="#3050a0" stroke="#0b1a40" stroke-width="0.4"/>
<line x1="1484.77" y1="144.4" x2="1484.77" y2="279.9" stroke="#111" stroke-width="0.6"/>
<circle cx="1488.52" cy="144.4" r="3.74" fill="#bfbfbf" stroke="#555" stroke-width="0.4"/>
<circle cx="1487.98" cy="152.0" r="3.21" fill="#3050a0" stroke="#0b1a40" stroke-width="0.4"/>
<line x1="1500.18" y1="147.0" x2="1500.18" y2="268.5" stroke="#111" stroke-width="0.6"/>
<circle cx="1503.93" cy="147.0" r="3.74" fill="#bfbfbf" stroke="#555" stroke-width="0.4"/>
<circle cx="1503.39" cy="153.8" r="3.21" fill="#3050a0" stroke="#0b1a40" stroke-width="0.4"/>
<line x1="1515.59" y1="145.5" x2="1515.59" y2="257.6" stroke="#111" stroke-width="0.6"/>
<circle cx="1519.33" cy="145.5" r="3.74" fill="#bfbfbf" stroke="#555" stroke-width="0.4"/>
<circle cx="1518.80" cy="151.8" r="3.21" fill="#3050a0" stroke="#0b1a40" stroke-width="0.4"/>
<line x1="1529.82" y1="145.3" x2="1529.82" y2="248.2" stroke="#111" stroke-width="0.6"/>
<circle cx="1533.56" cy="145.3" r="3.74" fill="#bfbfbf" stroke="#555" stroke-width="0.4"/>
<circle cx="1533.03" cy="151.1" r="3.21" fill="#3050a0" stroke="#0b1a40" stroke-width="0.4"/>
<line x1="1544.05" y1="145.7" x2="1544.05" y2="239.2" stroke="#111" stroke-width="0.6"/>
<circle cx="1547.79" cy="145.7" r="3.74" fill="#bfbfbf" stroke="#555" stroke-width="0.4"/>
<circle cx="1547.26" cy="151.0" r="3.21" fill="#3050a0" stroke="#0b1a40" stroke-width="0.4"/>
<line x1="1558.28" y1="146.6" x2="1558.28" y2="230.7" stroke="#111" stroke-width="0.6"/>
<circle cx="1562.02" cy="146.6" r="3.74" fill="#bfbfbf" stroke="#555" stroke-width="0.4"/>
<circle cx="1561.49" cy="151.3" r="3.21" fill="#3050a0" stroke="#0b1a40" stroke-width="0.4"/>
<line x1="1572.51" y1="147.9" x2="1572.51" y2="222.7" stroke="#111" stroke-width="0.6"/>
<circle cx="1576.26" cy="147.9" r="3.74" fill="#bfbfbf" stroke="#555" stroke-width="0.4"/>
<circle cx="1575.72" cy="152.1" r="3.21" fill="#3050a0" stroke="#0b1a40" stroke-width="0.4"/>
<text x="1720.0" y="30" font-size="18" font-weight="bold">8 knots</text>
<text x="1720.0" y="52" font-size="12" fill="#666">residual on lever row: RMS 3.25 mm   max 11.94 mm</text>
<polyline points="1720.0,1358.0 1721.7,1354.9 1723.3,1351.9 1725.0,1348.9 1726.6,1346.0 1728.3,1343.1 1730.0,1340.3 1731.6,1337.6 1733.3,1334.9 1734.9,1332.3 1736.6,1329.7 1738.3,1327.1 1739.9,1324.6 1741.6,1322.1 1743.2,1319.7 1744.9,1317.3 1746.6,1315.0 1748.2,1312.6 1749.9,1310.3 1751.5,1308.1 1753.2,1305.8 1754.9,1303.6 1756.5,1301.4 1758.2,1299.2 1759.9,1297.0 1761.5,1294.9 1763.2,1292.7 1764.8,1290.6 1766.5,1288.4 1768.2,1286.3 1769.8,1284.1 1771.5,1282.0 1773.1,1279.8 1774.8,1277.7 1776.5,1275.5 1778.1,1273.3 1779.8,1271.1 1781.4,1268.9 1783.1,1266.7 1784.8,1264.5 1786.4,1262.2 1788.1,1259.9 1789.7,1257.6 1791.4,1255.2 1793.1,1252.8 1794.7,1250.4 1796.4,1247.9 1798.0,1245.4 1799.7,1242.9 1801.4,1240.3 1803.0,1237.6 1804.7,1234.9 1806.3,1232.2 1808.0,1229.4 1809.7,1226.5 1811.3,1223.6 1813.0,1220.6 1814.6,1217.6 1816.3,1214.5 1818.0,1211.3 1819.6,1208.0 1821.3,1204.7 1822.9,1201.4 1824.6,1197.9 1826.3,1194.4 1827.9,1190.9 1829.6,1187.3 1831.2,1183.6 1832.9,1179.9 1834.6,1176.1 1836.2,1172.3 1837.9,1168.4 1839.6,1164.5 1841.2,1160.5 1842.9,1156.5 1844.5,1152.4 1846.2,1148.2 1847.9,1144.1 1849.5,1139.8 1851.2,1135.6 1852.8,1131.3 1854.5,1126.9 1856.2,1122.5 1857.8,1118.1 1859.5,1113.6 1861.1,1109.1 1862.8,1104.5 1864.5,1099.9 1866.1,1095.3 1867.8,1090.7 1869.4,1086.0 1871.1,1081.2 1872.8,1076.5 1874.4,1071.7 1876.1,1066.9 1877.7,1062.1 1879.4,1057.2 1881.1,1052.3 1882.7,1047.4 1884.4,1042.5 1886.0,1037.5 1887.7,1032.5 1889.4,1027.5 1891.0,1022.5 1892.7,1017.4 1894.3,1012.4 1896.0,1007.3 1897.7,1002.2 1899.3,997.1 1901.0,992.0 1902.6,986.9 1904.3,981.7 1906.0,976.6 1907.6,971.4 1909.3,966.3 1910.9,961.1 1912.6,955.9 1914.3,950.8 1915.9,945.6 1917.6,940.4 1919.3,935.2 1920.9,930.0 1922.6,924.8 1924.2,919.6 1925.9,914.4 1927.6,909.2 1929.2,904.1 1930.9,898.9 1932.5,893.7 1934.2,888.5 1935.9,883.3 1937.5,878.2 1939.2,873.0 1940.8,867.9 1942.5,862.7 1944.2,857.6 1945.8,852.5 1947.5,847.4 1949.1,842.3 1950.8,837.2 1952.5,832.1 1954.1,827.1 1955.8,822.0 1957.4,817.0 1959.1,812.0 1960.8,807.0 1962.4,802.0 1964.1,797.1 1965.7,792.2 1967.4,787.3 1969.1,782.4 1970.7,777.5 1972.4,772.7 1974.0,767.8 1975.7,763.0 1977.4,758.3 1979.0,753.5 1980.7,748.8 1982.3,744.1 1984.0,739.5 1985.7,734.8 1987.3,730.2 1989.0,725.7 1990.6,721.1 1992.3,716.6 1994.0,712.2 1995.6,707.7 1997.3,703.3 1999.0,699.0 2000.6,694.6 2002.3,690.4 2003.9,686.1 2005.6,681.9 2007.3,677.7 2008.9,673.6 2010.6,669.5 2012.2,665.4 2013.9,661.4 2015.6,657.4 2017.2,653.5 2018.9,649.6 2020.5,645.7 2022.2,641.9 2023.9,638.1 2025.5,634.3 2027.2,630.6 2028.8,626.9 2030.5,623.2 2032.2,619.6 2033.8,616.0 2035.5,612.4 2037.1,608.8 2038.8,605.3 2040.5,601.9 2042.1,598.4 2043.8,595.0 2045.4,591.6 2047.1,588.2 2048.8,584.9 2050.4,581.6 2052.1,578.3 2053.7,575.1 2055.4,571.9 2057.1,568.7 2058.7,565.5 2060.4,562.4 2062.0,559.3 2063.7,556.2 2065.4,553.1 2067.0,550.1 2068.7,547.0 2070.4,544.0 2072.0,541.1 2073.7,538.1 2075.3,535.2 2077.0,532.3 2078.7,529.4 2080.3,526.6 2082.0,523.7 2083.6,520.9 2085.3,518.1 2087.0,515.3 2088.6,512.5 2090.3,509.8 2091.9,507.1 2093.6,504.4 2095.3,501.7 2096.9,499.0 2098.6,496.3 2100.2,493.7 2101.9,491.1 2103.6,488.5 2105.2,485.9 2106.9,483.3 2108.5,480.7 2110.2,478.2 2111.9,475.7 2113.5,473.2 2115.2,470.7 2116.8,468.2 2118.5,465.7 2120.2,463.3 2121.8,460.8 2123.5,458.4 2125.1,456.0 2126.8,453.6 2128.5,451.2 2130.1,448.9 2131.8,446.5 2133.4,444.2 2135.1,441.9 2136.8,439.6 2138.4,437.3 2140.1,435.1 2141.7,432.8 2143.4,430.6 2145.1,428.4 2146.7,426.2 2148.4,424.0 2150.1,421.8 2151.7,419.6 2153.4,417.5 2155.0,415.4 2156.7,413.3 2158.4,411.2 2160.0,409.1 2161.7,407.0 2163.3,405.0 2165.0,402.9 2166.7,400.9 2168.3,398.9 2170.0,396.9 2171.6,394.9 2173.3,393.0 2175.0,391.0 2176.6,389.1 2178.3,387.2 2179.9,385.3 2181.6,383.4 2183.3,381.5 2184.9,379.6 2186.6,377.8 2188.2,376.0 2189.9,374.1 2191.6,372.3 2193.2,370.6 2194.9,368.8 2196.5,367.0 2198.2,365.3 2199.9,363.5 2201.5,361.8 2203.2,360.1 2204.8,358.4 2206.5,356.7 2208.2,355.1 2209.8,353.4 2211.5,351.8 2213.1,350.2 2214.8,348.5 2216.5,346.9 2218.1,345.3 2219.8,343.8 2221.4,342.2 2223.1,340.6 2224.8,339.1 2226.4,337.5 2228.1,336.0 2229.8,334.5 2231.4,333.0 2233.1,331.5 2234.7,330.0 2236.4,328.5 2238.1,327.0 2239.7,325.6 2241.4,324.1 2243.0,322.7 2244.7,321.2 2246.4,319.8 2248.0,318.4 2249.7,316.9 2251.3,315.5 2253.0,314.1 2254.7,312.7 2256.3,311.3 2258.0,310.0 2259.6,308.6 2261.3,307.2 2263.0,305.9 2264.6,304.5 2266.3,303.2 2267.9,301.8 2269.6,300.5 2271.3,299.1 2272.9,297.8 2274.6,296.5 2276.2,295.1 2277.9,293.8 2279.6,292.5 2281.2,291.2 2282.9,289.9 2284.5,288.6 2286.2,287.3 2287.9,286.0 2289.5,284.7 2291.2,283.4 2292.8,282.1 2294.5,280.8 2296.2,279.5 2297.8,278.3 2299.5,277.0 2301.1,275.7 2302.8,274.4 2304.5,273.2 2306.1,271.9 2307.8,270.7 2309.5,269.4 2311.1,268.2 2312.8,266.9 2314.4,265.7 2316.1,264.5 2317.8,263.3 2319.4,262.1 2321.1,260.9 2322.7,259.7 2324.4,258.5 2326.1,257.3 2327.7,256.1 2329.4,254.9 2331.0,253.8 2332.7,252.6 2334.4,251.5 2336.0,250.4 2337.7,249.2 2339.3,248.1 2341.0,247.0 2342.7,245.9 2344.3,244.8 2346.0,243.8 2347.6,242.7 2349.3,241.6 2351.0,240.6 2352.6,239.6 2354.3,238.5 2355.9,237.5 2357.6,236.5 2359.3,235.5 2360.9,234.6 2362.6,233.6 2364.2,232.7 2365.9,231.7 2367.6,230.8 2369.2,229.9 2370.9,229.0 2372.5,228.1 2374.2,227.2 2375.9,226.4 2377.5,225.5 2379.2,224.7 2380.8,223.9 2382.5,223.1" fill="none" stroke="#7a2a2a" stroke-width="0.9" stroke-dasharray="4,3"/>
<circle cx="1814.6" cy="1217.6" r="3.5" fill="#7a2a2a"/>
<circle cx="1909.3" cy="966.3" r="3.5" fill="#7a2a2a"/>
<circle cx="2003.9" cy="686.1" r="3.5" fill="#7a2a2a"/>
<circle cx="2098.6" cy="496.3" r="3.5" fill="#7a2a2a"/>
<circle cx="2193.2" cy="370.6" r="3.5" fill="#7a2a2a"/>
<circle cx="2287.9" cy="286.0" r="3.5" fill="#7a2a2a"/>
<circle cx="1720.0" cy="1358.0" r="3.5" fill="#7a2a2a"/>
<circle cx="2382.5" cy="223.1" r="3.5" fill="#7a2a2a"/>
<line x1="1710.0" y1="151.6" x2="2400.0" y2="151.6" stroke="#0a7" stroke-width="0.5" stroke-dasharray="2,3"/>
<line x1="1720.00" y1="82.3" x2="1720.00" y2="1358.0" stroke="#111" stroke-width="0.6"/>
<circle cx="1723.74" cy="82.3" r="3.74" fill="#bfbfbf" stroke="#555" stroke-width="0.4"/>
<circle cx="1723.21" cy="153.9" r="3.21" fill="#3050a0" stroke="#0b1a40" stroke-width="0.4"/>
<line x1="1739.15" y1="78.1" x2="1739.15" y2="1325.8" stroke="#111" stroke-width="0.6"/>
<circle cx="1742.90" cy="78.1" r="3.74" fill="#bfbfbf" stroke="#555" stroke-width="0.4"/>
<circle cx="1742.36" cy="148.2" r="3.21" fill="#3050a0" stroke="#0b1a40" stroke-width="0.4"/>
<line x1="1758.30" y1="79.4" x2="1758.30" y2="1299.1" stroke="#111" stroke-width="0.6"/>
<circle cx="1762.05" cy="79.4" r="3.74" fill="#bfbfbf" stroke="#555" stroke-width="0.4"/>
<circle cx="1761.51" cy="147.9" r="3.21" fill="#3050a0" stroke="#0b1a40" stroke-width="0.4"/>
<line x1="1777.46" y1="87.3" x2="1777.46" y2="1274.2" stroke="#111" stroke-width="0.6"/>
<circle cx="1781.20" cy="87.3" r="3.74" fill="#bfbfbf" stroke="#555" stroke-width="0.4"/>
<circle cx="1780.67" cy="154.0" r="3.21" fill="#3050a0" stroke="#0b1a40" stroke-width="0.4"/>
<line x1="1796.61" y1="98.1" x2="1796.61" y2="1247.6" stroke="#111" stroke-width="0.6"/>
<circle cx="1800.35" cy="98.1" r="3.74" fill="#bfbfbf" stroke="#555" stroke-width="0.4"/>
<circle cx="1799.82" cy="162.6" r="3.21" fill="#3050a0" stroke="#0b1a40" stroke-width="0.4"/>
<line x1="1815.76" y1="84.7" x2="1815.76" y2="1215.5" stroke="#111" stroke-width="0.6"/>
<circle cx="1819.50" cy="84.7" r="3.74" fill="#bfbfbf" stroke="#555" stroke-width="0.4"/>
<circle cx="1818.97" cy="148.2" r="3.21" fill="#3050a0" stroke="#0b1a40" stroke-width="0.4"/>
<line x1="1834.91" y1="77.2" x2="1834.91" y2="1175.3" stroke="#111" stroke-width="0.6"/>
<circle cx="1838.66" cy="77.2" r="3.74" fill="#bfbfbf" stroke="#555" stroke-width="0.4"/>
<circle cx="1838.12" cy="138.9" r="3.21" fill="#3050a0" stroke="#0b1a40" stroke-width="0.4"/>
<line x1="1854.06" y1="100.1" x2="1854.06" y2="1128.0" stroke="#111" stroke-width="0.6"/>
<circle cx="1857.81" cy="100.1" r="3.74" fill="#bfbfbf" stroke="#555" stroke-width="0.4"/>
<circle cx="1857.27" cy="157.7" r="3.21" fill="#3050a0" stroke="#0b1a40" stroke-width="0.4"/>
<line x1="1873.22" y1="98.6" x2="1873.22" y2="1075.2" stroke="#111" stroke-width="0.6"/>
<circle cx="1876.96" cy="98.6" r="3.74" fill="#bfbfbf" stroke="#555" stroke-width="0.4"/>
<circle cx="1876.43" cy="153.3" r="3.21" fill="#3050a0" stroke="#0b1a40" stroke-width="0.4"/>
<line x1="1892.37" y1="102.5" x2="1892.37" y2="1018.4" stroke="#111" stroke-width="0.6"/>
<circle cx="1896.11" cy="102.5" r="3.74" fill="#bfbfbf" stroke="#555" stroke-width="0.4"/>
<circle cx="1895.58" cy="153.8" r="3.21" fill="#3050a0" stroke="#0b1a40" stroke-width="0.4"/>
<line x1="1911.52" y1="104.2" x2="1911.52" y2="959.3" stroke="#111" stroke-width="0.6"/>
<circle cx="1915.27" cy="104.2" r="3.74" fill="#bfbfbf" stroke="#555" stroke-width="0.4"/>
<circle cx="1914.73" cy="152.2" r="3.21" fill="#3050a0" stroke="#0b1a40" stroke-width="0.4"/>
<line x1="1930.14" y1="102.1" x2="1930.14" y2="901.2" stroke="#111" stroke-width="0.6"/>
<circle cx="1933.88" cy="102.1" r="3.74" fill="#bfbfbf" stroke="#555" stroke-width="0.4"/>
<circle cx="1933.35" cy="147.0" r="3.21" fill="#3050a0" stroke="#0b1a40" stroke-width="0.4"/>
<line x1="1948.75" y1="109.8" x2="1948.75" y2="843.5" stroke="#111" stroke-width="0.6"/>
<circle cx="1952.50" cy="109.8" r="3.74" fill="#bfbfbf" stroke="#555" stroke-width="0.4"/>
<circle cx="1951.96" cy="151.0" r="3.21" fill="#3050a0" stroke="#0b1a40" stroke-width="0.4"/>
<line x1="1966.30" y1="113.0" x2="1966.30" y2="790.5" stroke="#111" stroke-width="0.6"/>
<circle cx="1970.05" cy="113.0" r="3.74" fill="#bfbfbf" stroke="#555" stroke-width="0.4"/>
<circle cx="1969.51" cy="151.0" r="3.21" fill="#3050a0" stroke="#0b1a40" stroke-width="0.4"/>
<line x1="1983.85" y1="123.1" x2="1983.85" y2="739.9" stroke="#111" stroke-width="0.6"/>
<circle cx="1987.59" cy="123.1" r="3.74" fill="#bfbfbf" stroke="#555" stroke-width="0.4"/>
<circle cx="1987.06" cy="157.7" r="3.21" fill="#3050a0" stroke="#0b1a40" stroke-width="0.4"/>
<line x1="2001.40" y1="117.9" x2="2001.40" y2="692.6" stroke="#111" stroke-width="0.6"/>
<circle cx="2005.14" cy="117.9" r="3.74" fill="#bfbfbf" stroke="#555" stroke-width="0.4"/>
<circle cx="2004.61" cy="150.2" r="3.21" fill="#3050a0" stroke="#0b1a40" stroke-width="0.4"/>
<line x1="2018.94" y1="121.4" x2="2018.94" y2="649.4" stroke="#111" stroke-width="0.6"/>
<circle cx="2022.69" cy="121.4" r="3.74" fill="#bfbfbf" stroke="#555" stroke-width="0.4"/>
<circle cx="2022.15" cy="151.0" r="3.21" fill="#3050a0" stroke="#0b1a40" stroke-width="0.4"/>
<line x1="2036.49" y1="124.2" x2="2036.49" y2="610.2" stroke="#111" stroke-width="0.6"/>
<circle cx="2040.23" cy="124.2" r="3.74" fill="#bfbfbf" stroke="#555" stroke-width="0.4"/>
<circle cx="2039.70" cy="151.5" r="3.21" fill="#3050a0" stroke="#0b1a40" stroke-width="0.4"/>
<line x1="2054.04" y1="125.9" x2="2054.04" y2="574.5" stroke="#111" stroke-width="0.6"/>
<circle cx="2057.78" cy="125.9" r="3.74" fill="#bfbfbf" stroke="#555" stroke-width="0.4"/>
<circle cx="2057.25" cy="151.1" r="3.21" fill="#3050a0" stroke="#0b1a40" stroke-width="0.4"/>
<line x1="2071.58" y1="126.0" x2="2071.58" y2="541.8" stroke="#111" stroke-width="0.6"/>
<circle cx="2075.33" cy="126.0" r="3.74" fill="#bfbfbf" stroke="#555" stroke-width="0.4"/>
<circle cx="2074.79" cy="149.3" r="3.21" fill="#3050a0" stroke="#0b1a40" stroke-width="0.4"/>
<line x1="2088.06" y1="130.3" x2="2088.06" y2="513.5" stroke="#111" stroke-width="0.6"/>
<circle cx="2091.81" cy="130.3" r="3.74" fill="#bfbfbf" stroke="#555" stroke-width="0.4"/>
<circle cx="2091.27" cy="151.7" r="3.21" fill="#3050a0" stroke="#0b1a40" stroke-width="0.4"/>
<line x1="2104.54" y1="131.8" x2="2104.54" y2="486.9" stroke="#111" stroke-width="0.6"/>
<circle cx="2108.28" cy="131.8" r="3.74" fill="#bfbfbf" stroke="#555" stroke-width="0.4"/>
<circle cx="2107.75" cy="151.7" r="3.21" fill="#3050a0" stroke="#0b1a40" stroke-width="0.4"/>
<line x1="2121.02" y1="134.9" x2="2121.02" y2="462.0" stroke="#111" stroke-width="0.6"/>
<circle cx="2124.76" cy="134.9" r="3.74" fill="#bfbfbf" stroke="#555" stroke-width="0.4"/>
<circle cx="2124.23" cy="153.2" r="3.21" fill="#3050a0" stroke="#0b1a40" stroke-width="0.4"/>
<line x1="2137.49" y1="134.9" x2="2137.49" y2="438.6" stroke="#111" stroke-width="0.6"/>
<circle cx="2141.24" cy="134.9" r="3.74" fill="#bfbfbf" stroke="#555" stroke-width="0.4"/>
<circle cx="2140.70" cy="151.9" r="3.21" fill="#3050a0" stroke="#0b1a40" stroke-width="0.4"/>
<line x1="2153.97" y1="136.4" x2="2153.97" y2="416.7" stroke="#111" stroke-width="0.6"/>
<circle cx="2157.71" cy="136.4" r="3.74" fill="#bfbfbf" stroke="#555" stroke-width="0.4"/>
<circle cx="2157.18" cy="152.1" r="3.21" fill="#3050a0" stroke="#0b1a40" stroke-width="0.4"/>
<line x1="2170.45" y1="139.4" x2="2170.45" y2="396.3" stroke="#111" stroke-width="0.6"/>
<circle cx="2174.19" cy="139.4" r="3.74" fill="#bfbfbf" stroke="#555" stroke-width="0.4"/>
<circle cx="2173.66" cy="153.8" r="3.21" fill="#3050a0" stroke="#0b1a40" stroke-width="0.4"/>
<line x1="2186.92" y1="134.4" x2="2186.92" y2="377.4" stroke="#111" stroke-width="0.6"/>
<circle cx="2190.67" cy="134.4" r="3.74" fill="#bfbfbf" stroke="#555" stroke-width="0.4"/>
<circle cx="2190.13" cy="148.0" r="3.21" fill="#3050a0" stroke="#0b1a40" stroke-width="0.4"/>
<line x1="2202.33" y1="141.4" x2="2202.33" y2="361.0" stroke="#111" stroke-width="0.6"/>
<circle cx="2206.08" cy="141.4" r="3.74" fill="#bfbfbf" stroke="#555" stroke-width="0.4"/>
<circle cx="2205.54" cy="153.7" r="3.21" fill="#3050a0" stroke="#0b1a40" stroke-width="0.4"/>
<line x1="2217.74" y1="140.1" x2="2217.74" y2="345.7" stroke="#111" stroke-width="0.6"/>
<circle cx="2221.48" cy="140.1" r="3.74" fill="#bfbfbf" stroke="#555" stroke-width="0.4"/>
<circle cx="2220.95" cy="151.7" r="3.21" fill="#3050a0" stroke="#0b1a40" stroke-width="0.4"/>
<line x1="2233.15" y1="139.8" x2="2233.15" y2="331.4" stroke="#111" stroke-width="0.6"/>
<circle cx="2236.89" cy="139.8" r="3.74" fill="#bfbfbf" stroke="#555" stroke-width="0.4"/>
<circle cx="2236.36" cy="150.6" r="3.21" fill="#3050a0" stroke="#0b1a40" stroke-width="0.4"/>
<line x1="2248.55" y1="140.3" x2="2248.55" y2="317.9" stroke="#111" stroke-width="0.6"/>
<circle cx="2252.30" cy="140.3" r="3.74" fill="#bfbfbf" stroke="#555" stroke-width="0.4"/>
<circle cx="2251.76" cy="150.3" r="3.21" fill="#3050a0" stroke="#0b1a40" stroke-width="0.4"/>
<line x1="2263.96" y1="141.5" x2="2263.96" y2="305.0" stroke="#111" stroke-width="0.6"/>
<circle cx="2267.71" cy="141.5" r="3.74" fill="#bfbfbf" stroke="#555" stroke-width="0.4"/>
<circle cx="2267.17" cy="150.7" r="3.21" fill="#3050a0" stroke="#0b1a40" stroke-width="0.4"/>
<line x1="2279.37" y1="143.1" x2="2279.37" y2="292.7" stroke="#111" stroke-width="0.6"/>
<circle cx="2283.11" cy="143.1" r="3.74" fill="#bfbfbf" stroke="#555" stroke-width="0.4"/>
<circle cx="2282.58" cy="151.5" r="3.21" fill="#3050a0" stroke="#0b1a40" stroke-width="0.4"/>
<line x1="2294.77" y1="145.1" x2="2294.77" y2="280.6" stroke="#111" stroke-width="0.6"/>
<circle cx="2298.52" cy="145.1" r="3.74" fill="#bfbfbf" stroke="#555" stroke-width="0.4"/>
<circle cx="2297.98" cy="152.7" r="3.21" fill="#3050a0" stroke="#0b1a40" stroke-width="0.4"/>
<line x1="2310.18" y1="147.4" x2="2310.18" y2="268.9" stroke="#111" stroke-width="0.6"/>
<circle cx="2313.93" cy="147.4" r="3.74" fill="#bfbfbf" stroke="#555" stroke-width="0.4"/>
<circle cx="2313.39" cy="154.2" r="3.21" fill="#3050a0" stroke="#0b1a40" stroke-width="0.4"/>
<line x1="2325.59" y1="145.5" x2="2325.59" y2="257.6" stroke="#111" stroke-width="0.6"/>
<circle cx="2329.33" cy="145.5" r="3.74" fill="#bfbfbf" stroke="#555" stroke-width="0.4"/>
<circle cx="2328.80" cy="151.8" r="3.21" fill="#3050a0" stroke="#0b1a40" stroke-width="0.4"/>
<line x1="2339.82" y1="145.0" x2="2339.82" y2="247.8" stroke="#111" stroke-width="0.6"/>
<circle cx="2343.56" cy="145.0" r="3.74" fill="#bfbfbf" stroke="#555" stroke-width="0.4"/>
<circle cx="2343.03" cy="150.7" r="3.21" fill="#3050a0" stroke="#0b1a40" stroke-width="0.4"/>
<line x1="2354.05" y1="145.2" x2="2354.05" y2="238.7" stroke="#111" stroke-width="0.6"/>
<circle cx="2357.79" cy="145.2" r="3.74" fill="#bfbfbf" stroke="#555" stroke-width="0.4"/>
<circle cx="2357.26" cy="150.5" r="3.21" fill="#3050a0" stroke="#0b1a40" stroke-width="0.4"/>
<line x1="2368.28" y1="146.3" x2="2368.28" y2="230.4" stroke="#111" stroke-width="0.6"/>
<circle cx="2372.02" cy="146.3" r="3.74" fill="#bfbfbf" stroke="#555" stroke-width="0.4"/>
<circle cx="2371.49" cy="151.0" r="3.21" fill="#3050a0" stroke="#0b1a40" stroke-width="0.4"/>
<line x1="2382.51" y1="148.3" x2="2382.51" y2="223.1" stroke="#111" stroke-width="0.6"/>
<circle cx="2386.26" cy="148.3" r="3.74" fill="#bfbfbf" stroke="#555" stroke-width="0.4"/>
<circle cx="2385.72" cy="152.5" r="3.21" fill="#3050a0" stroke="#0b1a40" stroke-width="0.4"/>
<text x="2530.0" y="30" font-size="18" font-weight="bold">9 knots</text>
<text x="2530.0" y="52" font-size="12" fill="#666">residual on lever row: RMS 3.41 mm   max 12.90 mm</text>
<polyline points="2530.0,1357.7 2531.7,1354.6 2533.3,1351.6 2535.0,1348.6 2536.6,1345.7 2538.3,1342.9 2540.0,1340.2 2541.6,1337.5 2543.3,1334.8 2544.9,1332.2 2546.6,1329.6 2548.3,1327.1 2549.9,1324.7 2551.6,1322.3 2553.2,1319.9 2554.9,1317.5 2556.6,1315.2 2558.2,1312.9 2559.9,1310.6 2561.5,1308.4 2563.2,1306.2 2564.9,1304.0 2566.5,1301.8 2568.2,1299.7 2569.9,1297.5 2571.5,1295.4 2573.2,1293.3 2574.8,1291.1 2576.5,1289.0 2578.2,1286.9 2579.8,1284.7 2581.5,1282.6 2583.1,1280.5 2584.8,1278.3 2586.5,1276.1 2588.1,1274.0 2589.8,1271.8 2591.4,1269.5 2593.1,1267.3 2594.8,1265.0 2596.4,1262.7 2598.1,1260.4 2599.7,1258.0 2601.4,1255.6 2603.1,1253.1 2604.7,1250.6 2606.4,1248.1 2608.0,1245.5 2609.7,1242.9 2611.4,1240.2 2613.0,1237.4 2614.7,1234.6 2616.3,1231.8 2618.0,1228.9 2619.7,1225.9 2621.3,1222.9 2623.0,1219.8 2624.6,1216.7 2626.3,1213.5 2628.0,1210.3 2629.6,1207.0 2631.3,1203.6 2632.9,1200.2 2634.6,1196.8 2636.3,1193.3 2637.9,1189.7 2639.6,1186.2 2641.2,1182.5 2642.9,1178.8 2644.6,1175.1 2646.2,1171.3 2647.9,1167.5 2649.6,1163.6 2651.2,1159.7 2652.9,1155.7 2654.5,1151.7 2656.2,1147.6 2657.9,1143.5 2659.5,1139.4 2661.2,1135.2 2662.8,1131.0 2664.5,1126.7 2666.2,1122.4 2667.8,1118.1 2669.5,1113.7 2671.1,1109.3 2672.8,1104.8 2674.5,1100.3 2676.1,1095.8 2677.8,1091.2 2679.4,1086.6 2681.1,1082.0 2682.8,1077.3 2684.4,1072.6 2686.1,1067.8 2687.7,1063.1 2689.4,1058.3 2691.1,1053.4 2692.7,1048.5 2694.4,1043.6 2696.0,1038.7 2697.7,1033.7 2699.4,1028.7 2701.0,1023.7 2702.7,1018.7 2704.3,1013.6 2706.0,1008.5 2707.7,1003.4 2709.3,998.3 2711.0,993.1 2712.6,987.9 2714.3,982.7 2716.0,977.5 2717.6,972.3 2719.3,967.1 2720.9,961.8 2722.6,956.6 2724.3,951.3 2725.9,946.0 2727.6,940.8 2729.3,935.5 2730.9,930.2 2732.6,924.9 2734.2,919.6 2735.9,914.3 2737.6,909.0 2739.2,903.7 2740.9,898.5 2742.5,893.2 2744.2,887.9 2745.9,882.6 2747.5,877.4 2749.2,872.1 2750.8,866.9 2752.5,861.7 2754.2,856.5 2755.8,851.3 2757.5,846.1 2759.1,841.0 2760.8,835.8 2762.5,830.7 2764.1,825.6 2765.8,820.5 2767.4,815.5 2769.1,810.5 2770.8,805.5 2772.4,800.5 2774.1,795.6 2775.7,790.7 2777.4,785.8 2779.1,781.0 2780.7,776.2 2782.4,771.4 2784.0,766.6 2785.7,761.9 2787.4,757.3 2789.0,752.6 2790.7,748.0 2792.3,743.5 2794.0,738.9 2795.7,734.4 2797.3,729.9 2799.0,725.5 2800.6,721.1 2802.3,716.7 2804.0,712.4 2805.6,708.1 2807.3,703.8 2809.0,699.5 2810.6,695.3 2812.3,691.1 2813.9,687.0 2815.6,682.8 2817.3,678.8 2818.9,674.7 2820.6,670.7 2822.2,666.6 2823.9,662.7 2825.6,658.7 2827.2,654.8 2828.9,650.9 2830.5,647.1 2832.2,643.2 2833.9,639.4 2835.5,635.7 2837.2,631.9 2838.8,628.2 2840.5,624.5 2842.2,620.9 2843.8,617.2 2845.5,613.6 2847.1,610.1 2848.8,606.5 2850.5,603.0 2852.1,599.5 2853.8,596.0 2855.4,592.6 2857.1,589.2 2858.8,585.8 2860.4,582.4 2862.1,579.1 2863.7,575.8 2865.4,572.5 2867.1,569.2 2868.7,566.0 2870.4,562.8 2872.0,559.6 2873.7,556.4 2875.4,553.3 2877.0,550.2 2878.7,547.1 2880.4,544.1 2882.0,541.0 2883.7,538.0 2885.3,535.0 2887.0,532.0 2888.7,529.1 2890.3,526.2 2892.0,523.3 2893.6,520.4 2895.3,517.5 2897.0,514.7 2898.6,511.9 2900.3,509.1 2901.9,506.3 2903.6,503.6 2905.3,500.9 2906.9,498.2 2908.6,495.5 2910.2,492.8 2911.9,490.2 2913.6,487.5 2915.2,484.9 2916.9,482.4 2918.5,479.8 2920.2,477.2 2921.9,474.7 2923.5,472.2 2925.2,469.7 2926.8,467.3 2928.5,464.8 2930.2,462.4 2931.8,460.0 2933.5,457.6 2935.1,455.2 2936.8,452.8 2938.5,450.5 2940.1,448.2 2941.8,445.9 2943.4,443.6 2945.1,441.3 2946.8,439.1 2948.4,436.8 2950.1,434.6 2951.7,432.4 2953.4,430.2 2955.1,428.0 2956.7,425.9 2958.4,423.7 2960.1,421.6 2961.7,419.5 2963.4,417.4 2965.0,415.3 2966.7,413.2 2968.4,411.2 2970.0,409.1 2971.7,407.1 2973.3,405.1 2975.0,403.1 2976.7,401.1 2978.3,399.1 2980.0,397.2 2981.6,395.2 2983.3,393.3 2985.0,391.4 2986.6,389.5 2988.3,387.6 2989.9,385.7 2991.6,383.9 2993.3,382.0 2994.9,380.2 2996.6,378.4 2998.2,376.6 2999.9,374.8 3001.6,373.0 3003.2,371.2 3004.9,369.4 3006.5,367.7 3008.2,365.9 3009.9,364.2 3011.5,362.5 3013.2,360.8 3014.8,359.1 3016.5,357.4 3018.2,355.7 3019.8,354.0 3021.5,352.4 3023.1,350.7 3024.8,349.1 3026.5,347.5 3028.1,345.9 3029.8,344.2 3031.4,342.6 3033.1,341.1 3034.8,339.5 3036.4,337.9 3038.1,336.3 3039.8,334.8 3041.4,333.3 3043.1,331.7 3044.7,330.2 3046.4,328.7 3048.1,327.2 3049.7,325.7 3051.4,324.2 3053.0,322.7 3054.7,321.2 3056.4,319.8 3058.0,318.3 3059.7,316.8 3061.3,315.4 3063.0,314.0 3064.7,312.5 3066.3,311.1 3068.0,309.7 3069.6,308.3 3071.3,306.9 3073.0,305.5 3074.6,304.1 3076.3,302.8 3077.9,301.4 3079.6,300.0 3081.3,298.7 3082.9,297.3 3084.6,296.0 3086.2,294.7 3087.9,293.3 3089.6,292.0 3091.2,290.7 3092.9,289.4 3094.5,288.1 3096.2,286.8 3097.9,285.5 3099.5,284.2 3101.2,282.9 3102.8,281.7 3104.5,280.4 3106.2,279.1 3107.8,277.9 3109.5,276.6 3111.1,275.4 3112.8,274.1 3114.5,272.9 3116.1,271.7 3117.8,270.5 3119.5,269.2 3121.1,268.0 3122.8,266.8 3124.4,265.6 3126.1,264.4 3127.8,263.2 3129.4,262.1 3131.1,260.9 3132.7,259.7 3134.4,258.6 3136.1,257.4 3137.7,256.3 3139.4,255.1 3141.0,254.0 3142.7,252.9 3144.4,251.7 3146.0,250.6 3147.7,249.5 3149.3,248.4 3151.0,247.3 3152.7,246.2 3154.3,245.2 3156.0,244.1 3157.6,243.0 3159.3,242.0 3161.0,240.9 3162.6,239.9 3164.3,238.9 3165.9,237.9 3167.6,236.9 3169.3,235.9 3170.9,234.9 3172.6,233.9 3174.2,232.9 3175.9,231.9 3177.6,231.0 3179.2,230.0 3180.9,229.1 3182.5,228.2 3184.2,227.2 3185.9,226.3 3187.5,225.4 3189.2,224.5 3190.8,223.6 3192.5,222.8" fill="none" stroke="#7a2a2a" stroke-width="0.9" stroke-dasharray="4,3"/>
<circle cx="2612.8" cy="1237.8" r="3.5" fill="#7a2a2a"/>
<circle cx="2695.6" cy="1039.9" r="3.5" fill="#7a2a2a"/>
<circle cx="2778.4" cy="782.8" r="3.5" fill="#7a2a2a"/>
<circle cx="2861.3" cy="580.8" r="3.5" fill="#7a2a2a"/>
<circle cx="2944.1" cy="442.7" r="3.5" fill="#7a2a2a"/>
<circle cx="3026.9" cy="347.1" r="3.5" fill="#7a2a2a"/>
<circle cx="3109.7" cy="276.5" r="3.5" fill="#7a2a2a"/>
<circle cx="2530.0" cy="1357.7" r="3.5" fill="#7a2a2a"/>
<circle cx="3192.5" cy="222.8" r="3.5" fill="#7a2a2a"/>
<line x1="2520.0" y1="151.6" x2="3210.0" y2="151.6" stroke="#0a7" stroke-width="0.5" stroke-dasharray="2,3"/>
<line x1="2530.00" y1="82.0" x2="2530.00" y2="1357.7" stroke="#111" stroke-width="0.6"/>
<circle cx="2533.74" cy="82.0" r="3.74" fill="#bfbfbf" stroke="#555" stroke-width="0.4"/>
<circle cx="2533.21" cy="153.6" r="3.21" fill="#3050a0" stroke="#0b1a40" stroke-width="0.4"/>
<line x1="2549.15" y1="78.2" x2="2549.15" y2="1325.8" stroke="#111" stroke-width="0.6"/>
<circle cx="2552.90" cy="78.2" r="3.74" fill="#bfbfbf" stroke="#555" stroke-width="0.4"/>
<circle cx="2552.36" cy="148.2" r="3.21" fill="#3050a0" stroke="#0b1a40" stroke-width="0.4"/>
<line x1="2568.30" y1="79.9" x2="2568.30" y2="1299.5" stroke="#111" stroke-width="0.6"/>
<circle cx="2572.05" cy="79.9" r="3.74" fill="#bfbfbf" stroke="#555" stroke-width="0.4"/>
<circle cx="2571.51" cy="148.4" r="3.21" fill="#3050a0" stroke="#0b1a40" stroke-width="0.4"/>
<line x1="2587.46" y1="88.0" x2="2587.46" y2="1274.8" stroke="#111" stroke-width="0.6"/>
<circle cx="2591.20" cy="88.0" r="3.74" fill="#bfbfbf" stroke="#555" stroke-width="0.4"/>
<circle cx="2590.67" cy="154.6" r="3.21" fill="#3050a0" stroke="#0b1a40" stroke-width="0.4"/>
<line x1="2606.61" y1="98.3" x2="2606.61" y2="1247.7" stroke="#111" stroke-width="0.6"/>
<circle cx="2610.35" cy="98.3" r="3.74" fill="#bfbfbf" stroke="#555" stroke-width="0.4"/>
<circle cx="2609.82" cy="162.8" r="3.21" fill="#3050a0" stroke="#0b1a40" stroke-width="0.4"/>
<line x1="2625.76" y1="83.8" x2="2625.76" y2="1214.5" stroke="#111" stroke-width="0.6"/>
<circle cx="2629.50" cy="83.8" r="3.74" fill="#bfbfbf" stroke="#555" stroke-width="0.4"/>
<circle cx="2628.97" cy="147.2" r="3.21" fill="#3050a0" stroke="#0b1a40" stroke-width="0.4"/>
<line x1="2644.91" y1="76.2" x2="2644.91" y2="1174.3" stroke="#111" stroke-width="0.6"/>
<circle cx="2648.66" cy="76.2" r="3.74" fill="#bfbfbf" stroke="#555" stroke-width="0.4"/>
<circle cx="2648.12" cy="137.8" r="3.21" fill="#3050a0" stroke="#0b1a40" stroke-width="0.4"/>
<line x1="2664.06" y1="99.9" x2="2664.06" y2="1127.8" stroke="#111" stroke-width="0.6"/>
<circle cx="2667.81" cy="99.9" r="3.74" fill="#bfbfbf" stroke="#555" stroke-width="0.4"/>
<circle cx="2667.27" cy="157.5" r="3.21" fill="#3050a0" stroke="#0b1a40" stroke-width="0.4"/>
<line x1="2683.22" y1="99.4" x2="2683.22" y2="1076.0" stroke="#111" stroke-width="0.6"/>
<circle cx="2686.96" cy="99.4" r="3.74" fill="#bfbfbf" stroke="#555" stroke-width="0.4"/>
<circle cx="2686.43" cy="154.2" r="3.21" fill="#3050a0" stroke="#0b1a40" stroke-width="0.4"/>
<line x1="2702.37" y1="103.7" x2="2702.37" y2="1019.6" stroke="#111" stroke-width="0.6"/>
<circle cx="2706.11" cy="103.7" r="3.74" fill="#bfbfbf" stroke="#555" stroke-width="0.4"/>
<circle cx="2705.58" cy="155.1" r="3.21" fill="#3050a0" stroke="#0b1a40" stroke-width="0.4"/>
<line x1="2721.52" y1="104.9" x2="2721.52" y2="960.0" stroke="#111" stroke-width="0.6"/>
<circle cx="2725.27" cy="104.9" r="3.74" fill="#bfbfbf" stroke="#555" stroke-width="0.4"/>
<circle cx="2724.73" cy="152.9" r="3.21" fill="#3050a0" stroke="#0b1a40" stroke-width="0.4"/>
<line x1="2740.14" y1="101.8" x2="2740.14" y2="900.8" stroke="#111" stroke-width="0.6"/>
<circle cx="2743.88" cy="101.8" r="3.74" fill="#bfbfbf" stroke="#555" stroke-width="0.4"/>
<circle cx="2743.35" cy="146.6" r="3.21" fill="#3050a0" stroke="#0b1a40" stroke-width="0.4"/>
<line x1="2758.75" y1="108.5" x2="2758.75" y2="842.2" stroke="#111" stroke-width="0.6"/>
<circle cx="2762.50" cy="108.5" r="3.74" fill="#bfbfbf" stroke="#555" stroke-width="0.4"/>
<circle cx="2761.96" cy="149.7" r="3.21" fill="#3050a0" stroke="#0b1a40" stroke-width="0.4"/>
<line x1="2776.30" y1="111.5" x2="2776.30" y2="789.0" stroke="#111" stroke-width="0.6"/>
<circle cx="2780.05" cy="111.5" r="3.74" fill="#bfbfbf" stroke="#555" stroke-width="0.4"/>
<circle cx="2779.51" cy="149.5" r="3.21" fill="#3050a0" stroke="#0b1a40" stroke-width="0.4"/>
<line x1="2793.85" y1="122.5" x2="2793.85" y2="739.4" stroke="#111" stroke-width="0.6"/>
<circle cx="2797.59" cy="122.5" r="3.74" fill="#bfbfbf" stroke="#555" stroke-width="0.4"/>
<circle cx="2797.06" cy="157.1" r="3.21" fill="#3050a0" stroke="#0b1a40" stroke-width="0.4"/>
<line x1="2811.40" y1="118.6" x2="2811.40" y2="693.3" stroke="#111" stroke-width="0.6"/>
<circle cx="2815.14" cy="118.6" r="3.74" fill="#bfbfbf" stroke="#555" stroke-width="0.4"/>
<circle cx="2814.61" cy="150.9" r="3.21" fill="#3050a0" stroke="#0b1a40" stroke-width="0.4"/>
<line x1="2828.94" y1="122.8" x2="2828.94" y2="650.8" stroke="#111" stroke-width="0.6"/>
<circle cx="2832.69" cy="122.8" r="3.74" fill="#bfbfbf" stroke="#555" stroke-width="0.4"/>
<circle cx="2832.15" cy="152.4" r="3.21" fill="#3050a0" stroke="#0b1a40" stroke-width="0.4"/>
<line x1="2846.49" y1="125.5" x2="2846.49" y2="611.5" stroke="#111" stroke-width="0.6"/>
<circle cx="2850.23" cy="125.5" r="3.74" fill="#bfbfbf" stroke="#555" stroke-width="0.4"/>
<circle cx="2849.70" cy="152.8" r="3.21" fill="#3050a0" stroke="#0b1a40" stroke-width="0.4"/>
<line x1="2864.04" y1="126.6" x2="2864.04" y2="575.2" stroke="#111" stroke-width="0.6"/>
<circle cx="2867.78" cy="126.6" r="3.74" fill="#bfbfbf" stroke="#555" stroke-width="0.4"/>
<circle cx="2867.25" cy="151.8" r="3.21" fill="#3050a0" stroke="#0b1a40" stroke-width="0.4"/>
<line x1="2881.58" y1="125.9" x2="2881.58" y2="541.8" stroke="#111" stroke-width="0.6"/>
<circle cx="2885.33" cy="125.9" r="3.74" fill="#bfbfbf" stroke="#555" stroke-width="0.4"/>
<circle cx="2884.79" cy="149.3" r="3.21" fill="#3050a0" stroke="#0b1a40" stroke-width="0.4"/>
<line x1="2898.06" y1="129.6" x2="2898.06" y2="512.8" stroke="#111" stroke-width="0.6"/>
<circle cx="2901.81" cy="129.6" r="3.74" fill="#bfbfbf" stroke="#555" stroke-width="0.4"/>
<circle cx="2901.27" cy="151.1" r="3.21" fill="#3050a0" stroke="#0b1a40" stroke-width="0.4"/>
<line x1="2914.54" y1="130.8" x2="2914.54" y2="486.0" stroke="#111" stroke-width="0.6"/>
<circle cx="2918.28" cy="130.8" r="3.74" fill="#bfbfbf" stroke="#555" stroke-width="0.4"/>
<circle cx="2917.75" cy="150.7" r="3.21" fill="#3050a0" stroke="#0b1a40" stroke-width="0.4"/>
<line x1="2931.02" y1="134.0" x2="2931.02" y2="461.1" stroke="#111" stroke-width="0.6"/>
<circle cx="2934.76" cy="134.0" r="3.74" fill="#bfbfbf" stroke="#555" stroke-width="0.4"/>
<circle cx="2934.23" cy="152.4" r="3.21" fill="#3050a0" stroke="#0b1a40" stroke-width="0.4"/>
<line x1="2947.49" y1="134.4" x2="2947.49" y2="438.1" stroke="#111" stroke-width="0.6"/>
<circle cx="2951.24" cy="134.4" r="3.74" fill="#bfbfbf" stroke="#555" stroke-width="0.4"/>
<circle cx="2950.70" cy="151.4" r="3.21" fill="#3050a0" stroke="#0b1a40" stroke-width="0.4"/>
<line x1="2963.97" y1="136.2" x2="2963.97" y2="416.6" stroke="#111" stroke-width="0.6"/>
<circle cx="2967.71" cy="136.2" r="3.74" fill="#bfbfbf" stroke="#555" stroke-width="0.4"/>
<circle cx="2967.18" cy="152.0" r="3.21" fill="#3050a0" stroke="#0b1a40" stroke-width="0.4"/>
<line x1="2980.45" y1="139.7" x2="2980.45" y2="396.6" stroke="#111" stroke-width="0.6"/>
<circle cx="2984.19" cy="139.7" r="3.74" fill="#bfbfbf" stroke="#555" stroke-width="0.4"/>
<circle cx="2983.66" cy="154.1" r="3.21" fill="#3050a0" stroke="#0b1a40" stroke-width="0.4"/>
<line x1="2996.92" y1="135.0" x2="2996.92" y2="378.0" stroke="#111" stroke-width="0.6"/>
<circle cx="3000.67" cy="135.0" r="3.74" fill="#bfbfbf" stroke="#555" stroke-width="0.4"/>
<circle cx="3000.13" cy="148.6" r="3.21" fill="#3050a0" stroke="#0b1a40" stroke-width="0.4"/>
<line x1="3012.33" y1="142.1" x2="3012.33" y2="361.6" stroke="#111" stroke-width="0.6"/>
<circle cx="3016.08" cy="142.1" r="3.74" fill="#bfbfbf" stroke="#555" stroke-width="0.4"/>
<circle cx="3015.54" cy="154.4" r="3.21" fill="#3050a0" stroke="#0b1a40" stroke-width="0.4"/>
<line x1="3027.74" y1="140.6" x2="3027.74" y2="346.2" stroke="#111" stroke-width="0.6"/>
<circle cx="3031.48" cy="140.6" r="3.74" fill="#bfbfbf" stroke="#555" stroke-width="0.4"/>
<circle cx="3030.95" cy="152.2" r="3.21" fill="#3050a0" stroke="#0b1a40" stroke-width="0.4"/>
<line x1="3043.15" y1="140.1" x2="3043.15" y2="331.6" stroke="#111" stroke-width="0.6"/>
<circle cx="3046.89" cy="140.1" r="3.74" fill="#bfbfbf" stroke="#555" stroke-width="0.4"/>
<circle cx="3046.36" cy="150.8" r="3.21" fill="#3050a0" stroke="#0b1a40" stroke-width="0.4"/>
<line x1="3058.55" y1="140.2" x2="3058.55" y2="317.8" stroke="#111" stroke-width="0.6"/>
<circle cx="3062.30" cy="140.2" r="3.74" fill="#bfbfbf" stroke="#555" stroke-width="0.4"/>
<circle cx="3061.76" cy="150.2" r="3.21" fill="#3050a0" stroke="#0b1a40" stroke-width="0.4"/>
<line x1="3073.96" y1="141.2" x2="3073.96" y2="304.7" stroke="#111" stroke-width="0.6"/>
<circle cx="3077.71" cy="141.2" r="3.74" fill="#bfbfbf" stroke="#555" stroke-width="0.4"/>
<circle cx="3077.17" cy="150.3" r="3.21" fill="#3050a0" stroke="#0b1a40" stroke-width="0.4"/>
<line x1="3089.37" y1="142.6" x2="3089.37" y2="292.2" stroke="#111" stroke-width="0.6"/>
<circle cx="3093.11" cy="142.6" r="3.74" fill="#bfbfbf" stroke="#555" stroke-width="0.4"/>
<circle cx="3092.58" cy="151.0" r="3.21" fill="#3050a0" stroke="#0b1a40" stroke-width="0.4"/>
<line x1="3104.77" y1="144.7" x2="3104.77" y2="280.2" stroke="#111" stroke-width="0.6"/>
<circle cx="3108.52" cy="144.7" r="3.74" fill="#bfbfbf" stroke="#555" stroke-width="0.4"/>
<circle cx="3107.98" cy="152.3" r="3.21" fill="#3050a0" stroke="#0b1a40" stroke-width="0.4"/>
<line x1="3120.18" y1="147.2" x2="3120.18" y2="268.7" stroke="#111" stroke-width="0.6"/>
<circle cx="3123.93" cy="147.2" r="3.74" fill="#bfbfbf" stroke="#555" stroke-width="0.4"/>
<circle cx="3123.39" cy="154.0" r="3.21" fill="#3050a0" stroke="#0b1a40" stroke-width="0.4"/>
<line x1="3135.59" y1="145.6" x2="3135.59" y2="257.7" stroke="#111" stroke-width="0.6"/>
<circle cx="3139.33" cy="145.6" r="3.74" fill="#bfbfbf" stroke="#555" stroke-width="0.4"/>
<circle cx="3138.80" cy="151.9" r="3.21" fill="#3050a0" stroke="#0b1a40" stroke-width="0.4"/>
<line x1="3149.82" y1="145.3" x2="3149.82" y2="248.1" stroke="#111" stroke-width="0.6"/>
<circle cx="3153.56" cy="145.3" r="3.74" fill="#bfbfbf" stroke="#555" stroke-width="0.4"/>
<circle cx="3153.03" cy="151.0" r="3.21" fill="#3050a0" stroke="#0b1a40" stroke-width="0.4"/>
<line x1="3164.05" y1="145.6" x2="3164.05" y2="239.0" stroke="#111" stroke-width="0.6"/>
<circle cx="3167.79" cy="145.6" r="3.74" fill="#bfbfbf" stroke="#555" stroke-width="0.4"/>
<circle cx="3167.26" cy="150.8" r="3.21" fill="#3050a0" stroke="#0b1a40" stroke-width="0.4"/>
<line x1="3178.28" y1="146.4" x2="3178.28" y2="230.6" stroke="#111" stroke-width="0.6"/>
<circle cx="3182.02" cy="146.4" r="3.74" fill="#bfbfbf" stroke="#555" stroke-width="0.4"/>
<circle cx="3181.49" cy="151.2" r="3.21" fill="#3050a0" stroke="#0b1a40" stroke-width="0.4"/>
<line x1="3192.51" y1="148.0" x2="3192.51" y2="222.8" stroke="#111" stroke-width="0.6"/>
<circle cx="3196.26" cy="148.0" r="3.74" fill="#bfbfbf" stroke="#555" stroke-width="0.4"/>
<circle cx="3195.72" cy="152.2" r="3.21" fill="#3050a0" stroke="#0b1a40" stroke-width="0.4"/>
</svg>
