<svg xmlns="http://www.w3.org/2000/svg" viewBox="0 0 863.10 1427.29" width="690" height="1142">
<polyline points="116.31,1342.56 137.50,1304.63 139.05,1301.88 140.60,1299.17 142.16,1296.51 143.71,1293.89 145.26,1291.32 146.81,1288.78 148.36,1286.29 149.92,1283.83 151.47,1281.40 153.02,1279.01 154.57,1276.65 156.12,1274.32 157.67,1272.02 159.23,1269.75 160.78,1267.50 162.33,1265.27 163.88,1263.07 165.43,1260.89 166.99,1258.72 168.54,1256.57 170.09,1254.44 171.64,1252.31 173.19,1250.20 174.75,1248.10 176.30,1246.01 177.85,1243.92 179.40,1241.84 180.95,1239.76 182.50,1237.68 184.06,1235.61 185.61,1233.53 187.16,1231.44 188.71,1229.35 190.26,1227.25 191.82,1225.14 193.37,1223.03 194.92,1220.90 196.47,1218.75 198.02,1216.59 199.58,1214.41 201.13,1212.22 202.68,1210.00 204.23,1207.76 205.78,1205.49 207.33,1203.20 208.89,1200.88 210.44,1198.53 211.99,1196.15 213.54,1193.73 215.09,1191.29 216.65,1188.80 218.20,1186.28 219.75,1183.71 221.30,1181.11 222.85,1178.46 224.41,1175.77 225.96,1173.03 227.51,1170.24 229.06,1167.41 230.61,1164.52 232.16,1161.57 233.72,1158.58 235.27,1155.52 236.82,1152.41 238.37,1149.24 239.92,1146.00 241.48,1142.70 243.03,1139.34 244.58,1135.91 246.13,1132.43 247.68,1128.88 249.24,1125.27 250.79,1121.61 252.34,1117.89 253.89,1114.12 255.44,1110.29 256.99,1106.41 258.55,1102.48 260.10,1098.49 261.65,1094.46 263.20,1090.39 264.75,1086.26 266.31,1082.09 267.86,1077.88 269.41,1073.63 270.96,1069.33 272.51,1065.00 274.07,1060.62 275.62,1056.21 277.17,1051.77 278.72,1047.29 280.27,1042.77 281.82,1038.23 283.38,1033.65 284.93,1029.05 286.48,1024.41 288.03,1019.75 289.58,1015.06 291.14,1010.35 292.69,1005.62 294.24,1000.86 295.79,996.08 297.34,991.29 298.90,986.47 300.45,981.64 302.00,976.80 303.55,971.94 305.10,967.07 306.65,962.18 308.21,957.29 309.76,952.38 311.31,947.47 312.86,942.55 314.41,937.63 315.97,932.70 317.52,927.77 319.07,922.84 320.62,917.91 322.17,912.98 323.73,908.05 325.28,903.12 326.83,898.20 328.38,893.29 329.93,888.38 331.48,883.49 333.04,878.60 334.59,873.72 336.14,868.86 337.69,864.01 339.24,859.18 340.80,854.36 342.35,849.56 343.90,844.78 345.45,840.02 347.00,835.28 348.56,830.56 350.11,825.86 351.66,821.18 353.21,816.53 354.76,811.89 356.32,807.27 357.87,802.68 359.42,798.11 360.97,793.55 362.52,789.02 364.07,784.52 365.63,780.03 367.18,775.56 368.73,771.12 370.28,766.70 371.83,762.30 373.39,757.93 374.94,753.57 376.49,749.24 378.04,744.93 379.59,740.65 381.15,736.38 382.70,732.14 384.25,727.93 385.80,723.73 387.35,719.56 388.90,715.42 390.46,711.29 392.01,707.19 393.56,703.12 395.11,699.07 396.66,695.04 398.22,691.04 399.77,687.06 401.32,683.10 402.87,679.17 404.42,675.26 405.98,671.38 407.53,667.53 409.08,663.70 410.63,659.89 412.18,656.11 413.73,652.35 415.29,648.62 416.84,644.92 418.39,641.24 419.94,637.58 421.49,633.96 423.05,630.35 424.60,626.78 426.15,623.23 427.70,619.71 429.25,616.21 430.81,612.74 432.36,609.29 433.91,605.88 435.46,602.49 437.01,599.13 438.56,595.79 440.12,592.48 441.67,589.20 443.22,585.95 444.77,582.72 446.32,579.52 447.88,576.35 449.43,573.21 450.98,570.09 452.53,567.00 454.08,563.94 455.64,560.90 457.19,557.90 458.74,554.91 460.29,551.96 461.84,549.03 463.39,546.12 464.95,543.24 466.50,540.39 468.05,537.56 469.60,534.75 471.15,531.97 472.71,529.21 474.26,526.48 475.81,523.77 477.36,521.08 478.91,518.42 480.47,515.78 482.02,513.16 483.57,510.57 485.12,507.99 486.67,505.44 488.22,502.91 489.78,500.40 491.33,497.91 492.88,495.44 494.43,493.00 495.98,490.57 497.54,488.16 499.09,485.78 500.64,483.41 502.19,481.06 503.74,478.73 505.30,476.42 506.85,474.13 508.40,471.86 509.95,469.60 511.50,467.36 513.05,465.14 514.61,462.94 516.16,460.76 517.71,458.59 519.26,456.44 520.81,454.30 522.37,452.18 523.92,450.08 525.47,447.99 527.02,445.92 528.57,443.86 530.13,441.82 531.68,439.79 533.23,437.77 534.78,435.77 536.33,433.79 537.88,431.82 539.44,429.86 540.99,427.91 542.54,425.98 544.09,424.06 545.64,422.15 547.20,420.26 548.75,418.37 550.30,416.50 551.85,414.64 553.40,412.79 554.96,410.95 556.51,409.12 558.06,407.31 559.61,405.50 561.16,403.71 562.72,401.93 564.27,400.16 565.82,398.39 567.37,396.64 568.92,394.90 570.47,393.17 572.03,391.45 573.58,389.75 575.13,388.05 576.68,386.36 578.23,384.68 579.79,383.01 581.34,381.35 582.89,379.71 584.44,378.07 585.99,376.44 587.55,374.82 589.10,373.21 590.65,371.61 592.20,370.02 593.75,368.44 595.30,366.87 596.86,365.31 598.41,363.76 599.96,362.21 601.51,360.68 603.06,359.15 604.62,357.63 606.17,356.13 607.72,354.63 609.27,353.14 610.82,351.66 612.38,350.18 613.93,348.72 615.48,347.26 617.03,345.81 618.58,344.37 620.13,342.94 621.69,341.52 623.24,340.10 624.79,338.69 626.34,337.29 627.89,335.90 629.45,334.52 631.00,333.14 632.55,331.77 634.10,330.41 635.65,329.06 637.21,327.71 638.76,326.37 640.31,325.04 641.86,323.72 643.41,322.40 644.96,321.09 646.52,319.78 648.07,318.49 649.62,317.20 651.17,315.91 652.72,314.63 654.28,313.36 655.83,312.10 657.38,310.84 658.93,309.59 660.48,308.35 662.04,307.11 663.59,305.88 665.14,304.65 666.69,303.44 668.24,302.22 669.79,301.02 671.35,299.82 672.90,298.63 674.45,297.44 676.00,296.26 677.55,295.09 679.11,293.92 680.66,292.76 682.21,291.61 683.76,290.46 685.31,289.32 686.87,288.19 688.42,287.06 689.97,285.94 691.52,284.83 693.07,283.72 694.62,282.62 696.18,281.52 697.73,280.43 699.28,279.35 700.83,278.27 702.38,277.21 703.94,276.14 705.49,275.09 707.04,274.04 708.59,272.99 710.14,271.95 711.70,270.92 713.25,269.90 714.80,268.88 716.35,267.87 717.90,266.86 719.45,265.86 721.01,264.87 722.56,263.89 724.11,262.91 725.66,261.93 727.21,260.97 728.77,260.01 730.32,259.05 731.87,258.10 733.42,257.16 734.97,256.23 736.53,255.30 738.08,254.38 739.63,253.46 741.18,252.55 742.73,251.65 744.28,250.75 745.84,249.86 747.39,248.97 748.94,248.10 750.49,247.22 752.04,246.36 753.60,245.50 755.15,244.65 756.70,243.80" fill="none" stroke="#7a2a2a" stroke-width="0.8" stroke-dasharray="4,3"/>
<polyline points="303.37,1397.29 303.92,1395.60 304.48,1393.93 305.04,1392.29 305.61,1390.67 306.19,1389.06 306.78,1387.47 307.38,1385.88 307.99,1384.30 308.63,1382.71 309.28,1381.13 309.95,1379.54 310.65,1377.93 311.37,1376.32 312.11,1374.68 312.89,1373.03 313.69,1371.35 314.53,1369.64 315.40,1367.90 316.30,1366.13 317.25,1364.32 318.23,1362.47 319.25,1360.59 320.31,1358.65 321.41,1356.68 322.56,1354.65 323.74,1352.57 324.97,1350.44 326.25,1348.26 327.56,1346.02 328.92,1343.72 330.32,1341.36 331.76,1338.94 333.24,1336.46 334.77,1333.92 336.32,1331.32 337.92,1328.65 339.55,1325.92 341.22,1323.12 342.91,1320.25 344.64,1317.32 346.39,1314.32 348.17,1311.26 349.98,1308.13 351.80,1304.93 353.64,1301.67 355.50,1298.34 357.37,1294.95 359.25,1291.49 361.14,1287.96 363.04,1284.37 364.94,1280.72 366.84,1277.01 368.75,1273.23 370.65,1269.38 372.55,1265.48 374.44,1261.51 376.32,1257.49 378.20,1253.40 380.06,1249.25 381.91,1245.05 383.75,1240.78 385.57,1236.46 387.38,1232.07 389.16,1227.63 390.94,1223.13 392.69,1218.56 394.42,1213.95 396.10,1209.32 397.75,1204.68 399.36,1200.04 400.94,1195.38 402.48,1190.70 403.99,1186.01 405.48,1181.31 406.93,1176.59 408.36,1171.85 409.77,1167.10 411.15,1162.33 412.52,1157.54 413.86,1152.73 415.18,1147.90 416.49,1143.05 417.78,1138.19 419.05,1133.31 420.31,1128.41 421.55,1123.49 422.78,1118.56 423.99,1113.60 425.20,1108.63 426.39,1103.65 427.57,1098.65 428.74,1093.63 429.89,1088.60 431.04,1083.56 432.18,1078.50 433.31,1073.43 434.43,1068.35 435.54,1063.26 436.65,1058.16 437.74,1053.05 438.83,1047.94 439.91,1042.81 440.99,1037.68 442.06,1032.55 443.12,1027.41 444.18,1022.26 445.23,1017.12 446.28,1011.97 447.32,1006.82 448.36,1001.67 449.39,996.53 450.42,991.39 451.44,986.25 452.46,981.12 453.48,975.99 454.49,970.88 455.50,965.77 456.50,960.67 457.51,955.58 458.51,950.50 459.50,945.44 460.50,940.39 461.49,935.36 462.48,930.35 463.46,925.35 464.45,920.38 465.43,915.42 466.41,910.49 467.39,905.58 468.37,900.70 469.35,895.85 470.32,891.02 471.29,886.22 472.26,881.45 473.24,876.70 474.21,871.97 475.19,867.26 476.17,862.58 477.15,857.91 478.13,853.27 479.12,848.66 480.10,844.06 481.09,839.49 482.08,834.94 483.07,830.42 484.06,825.92 485.05,821.44 486.04,816.98 487.04,812.55 488.04,808.14 489.04,803.76 490.04,799.40 491.04,795.06 492.04,790.75 493.05,786.47 494.05,782.20 495.06,777.97 496.07,773.75 497.08,769.57 498.09,765.40 499.11,761.27 500.12,757.16 501.14,753.07 502.15,749.01 503.17,744.98 504.19,740.97 505.22,736.99 506.24,733.03 507.26,729.11 508.29,725.20 509.31,721.33 510.34,717.48 511.37,713.66 512.40,709.87 513.43,706.10 514.46,702.36 515.50,698.65 516.53,694.97 517.57,691.32 518.60,687.69 519.64,684.09 520.68,680.52 521.72,676.98 522.76,673.47 523.80,669.99 524.84,666.54 525.88,663.11 526.92,659.72 527.96,656.35 529.01,653.02 530.05,649.72 531.09,646.44 532.14,643.20 533.18,639.99 534.23,636.80 535.27,633.65 536.32,630.53 537.36,627.45 538.41,624.39 539.45,621.36 540.50,618.37 541.55,615.40 542.60,612.45 543.65,609.54 544.70,606.65 545.75,603.79 546.81,600.95 547.87,598.14 548.93,595.35 549.99,592.59 551.05,589.85 552.12,587.14 553.18,584.45 554.25,581.78 555.32,579.14 556.39,576.52 557.47,573.93 558.54,571.35 559.62,568.80 560.70,566.27 561.77,563.77 562.86,561.28 563.94,558.81 565.02,556.37 566.11,553.95 567.20,551.54 568.29,549.16 569.38,546.79 570.47,544.45 571.57,542.12 572.67,539.81 573.77,537.52 574.87,535.25 575.97,532.99 577.08,530.76 578.18,528.53 579.29,526.33 580.40,524.14 581.52,521.97 582.63,519.81 583.75,517.67 584.87,515.55 585.99,513.44 587.12,511.34 588.24,509.26 589.37,507.19 590.50,505.13 591.64,503.09 592.78,501.06 593.91,499.05 595.06,497.04 596.20,495.05 597.35,493.07 598.50,491.10 599.65,489.14 600.81,487.20 601.97,485.26 603.13,483.33 604.30,481.42 605.46,479.51 606.64,477.61 607.81,475.72 608.99,473.84 610.17,471.97 611.35,470.11 612.54,468.26 613.73,466.41 614.93,464.57 616.12,462.75 617.31,460.93 618.51,459.13 619.70,457.33 620.90,455.55 622.10,453.77 623.30,452.01 624.50,450.25 625.70,448.50 626.90,446.77 628.11,445.04 629.31,443.32 630.52,441.61 631.73,439.91 632.94,438.22 634.15,436.54 635.36,434.87 636.57,433.21 637.78,431.55 639.00,429.91 640.22,428.27 641.43,426.64 642.65,425.02 643.87,423.41 645.10,421.80 646.32,420.21 647.54,418.62 648.77,417.04 650.00,415.47 651.23,413.90 652.46,412.35 653.69,410.80 654.92,409.26 656.16,407.72 657.39,406.20 658.63,404.68 659.87,403.17 661.11,401.66 662.35,400.17 663.59,398.68 664.84,397.19 666.09,395.72 667.33,394.25 668.58,392.79 669.83,391.33 671.09,389.88 672.34,388.44 673.60,387.00 674.85,385.57 676.11,384.15 677.37,382.73 678.64,381.32 679.90,379.91 681.17,378.51 682.43,377.12 683.70,375.73 684.98,374.35 686.25,372.97 687.52,371.60 688.80,370.24 690.08,368.88 691.36,367.52 692.64,366.18 693.92,364.83 695.21,363.49 696.49,362.16 697.78,360.84 699.06,359.52 700.35,358.20 701.64,356.89 702.92,355.59 704.21,354.30 705.50,353.01 706.79,351.73 708.08,350.45 709.37,349.18 710.66,347.91 711.95,346.66 713.24,345.40 714.53,344.16 715.83,342.92 717.12,341.69 718.41,340.46 719.70,339.24 721.00,338.02 722.29,336.81 723.59,335.61 724.88,334.41 726.18,333.22 727.47,332.04 728.77,330.86 730.07,329.69 731.37,328.52 732.66,327.36 733.96,326.20 735.26,325.06 736.56,323.91 737.86,322.78 739.16,321.65 740.46,320.52 741.76,319.40 743.07,318.29 744.37,317.19 745.67,316.08 746.97,314.99 748.28,313.90 749.58,312.82 750.89,311.74 752.19,310.67 753.50,309.61 754.81,308.55 756.11,307.50 757.42,306.45 758.73,305.41 760.04,304.37 761.35,303.34 762.66,302.32 763.97,301.30 765.28,300.29 766.59,299.29 767.90,298.29 769.21,297.29 770.52,296.31 771.84,295.32 773.15,294.35 774.47,293.38 775.78,292.41 777.10,291.45 778.41,290.50 779.73,289.55 781.05,288.61" fill="none" stroke="#1a5" stroke-width="1.2"/>
<path d="M 781.05,288.61 C 804.01,276.14 833.10,256.13 833.10,230.00" fill="none" stroke="#1a5" stroke-width="1.2"/>
<circle cx="833.10" cy="230.00" r="3" fill="#1a5"/>
<path d="M 303.37,1397.29 C 234.75,1397.29 166.12,1397.29 97.50,1397.29" fill="none" stroke="#1a5" stroke-width="1.2"/>
<circle cx="303.37" cy="1397.29" r="3" fill="#1a5"/>
<circle cx="303.37" cy="1397.29" r="1.2" fill="#1a5"/>
<circle cx="306.75" cy="1387.56" r="1.2" fill="#1a5"/>
<circle cx="310.88" cy="1377.46" r="1.2" fill="#1a5"/>
<circle cx="316.34" cy="1366.11" r="1.2" fill="#1a5"/>
<circle cx="323.72" cy="1352.66" r="1.2" fill="#1a5"/>
<circle cx="333.24" cy="1336.52" r="1.2" fill="#1a5"/>
<circle cx="344.47" cy="1317.65" r="1.2" fill="#1a5"/>
<circle cx="356.51" cy="1296.54" r="1.2" fill="#1a5"/>
<circle cx="368.38" cy="1273.96" r="1.2" fill="#1a5"/>
<circle cx="379.41" cy="1250.70" r="1.2" fill="#1a5"/>
<circle cx="389.25" cy="1227.34" r="1.2" fill="#1a5"/>
<circle cx="397.81" cy="1204.40" r="1.2" fill="#1a5"/>
<circle cx="405.00" cy="1182.66" r="1.2" fill="#1a5"/>
<circle cx="411.23" cy="1161.81" r="1.2" fill="#1a5"/>
<circle cx="416.80" cy="1141.60" r="1.2" fill="#1a5"/>
<circle cx="421.87" cy="1121.85" r="1.2" fill="#1a5"/>
<circle cx="426.58" cy="1102.46" r="1.2" fill="#1a5"/>
<circle cx="430.99" cy="1083.35" r="1.2" fill="#1a5"/>
<circle cx="435.17" cy="1064.47" r="1.2" fill="#1a5"/>
<circle cx="439.18" cy="1045.78" r="1.2" fill="#1a5"/>
<circle cx="443.04" cy="1027.26" r="1.2" fill="#1a5"/>
<circle cx="446.79" cy="1008.89" r="1.2" fill="#1a5"/>
<circle cx="450.44" cy="990.66" r="1.2" fill="#1a5"/>
<circle cx="454.04" cy="972.56" r="1.2" fill="#1a5"/>
<circle cx="457.58" cy="954.59" r="1.2" fill="#1a5"/>
<circle cx="461.10" cy="936.74" r="1.2" fill="#1a5"/>
<circle cx="464.60" cy="919.02" r="1.2" fill="#1a5"/>
<circle cx="468.10" cy="901.44" r="1.2" fill="#1a5"/>
<circle cx="471.62" cy="884.01" r="1.2" fill="#1a5"/>
<circle cx="475.20" cy="866.67" r="1.2" fill="#1a5"/>
<circle cx="478.85" cy="849.37" r="1.2" fill="#1a5"/>
<circle cx="482.58" cy="832.13" r="1.2" fill="#1a5"/>
<circle cx="486.40" cy="814.95" r="1.2" fill="#1a5"/>
<circle cx="490.30" cy="797.82" r="1.2" fill="#1a5"/>
<circle cx="494.30" cy="780.77" r="1.2" fill="#1a5"/>
<circle cx="498.39" cy="763.79" r="1.2" fill="#1a5"/>
<circle cx="502.60" cy="746.89" r="1.2" fill="#1a5"/>
<circle cx="506.92" cy="730.09" r="1.2" fill="#1a5"/>
<circle cx="511.36" cy="713.40" r="1.2" fill="#1a5"/>
<circle cx="515.93" cy="696.83" r="1.2" fill="#1a5"/>
<circle cx="520.64" cy="680.39" r="1.2" fill="#1a5"/>
<circle cx="525.50" cy="664.12" r="1.2" fill="#1a5"/>
<circle cx="530.53" cy="648.02" r="1.2" fill="#1a5"/>
<circle cx="535.72" cy="632.14" r="1.2" fill="#1a5"/>
<circle cx="541.10" cy="616.50" r="1.2" fill="#1a5"/>
<circle cx="546.72" cy="601.05" r="1.2" fill="#1a5"/>
<circle cx="552.61" cy="585.78" r="1.2" fill="#1a5"/>
<circle cx="558.78" cy="570.71" r="1.2" fill="#1a5"/>
<circle cx="565.24" cy="555.82" r="1.2" fill="#1a5"/>
<circle cx="572.01" cy="541.12" r="1.2" fill="#1a5"/>
<circle cx="579.12" cy="526.62" r="1.2" fill="#1a5"/>
<circle cx="586.59" cy="512.29" r="1.2" fill="#1a5"/>
<circle cx="594.43" cy="498.11" r="1.2" fill="#1a5"/>
<circle cx="602.67" cy="484.08" r="1.2" fill="#1a5"/>
<circle cx="611.33" cy="470.14" r="1.2" fill="#1a5"/>
<circle cx="620.37" cy="456.33" r="1.2" fill="#1a5"/>
<circle cx="629.73" cy="442.73" r="1.2" fill="#1a5"/>
<circle cx="639.41" cy="429.35" r="1.2" fill="#1a5"/>
<circle cx="649.43" cy="416.19" r="1.2" fill="#1a5"/>
<circle cx="659.79" cy="403.26" r="1.2" fill="#1a5"/>
<circle cx="670.51" cy="390.55" r="1.2" fill="#1a5"/>
<circle cx="681.59" cy="378.06" r="1.2" fill="#1a5"/>
<circle cx="693.03" cy="365.77" r="1.2" fill="#1a5"/>
<circle cx="704.80" cy="353.72" r="1.2" fill="#1a5"/>
<circle cx="716.83" cy="341.97" r="1.2" fill="#1a5"/>
<circle cx="729.13" cy="330.55" r="1.2" fill="#1a5"/>
<circle cx="741.71" cy="319.47" r="1.2" fill="#1a5"/>
<circle cx="754.57" cy="308.76" r="1.2" fill="#1a5"/>
<circle cx="767.71" cy="298.45" r="1.2" fill="#1a5"/>
<circle cx="781.05" cy="288.61" r="1.2" fill="#1a5"/>
<line x1="137.50" y1="112.33" x2="137.50" y2="1304.63" stroke="#111" stroke-width="0.6"/>
<circle cx="141.00" cy="112.33" r="3.50" fill="#bfbfbf" stroke="#555" stroke-width="0.4"/>
<circle cx="140.50" cy="179.27" r="3.00" fill="#3050a0" stroke="#0b1a40" stroke-width="0.4"/>
<line x1="155.40" y1="109.31" x2="155.40" y2="1275.40" stroke="#111" stroke-width="0.6"/>
<circle cx="158.90" cy="109.31" r="3.50" fill="#bfbfbf" stroke="#555" stroke-width="0.4"/>
<circle cx="158.40" cy="174.78" r="3.00" fill="#3050a0" stroke="#0b1a40" stroke-width="0.4"/>
<line x1="173.30" y1="110.17" x2="173.30" y2="1250.06" stroke="#c00" stroke-width="0.9"/>
<circle cx="176.80" cy="110.17" r="3.50" fill="#bfbfbf" stroke="#555" stroke-width="0.4"/>
<circle cx="176.30" cy="174.17" r="3.00" fill="#3050a0" stroke="#0b1a40" stroke-width="0.4"/>
<line x1="191.20" y1="116.71" x2="191.20" y2="1225.98" stroke="#111" stroke-width="0.6"/>
<circle cx="194.70" cy="116.71" r="3.50" fill="#bfbfbf" stroke="#555" stroke-width="0.4"/>
<circle cx="194.20" cy="178.98" r="3.00" fill="#3050a0" stroke="#0b1a40" stroke-width="0.4"/>
<line x1="209.10" y1="126.22" x2="209.10" y2="1200.56" stroke="#111" stroke-width="0.6"/>
<circle cx="212.60" cy="126.22" r="3.50" fill="#bfbfbf" stroke="#555" stroke-width="0.4"/>
<circle cx="212.10" cy="186.50" r="3.00" fill="#3050a0" stroke="#0b1a40" stroke-width="0.4"/>
<line x1="227.00" y1="114.30" x2="227.00" y2="1171.16" stroke="#00c" stroke-width="0.9"/>
<circle cx="230.50" cy="114.30" r="3.50" fill="#bfbfbf" stroke="#555" stroke-width="0.4"/>
<circle cx="230.00" cy="173.63" r="3.00" fill="#3050a0" stroke="#0b1a40" stroke-width="0.4"/>
<line x1="244.90" y1="108.86" x2="244.90" y2="1135.20" stroke="#111" stroke-width="0.6"/>
<circle cx="248.40" cy="108.86" r="3.50" fill="#bfbfbf" stroke="#555" stroke-width="0.4"/>
<circle cx="247.90" cy="166.46" r="3.00" fill="#3050a0" stroke="#0b1a40" stroke-width="0.4"/>
<line x1="262.80" y1="130.67" x2="262.80" y2="1091.45" stroke="#111" stroke-width="0.6"/>
<circle cx="266.30" cy="130.67" r="3.50" fill="#bfbfbf" stroke="#555" stroke-width="0.4"/>
<circle cx="265.80" cy="184.55" r="3.00" fill="#3050a0" stroke="#0b1a40" stroke-width="0.4"/>
<line x1="280.70" y1="128.75" x2="280.70" y2="1041.53" stroke="#111" stroke-width="0.6"/>
<circle cx="284.20" cy="128.75" r="3.50" fill="#bfbfbf" stroke="#555" stroke-width="0.4"/>
<circle cx="283.70" cy="179.95" r="3.00" fill="#3050a0" stroke="#0b1a40" stroke-width="0.4"/>
<line x1="298.60" y1="131.35" x2="298.60" y2="987.39" stroke="#c00" stroke-width="0.9"/>
<circle cx="302.10" cy="131.35" r="3.50" fill="#bfbfbf" stroke="#555" stroke-width="0.4"/>
<circle cx="301.60" cy="179.35" r="3.00" fill="#3050a0" stroke="#0b1a40" stroke-width="0.4"/>
<line x1="316.50" y1="131.78" x2="316.50" y2="931.00" stroke="#111" stroke-width="0.6"/>
<circle cx="320.00" cy="131.78" r="3.50" fill="#bfbfbf" stroke="#555" stroke-width="0.4"/>
<circle cx="319.50" cy="176.67" r="3.00" fill="#3050a0" stroke="#0b1a40" stroke-width="0.4"/>
<line x1="333.90" y1="129.08" x2="333.90" y2="875.89" stroke="#111" stroke-width="0.6"/>
<circle cx="337.40" cy="129.08" r="3.50" fill="#bfbfbf" stroke="#555" stroke-width="0.4"/>
<circle cx="336.90" cy="171.02" r="3.00" fill="#3050a0" stroke="#0b1a40" stroke-width="0.4"/>
<line x1="351.30" y1="136.60" x2="351.30" y2="822.26" stroke="#00c" stroke-width="0.9"/>
<circle cx="354.80" cy="136.60" r="3.50" fill="#bfbfbf" stroke="#555" stroke-width="0.4"/>
<circle cx="354.30" cy="175.09" r="3.00" fill="#3050a0" stroke="#0b1a40" stroke-width="0.4"/>
<line x1="367.70" y1="140.81" x2="367.70" y2="774.07" stroke="#111" stroke-width="0.6"/>
<circle cx="371.20" cy="140.81" r="3.50" fill="#bfbfbf" stroke="#555" stroke-width="0.4"/>
<circle cx="370.70" cy="176.36" r="3.00" fill="#3050a0" stroke="#0b1a40" stroke-width="0.4"/>
<line x1="384.10" y1="151.81" x2="384.10" y2="728.33" stroke="#111" stroke-width="0.6"/>
<circle cx="387.60" cy="151.81" r="3.50" fill="#bfbfbf" stroke="#555" stroke-width="0.4"/>
<circle cx="387.10" cy="184.16" r="3.00" fill="#3050a0" stroke="#0b1a40" stroke-width="0.4"/>
<line x1="400.50" y1="148.02" x2="400.50" y2="685.19" stroke="#111" stroke-width="0.6"/>
<circle cx="404.00" cy="148.02" r="3.50" fill="#bfbfbf" stroke="#555" stroke-width="0.4"/>
<circle cx="403.50" cy="178.20" r="3.00" fill="#3050a0" stroke="#0b1a40" stroke-width="0.4"/>
<line x1="416.90" y1="151.28" x2="416.90" y2="644.77" stroke="#c00" stroke-width="0.9"/>
<circle cx="420.40" cy="151.28" r="3.50" fill="#bfbfbf" stroke="#555" stroke-width="0.4"/>
<circle cx="419.90" cy="178.95" r="3.00" fill="#3050a0" stroke="#0b1a40" stroke-width="0.4"/>
<line x1="433.30" y1="152.99" x2="433.30" y2="607.22" stroke="#111" stroke-width="0.6"/>
<circle cx="436.80" cy="152.99" r="3.50" fill="#bfbfbf" stroke="#555" stroke-width="0.4"/>
<circle cx="436.30" cy="178.50" r="3.00" fill="#3050a0" stroke="#0b1a40" stroke-width="0.4"/>
<line x1="449.70" y1="153.37" x2="449.70" y2="572.66" stroke="#111" stroke-width="0.6"/>
<circle cx="453.20" cy="153.37" r="3.50" fill="#bfbfbf" stroke="#555" stroke-width="0.4"/>
<circle cx="452.70" cy="176.90" r="3.00" fill="#3050a0" stroke="#0b1a40" stroke-width="0.4"/>
<line x1="466.10" y1="152.45" x2="466.10" y2="541.12" stroke="#00c" stroke-width="0.9"/>
<circle cx="469.60" cy="152.45" r="3.50" fill="#bfbfbf" stroke="#555" stroke-width="0.4"/>
<circle cx="469.10" cy="174.24" r="3.00" fill="#3050a0" stroke="#0b1a40" stroke-width="0.4"/>
<line x1="481.50" y1="155.89" x2="481.50" y2="514.03" stroke="#111" stroke-width="0.6"/>
<circle cx="485.00" cy="155.89" r="3.50" fill="#bfbfbf" stroke="#555" stroke-width="0.4"/>
<circle cx="484.50" cy="175.96" r="3.00" fill="#3050a0" stroke="#0b1a40" stroke-width="0.4"/>
<line x1="496.90" y1="157.21" x2="496.90" y2="489.15" stroke="#111" stroke-width="0.6"/>
<circle cx="500.40" cy="157.21" r="3.50" fill="#bfbfbf" stroke="#555" stroke-width="0.4"/>
<circle cx="499.90" cy="175.81" r="3.00" fill="#3050a0" stroke="#0b1a40" stroke-width="0.4"/>
<line x1="512.30" y1="160.49" x2="512.30" y2="466.22" stroke="#111" stroke-width="0.6"/>
<circle cx="515.80" cy="160.49" r="3.50" fill="#bfbfbf" stroke="#555" stroke-width="0.4"/>
<circle cx="515.30" cy="177.62" r="3.00" fill="#3050a0" stroke="#0b1a40" stroke-width="0.4"/>
<line x1="527.70" y1="161.17" x2="527.70" y2="445.02" stroke="#c00" stroke-width="0.9"/>
<circle cx="531.20" cy="161.17" r="3.50" fill="#bfbfbf" stroke="#555" stroke-width="0.4"/>
<circle cx="530.70" cy="177.08" r="3.00" fill="#3050a0" stroke="#0b1a40" stroke-width="0.4"/>
<line x1="543.10" y1="163.23" x2="543.10" y2="425.29" stroke="#111" stroke-width="0.6"/>
<circle cx="546.60" cy="163.23" r="3.50" fill="#bfbfbf" stroke="#555" stroke-width="0.4"/>
<circle cx="546.10" cy="177.93" r="3.00" fill="#3050a0" stroke="#0b1a40" stroke-width="0.4"/>
<line x1="558.50" y1="166.62" x2="558.50" y2="406.80" stroke="#111" stroke-width="0.6"/>
<circle cx="562.00" cy="166.62" r="3.50" fill="#bfbfbf" stroke="#555" stroke-width="0.4"/>
<circle cx="561.50" cy="180.11" r="3.00" fill="#3050a0" stroke="#0b1a40" stroke-width="0.4"/>
<line x1="573.90" y1="162.28" x2="573.90" y2="389.39" stroke="#00c" stroke-width="0.9"/>
<circle cx="577.40" cy="162.28" r="3.50" fill="#bfbfbf" stroke="#555" stroke-width="0.4"/>
<circle cx="576.90" cy="174.99" r="3.00" fill="#3050a0" stroke="#0b1a40" stroke-width="0.4"/>
<line x1="588.30" y1="168.80" x2="588.30" y2="374.04" stroke="#111" stroke-width="0.6"/>
<circle cx="591.80" cy="168.80" r="3.50" fill="#bfbfbf" stroke="#555" stroke-width="0.4"/>
<circle cx="591.30" cy="180.31" r="3.00" fill="#3050a0" stroke="#0b1a40" stroke-width="0.4"/>
<line x1="602.70" y1="167.34" x2="602.70" y2="359.51" stroke="#111" stroke-width="0.6"/>
<circle cx="606.20" cy="167.34" r="3.50" fill="#bfbfbf" stroke="#555" stroke-width="0.4"/>
<circle cx="605.70" cy="178.15" r="3.00" fill="#3050a0" stroke="#0b1a40" stroke-width="0.4"/>
<line x1="617.10" y1="166.72" x2="617.10" y2="345.75" stroke="#111" stroke-width="0.6"/>
<circle cx="620.60" cy="166.72" r="3.50" fill="#bfbfbf" stroke="#555" stroke-width="0.4"/>
<circle cx="620.10" cy="176.75" r="3.00" fill="#3050a0" stroke="#0b1a40" stroke-width="0.4"/>
<line x1="631.50" y1="166.73" x2="631.50" y2="332.70" stroke="#c00" stroke-width="0.9"/>
<circle cx="635.00" cy="166.73" r="3.50" fill="#bfbfbf" stroke="#555" stroke-width="0.4"/>
<circle cx="634.50" cy="176.07" r="3.00" fill="#3050a0" stroke="#0b1a40" stroke-width="0.4"/>
<line x1="645.90" y1="167.48" x2="645.90" y2="320.30" stroke="#111" stroke-width="0.6"/>
<circle cx="649.40" cy="167.48" r="3.50" fill="#bfbfbf" stroke="#555" stroke-width="0.4"/>
<circle cx="648.90" cy="176.04" r="3.00" fill="#3050a0" stroke="#0b1a40" stroke-width="0.4"/>
<line x1="660.30" y1="168.73" x2="660.30" y2="308.50" stroke="#111" stroke-width="0.6"/>
<circle cx="663.80" cy="168.73" r="3.50" fill="#bfbfbf" stroke="#555" stroke-width="0.4"/>
<circle cx="663.30" cy="176.60" r="3.00" fill="#3050a0" stroke="#0b1a40" stroke-width="0.4"/>
<line x1="674.70" y1="170.64" x2="674.70" y2="297.25" stroke="#00c" stroke-width="0.9"/>
<circle cx="678.20" cy="170.64" r="3.50" fill="#bfbfbf" stroke="#555" stroke-width="0.4"/>
<circle cx="677.70" cy="177.73" r="3.00" fill="#3050a0" stroke="#0b1a40" stroke-width="0.4"/>
<line x1="689.10" y1="173.01" x2="689.10" y2="286.57" stroke="#111" stroke-width="0.6"/>
<circle cx="692.60" cy="173.01" r="3.50" fill="#bfbfbf" stroke="#555" stroke-width="0.4"/>
<circle cx="692.10" cy="179.41" r="3.00" fill="#3050a0" stroke="#0b1a40" stroke-width="0.4"/>
<line x1="703.50" y1="171.62" x2="703.50" y2="276.44" stroke="#111" stroke-width="0.6"/>
<circle cx="707.00" cy="171.62" r="3.50" fill="#bfbfbf" stroke="#555" stroke-width="0.4"/>
<circle cx="706.50" cy="177.50" r="3.00" fill="#3050a0" stroke="#0b1a40" stroke-width="0.4"/>
<line x1="716.80" y1="171.49" x2="716.80" y2="267.58" stroke="#111" stroke-width="0.6"/>
<circle cx="720.30" cy="171.49" r="3.50" fill="#bfbfbf" stroke="#555" stroke-width="0.4"/>
<circle cx="719.80" cy="176.85" r="3.00" fill="#3050a0" stroke="#0b1a40" stroke-width="0.4"/>
<line x1="730.10" y1="171.83" x2="730.10" y2="259.18" stroke="#c00" stroke-width="0.9"/>
<circle cx="733.60" cy="171.83" r="3.50" fill="#bfbfbf" stroke="#555" stroke-width="0.4"/>
<circle cx="733.10" cy="176.76" r="3.00" fill="#3050a0" stroke="#0b1a40" stroke-width="0.4"/>
<line x1="743.40" y1="172.64" x2="743.40" y2="251.26" stroke="#111" stroke-width="0.6"/>
<circle cx="746.90" cy="172.64" r="3.50" fill="#bfbfbf" stroke="#555" stroke-width="0.4"/>
<circle cx="746.40" cy="177.05" r="3.00" fill="#3050a0" stroke="#0b1a40" stroke-width="0.4"/>
<line x1="756.70" y1="173.92" x2="756.70" y2="243.80" stroke="#111" stroke-width="0.6"/>
<circle cx="760.20" cy="173.92" r="3.50" fill="#bfbfbf" stroke="#555" stroke-width="0.4"/>
<circle cx="759.70" cy="177.81" r="3.00" fill="#3050a0" stroke="#0b1a40" stroke-width="0.4"/>
<path d="M 120.00,230.00 A 8278.32 8278.32 0 0 0 120.00,1397.29 L 75.00,1397.29 A 8278.32 8278.32 0 0 1 75.00,230.00 Z" fill="#b08a55" fill-opacity="0.42" stroke="#3a2a10" stroke-width="0.8"/>
<path d="M 75.00,230.00 C 87.69,50.45 50.62,62.39 351.30,105.48 C 390.77,111.14 556.80,153.44 756.70,159.90 C 791.68,161.03 833.10,164.22 833.10,230.00 L 782.10,230.00 C 782.10,199.31 684.10,204.60 384.10,204.60 C 184.10,204.60 122.31,197.37 120.00,230.00 L 75.00,230.00 Z" fill="#c49a6c" fill-opacity="0.35" stroke="#3a2a10" stroke-width="0.8"/>
<text x="454.05" y="163.46" text-anchor="middle" font-size="11" fill="#3a2a10">NECK (arched top)</text>
<line x1="75.00" y1="230.00" x2="87.69" y2="50.45" stroke="#26c" stroke-width="0.8" stroke-dasharray="3,2"/>
<line x1="351.30" y1="105.48" x2="50.62" y2="62.39" stroke="#26c" stroke-width="0.8" stroke-dasharray="3,2"/>
<line x1="351.30" y1="105.48" x2="390.77" y2="111.14" stroke="#26c" stroke-width="0.8" stroke-dasharray="3,2"/>
<line x1="833.10" y1="230.00" x2="833.10" y2="164.22" stroke="#26c" stroke-width="0.8" stroke-dasharray="3,2"/>
<line x1="120.00" y1="230.00" x2="122.31" y2="197.37" stroke="#26c" stroke-width="0.8" stroke-dasharray="3,2"/>
<line x1="782.10" y1="230.00" x2="782.10" y2="199.31" stroke="#26c" stroke-width="0.8" stroke-dasharray="3,2"/>
<line x1="384.10" y1="204.60" x2="184.10" y2="204.60" stroke="#26c" stroke-width="0.8" stroke-dasharray="3,2"/>
<line x1="384.10" y1="204.60" x2="684.10" y2="204.60" stroke="#26c" stroke-width="0.8" stroke-dasharray="3,2"/>
<circle cx="75.00" cy="230.00" r="2.0" fill="#d13"/>
<text x="80.00" y="233.00" font-size="7" fill="#600" text-anchor="start">P0 (-62, 53)</text>
<circle cx="87.69" cy="50.45" r="1.5" fill="#26c"/>
<text x="82.69" y="53.45" font-size="7" fill="#024" text-anchor="end">P1 (-50, -127)</text>
<circle cx="50.62" cy="62.39" r="1.5" fill="#26c"/>
<text x="45.62" y="65.39" font-size="7" fill="#024" text-anchor="end">P2 (-87, -115)</text>
<circle cx="351.30" cy="105.48" r="2.0" fill="#d13"/>
<text x="351.30" y="99.48" font-size="7" fill="#600" text-anchor="middle">M (214, -72)</text>
<circle cx="390.77" cy="111.14" r="1.5" fill="#26c"/>
<text x="385.77" y="105.14" font-size="7" fill="#024" text-anchor="end">P3 (253, -66)</text>
<circle cx="833.10" cy="164.22" r="1.5" fill="#26c"/>
<text x="828.10" y="167.22" font-size="7" fill="#024" text-anchor="end">P4 (696, -13)</text>
<circle cx="833.10" cy="230.00" r="2.0" fill="#d13"/>
<text x="828.10" y="233.00" font-size="7" fill="#600" text-anchor="end">P5 (696, 53)</text>
<circle cx="782.10" cy="230.00" r="2.0" fill="#d13"/>
<text x="777.10" y="239.00" font-size="7" fill="#600" text-anchor="end">UB3 (645, 53)</text>
<circle cx="782.10" cy="199.31" r="1.5" fill="#26c"/>
<text x="777.10" y="208.31" font-size="7" fill="#024" text-anchor="end">UB2 (645, 22)</text>
<circle cx="684.10" cy="204.60" r="1.5" fill="#26c"/>
<text x="679.10" y="213.60" font-size="7" fill="#024" text-anchor="end">UBM_R (547, 27)</text>
<circle cx="384.10" cy="204.60" r="2.0" fill="#d13"/>
<text x="379.10" y="213.60" font-size="7" fill="#600" text-anchor="end">UBM (247, 27)</text>
<circle cx="184.10" cy="204.60" r="1.5" fill="#26c"/>
<text x="179.10" y="213.60" font-size="7" fill="#024" text-anchor="end">UBM_L (47, 27)</text>
<circle cx="122.31" cy="197.37" r="1.5" fill="#26c"/>
<text x="117.31" y="206.37" font-size="7" fill="#024" text-anchor="end">UB1 (-15, 20)</text>
<circle cx="120.00" cy="230.00" r="2.0" fill="#d13"/>
<text x="125.00" y="239.00" font-size="7" fill="#600" text-anchor="start">UB0 (-18, 53)</text>
<text x="10" y="56" font-size="10" fill="#d13">h_L = 180 mm · h_M_L/R = 304/40 mm · h_R = 66 mm · M above string 20 at y = -72 mm</text>
<text x="54.40" y="813.65" text-anchor="middle" font-size="11" fill="#3a2a10" transform="rotate(-90 54.40 813.65)">COLUMN (45 mm, 1.5″ bow, uniform width)</text>
<path d="M 756.70,243.80 C 765.17,239.20 782.10,239.64 782.10,230.00" fill="none" stroke="#7a2a2a" stroke-width="0.8" stroke-dasharray="4,3"/>
<line x1="137.50" y1="230.00" x2="802.10" y2="230.00" stroke="#0a7" stroke-width="0.5" stroke-dasharray="2,3"/>
<circle cx="782.10" cy="230.00" r="3" fill="#7a2a2a"/>
</svg>
