<svg xmlns="http://www.w3.org/2000/svg" viewBox="0 0 862.70 1446.10" width="690" height="1157">
<path d="M 75.00,1416.10 C 75.00,1328.89 210.61,1294.14 310.57,955.23 C 388.03,692.58 445.68,549.73 546.13,422.30 C 644.10,298.02 781.70,231.00 781.70,230.00" fill="none" stroke="#7a2a2a" stroke-width="0.8" stroke-dasharray="4,3"/>
<path d="M 290.03,1416.10 C 290.03,763.75 832.70,882.36 832.70,230.00" fill="none" stroke="#1a5" stroke-width="1.2"/>
<circle cx="832.70" cy="230.00" r="3" fill="#1a5"/>
<path d="M 290.03,1416.10 C 225.85,1416.10 139.18,1416.10 75.00,1416.10" fill="none" stroke="#1a5" stroke-width="1.2"/>
<circle cx="290.03" cy="1416.10" r="3" fill="#1a5"/>
<circle cx="303.37" cy="1398.33" r="1.2" fill="#1a5"/>
<circle cx="306.75" cy="1388.60" r="1.2" fill="#1a5"/>
<circle cx="310.88" cy="1378.49" r="1.2" fill="#1a5"/>
<circle cx="316.34" cy="1367.15" r="1.2" fill="#1a5"/>
<circle cx="323.72" cy="1353.70" r="1.2" fill="#1a5"/>
<circle cx="333.24" cy="1337.56" r="1.2" fill="#1a5"/>
<circle cx="344.47" cy="1318.69" r="1.2" fill="#1a5"/>
<circle cx="356.51" cy="1297.58" r="1.2" fill="#1a5"/>
<circle cx="368.38" cy="1275.00" r="1.2" fill="#1a5"/>
<circle cx="379.41" cy="1251.74" r="1.2" fill="#1a5"/>
<circle cx="389.25" cy="1228.38" r="1.2" fill="#1a5"/>
<circle cx="397.81" cy="1205.44" r="1.2" fill="#1a5"/>
<circle cx="405.00" cy="1183.69" r="1.2" fill="#1a5"/>
<circle cx="411.23" cy="1162.85" r="1.2" fill="#1a5"/>
<circle cx="416.80" cy="1142.64" r="1.2" fill="#1a5"/>
<circle cx="421.87" cy="1122.89" r="1.2" fill="#1a5"/>
<circle cx="426.58" cy="1103.50" r="1.2" fill="#1a5"/>
<circle cx="430.99" cy="1084.38" r="1.2" fill="#1a5"/>
<circle cx="435.17" cy="1065.50" r="1.2" fill="#1a5"/>
<circle cx="439.18" cy="1046.82" r="1.2" fill="#1a5"/>
<circle cx="443.04" cy="1028.30" r="1.2" fill="#1a5"/>
<circle cx="446.79" cy="1009.93" r="1.2" fill="#1a5"/>
<circle cx="450.44" cy="991.70" r="1.2" fill="#1a5"/>
<circle cx="454.04" cy="973.60" r="1.2" fill="#1a5"/>
<circle cx="457.58" cy="955.62" r="1.2" fill="#1a5"/>
<circle cx="461.10" cy="937.78" r="1.2" fill="#1a5"/>
<circle cx="464.60" cy="920.06" r="1.2" fill="#1a5"/>
<circle cx="468.10" cy="902.48" r="1.2" fill="#1a5"/>
<circle cx="471.62" cy="885.05" r="1.2" fill="#1a5"/>
<circle cx="475.20" cy="867.71" r="1.2" fill="#1a5"/>
<circle cx="478.85" cy="850.41" r="1.2" fill="#1a5"/>
<circle cx="482.58" cy="833.17" r="1.2" fill="#1a5"/>
<circle cx="486.40" cy="815.98" r="1.2" fill="#1a5"/>
<circle cx="490.30" cy="798.86" r="1.2" fill="#1a5"/>
<circle cx="494.30" cy="781.80" r="1.2" fill="#1a5"/>
<circle cx="498.39" cy="764.83" r="1.2" fill="#1a5"/>
<circle cx="502.60" cy="747.93" r="1.2" fill="#1a5"/>
<circle cx="506.92" cy="731.13" r="1.2" fill="#1a5"/>
<circle cx="511.36" cy="714.44" r="1.2" fill="#1a5"/>
<circle cx="515.93" cy="697.87" r="1.2" fill="#1a5"/>
<circle cx="520.64" cy="681.43" r="1.2" fill="#1a5"/>
<circle cx="525.50" cy="665.15" r="1.2" fill="#1a5"/>
<circle cx="530.53" cy="649.06" r="1.2" fill="#1a5"/>
<circle cx="535.72" cy="633.18" r="1.2" fill="#1a5"/>
<circle cx="541.10" cy="617.54" r="1.2" fill="#1a5"/>
<circle cx="546.72" cy="602.09" r="1.2" fill="#1a5"/>
<circle cx="552.61" cy="586.82" r="1.2" fill="#1a5"/>
<circle cx="558.78" cy="571.74" r="1.2" fill="#1a5"/>
<circle cx="565.24" cy="556.86" r="1.2" fill="#1a5"/>
<circle cx="572.01" cy="542.16" r="1.2" fill="#1a5"/>
<circle cx="579.12" cy="527.65" r="1.2" fill="#1a5"/>
<circle cx="586.59" cy="513.32" r="1.2" fill="#1a5"/>
<circle cx="594.43" cy="499.15" r="1.2" fill="#1a5"/>
<circle cx="602.67" cy="485.11" r="1.2" fill="#1a5"/>
<circle cx="611.33" cy="471.18" r="1.2" fill="#1a5"/>
<circle cx="620.37" cy="457.36" r="1.2" fill="#1a5"/>
<circle cx="629.73" cy="443.76" r="1.2" fill="#1a5"/>
<circle cx="639.41" cy="430.39" r="1.2" fill="#1a5"/>
<circle cx="649.43" cy="417.23" r="1.2" fill="#1a5"/>
<circle cx="659.79" cy="404.30" r="1.2" fill="#1a5"/>
<circle cx="670.51" cy="391.59" r="1.2" fill="#1a5"/>
<circle cx="681.59" cy="379.10" r="1.2" fill="#1a5"/>
<circle cx="693.03" cy="366.81" r="1.2" fill="#1a5"/>
<circle cx="704.80" cy="354.76" r="1.2" fill="#1a5"/>
<circle cx="716.83" cy="343.01" r="1.2" fill="#1a5"/>
<circle cx="729.13" cy="331.59" r="1.2" fill="#1a5"/>
<circle cx="741.71" cy="320.51" r="1.2" fill="#1a5"/>
<circle cx="754.57" cy="309.80" r="1.2" fill="#1a5"/>
<circle cx="767.71" cy="299.48" r="1.2" fill="#1a5"/>
<circle cx="781.05" cy="289.65" r="1.2" fill="#1a5"/>
<line x1="137.50" y1="110.50" x2="137.50" y2="1302.81" stroke="#111" stroke-width="0.6"/>
<circle cx="141.00" cy="110.50" r="3.50" fill="#bfbfbf" stroke="#555" stroke-width="0.4"/>
<circle cx="140.50" cy="177.44" r="3.00" fill="#3050a0" stroke="#0b1a40" stroke-width="0.4"/>
<line x1="155.40" y1="112.74" x2="155.40" y2="1278.84" stroke="#111" stroke-width="0.6"/>
<circle cx="158.90" cy="112.74" r="3.50" fill="#bfbfbf" stroke="#555" stroke-width="0.4"/>
<circle cx="158.40" cy="178.21" r="3.00" fill="#3050a0" stroke="#0b1a40" stroke-width="0.4"/>
<line x1="173.30" y1="114.57" x2="173.30" y2="1254.46" stroke="#c00" stroke-width="0.9"/>
<circle cx="176.80" cy="114.57" r="3.50" fill="#bfbfbf" stroke="#555" stroke-width="0.4"/>
<circle cx="176.30" cy="178.57" r="3.00" fill="#3050a0" stroke="#0b1a40" stroke-width="0.4"/>
<line x1="191.20" y1="119.38" x2="191.20" y2="1228.65" stroke="#111" stroke-width="0.6"/>
<circle cx="194.70" cy="119.38" r="3.50" fill="#bfbfbf" stroke="#555" stroke-width="0.4"/>
<circle cx="194.20" cy="181.65" r="3.00" fill="#3050a0" stroke="#0b1a40" stroke-width="0.4"/>
<line x1="209.10" y1="126.06" x2="209.10" y2="1200.40" stroke="#111" stroke-width="0.6"/>
<circle cx="212.60" cy="126.06" r="3.50" fill="#bfbfbf" stroke="#555" stroke-width="0.4"/>
<circle cx="212.10" cy="186.34" r="3.00" fill="#3050a0" stroke="#0b1a40" stroke-width="0.4"/>
<line x1="227.00" y1="111.81" x2="227.00" y2="1168.68" stroke="#00c" stroke-width="0.9"/>
<circle cx="230.50" cy="111.81" r="3.50" fill="#bfbfbf" stroke="#555" stroke-width="0.4"/>
<circle cx="230.00" cy="171.14" r="3.00" fill="#3050a0" stroke="#0b1a40" stroke-width="0.4"/>
<line x1="244.90" y1="106.14" x2="244.90" y2="1132.48" stroke="#111" stroke-width="0.6"/>
<circle cx="248.40" cy="106.14" r="3.50" fill="#bfbfbf" stroke="#555" stroke-width="0.4"/>
<circle cx="247.90" cy="163.74" r="3.00" fill="#3050a0" stroke="#0b1a40" stroke-width="0.4"/>
<line x1="262.80" y1="130.00" x2="262.80" y2="1090.78" stroke="#111" stroke-width="0.6"/>
<circle cx="266.30" cy="130.00" r="3.50" fill="#bfbfbf" stroke="#555" stroke-width="0.4"/>
<circle cx="265.80" cy="183.88" r="3.00" fill="#3050a0" stroke="#0b1a40" stroke-width="0.4"/>
<line x1="280.70" y1="130.34" x2="280.70" y2="1043.12" stroke="#111" stroke-width="0.6"/>
<circle cx="284.20" cy="130.34" r="3.50" fill="#bfbfbf" stroke="#555" stroke-width="0.4"/>
<circle cx="283.70" cy="181.54" r="3.00" fill="#3050a0" stroke="#0b1a40" stroke-width="0.4"/>
<line x1="298.60" y1="134.75" x2="298.60" y2="990.79" stroke="#c00" stroke-width="0.9"/>
<circle cx="302.10" cy="134.75" r="3.50" fill="#bfbfbf" stroke="#555" stroke-width="0.4"/>
<circle cx="301.60" cy="182.75" r="3.00" fill="#3050a0" stroke="#0b1a40" stroke-width="0.4"/>
<line x1="316.50" y1="136.21" x2="316.50" y2="935.43" stroke="#111" stroke-width="0.6"/>
<circle cx="320.00" cy="136.21" r="3.50" fill="#bfbfbf" stroke="#555" stroke-width="0.4"/>
<circle cx="319.50" cy="181.09" r="3.00" fill="#3050a0" stroke="#0b1a40" stroke-width="0.4"/>
<line x1="333.90" y1="133.43" x2="333.90" y2="880.25" stroke="#111" stroke-width="0.6"/>
<circle cx="337.40" cy="133.43" r="3.50" fill="#bfbfbf" stroke="#555" stroke-width="0.4"/>
<circle cx="336.90" cy="175.38" r="3.00" fill="#3050a0" stroke="#0b1a40" stroke-width="0.4"/>
<line x1="351.30" y1="139.57" x2="351.30" y2="825.23" stroke="#00c" stroke-width="0.9"/>
<circle cx="354.80" cy="139.57" r="3.50" fill="#bfbfbf" stroke="#555" stroke-width="0.4"/>
<circle cx="354.30" cy="178.05" r="3.00" fill="#3050a0" stroke="#0b1a40" stroke-width="0.4"/>
<line x1="367.70" y1="141.62" x2="367.70" y2="774.88" stroke="#111" stroke-width="0.6"/>
<circle cx="371.20" cy="141.62" r="3.50" fill="#bfbfbf" stroke="#555" stroke-width="0.4"/>
<circle cx="370.70" cy="177.17" r="3.00" fill="#3050a0" stroke="#0b1a40" stroke-width="0.4"/>
<line x1="384.10" y1="150.74" x2="384.10" y2="727.26" stroke="#111" stroke-width="0.6"/>
<circle cx="387.60" cy="150.74" r="3.50" fill="#bfbfbf" stroke="#555" stroke-width="0.4"/>
<circle cx="387.10" cy="183.09" r="3.00" fill="#3050a0" stroke="#0b1a40" stroke-width="0.4"/>
<line x1="400.50" y1="146.25" x2="400.50" y2="683.42" stroke="#111" stroke-width="0.6"/>
<circle cx="404.00" cy="146.25" r="3.50" fill="#bfbfbf" stroke="#555" stroke-width="0.4"/>
<circle cx="403.50" cy="176.43" r="3.00" fill="#3050a0" stroke="#0b1a40" stroke-width="0.4"/>
<line x1="416.90" y1="149.85" x2="416.90" y2="643.34" stroke="#c00" stroke-width="0.9"/>
<circle cx="420.40" cy="149.85" r="3.50" fill="#bfbfbf" stroke="#555" stroke-width="0.4"/>
<circle cx="419.90" cy="177.53" r="3.00" fill="#3050a0" stroke="#0b1a40" stroke-width="0.4"/>
<line x1="433.30" y1="152.50" x2="433.30" y2="606.72" stroke="#111" stroke-width="0.6"/>
<circle cx="436.80" cy="152.50" r="3.50" fill="#bfbfbf" stroke="#555" stroke-width="0.4"/>
<circle cx="436.30" cy="178.01" r="3.00" fill="#3050a0" stroke="#0b1a40" stroke-width="0.4"/>
<line x1="449.70" y1="153.95" x2="449.70" y2="573.23" stroke="#111" stroke-width="0.6"/>
<circle cx="453.20" cy="153.95" r="3.50" fill="#bfbfbf" stroke="#555" stroke-width="0.4"/>
<circle cx="452.70" cy="177.47" r="3.00" fill="#3050a0" stroke="#0b1a40" stroke-width="0.4"/>
<line x1="466.10" y1="153.88" x2="466.10" y2="542.55" stroke="#00c" stroke-width="0.9"/>
<circle cx="469.60" cy="153.88" r="3.50" fill="#bfbfbf" stroke="#555" stroke-width="0.4"/>
<circle cx="469.10" cy="175.67" r="3.00" fill="#3050a0" stroke="#0b1a40" stroke-width="0.4"/>
<line x1="481.50" y1="157.87" x2="481.50" y2="516.01" stroke="#111" stroke-width="0.6"/>
<circle cx="485.00" cy="157.87" r="3.50" fill="#bfbfbf" stroke="#555" stroke-width="0.4"/>
<circle cx="484.50" cy="177.94" r="3.00" fill="#3050a0" stroke="#0b1a40" stroke-width="0.4"/>
<line x1="496.90" y1="159.47" x2="496.90" y2="491.40" stroke="#111" stroke-width="0.6"/>
<circle cx="500.40" cy="159.47" r="3.50" fill="#bfbfbf" stroke="#555" stroke-width="0.4"/>
<circle cx="499.90" cy="178.06" r="3.00" fill="#3050a0" stroke="#0b1a40" stroke-width="0.4"/>
<line x1="512.30" y1="162.73" x2="512.30" y2="468.46" stroke="#111" stroke-width="0.6"/>
<circle cx="515.80" cy="162.73" r="3.50" fill="#bfbfbf" stroke="#555" stroke-width="0.4"/>
<circle cx="515.30" cy="179.85" r="3.00" fill="#3050a0" stroke="#0b1a40" stroke-width="0.4"/>
<line x1="527.70" y1="163.12" x2="527.70" y2="446.96" stroke="#c00" stroke-width="0.9"/>
<circle cx="531.20" cy="163.12" r="3.50" fill="#bfbfbf" stroke="#555" stroke-width="0.4"/>
<circle cx="530.70" cy="179.03" r="3.00" fill="#3050a0" stroke="#0b1a40" stroke-width="0.4"/>
<line x1="543.10" y1="164.77" x2="543.10" y2="426.83" stroke="#111" stroke-width="0.6"/>
<circle cx="546.60" cy="164.77" r="3.50" fill="#bfbfbf" stroke="#555" stroke-width="0.4"/>
<circle cx="546.10" cy="179.47" r="3.00" fill="#3050a0" stroke="#0b1a40" stroke-width="0.4"/>
<line x1="558.50" y1="167.79" x2="558.50" y2="407.96" stroke="#111" stroke-width="0.6"/>
<circle cx="562.00" cy="167.79" r="3.50" fill="#bfbfbf" stroke="#555" stroke-width="0.4"/>
<circle cx="561.50" cy="181.28" r="3.00" fill="#3050a0" stroke="#0b1a40" stroke-width="0.4"/>
<line x1="573.90" y1="163.17" x2="573.90" y2="390.28" stroke="#00c" stroke-width="0.9"/>
<circle cx="577.40" cy="163.17" r="3.50" fill="#bfbfbf" stroke="#555" stroke-width="0.4"/>
<circle cx="576.90" cy="175.88" r="3.00" fill="#3050a0" stroke="#0b1a40" stroke-width="0.4"/>
<line x1="588.30" y1="169.53" x2="588.30" y2="374.76" stroke="#111" stroke-width="0.6"/>
<circle cx="591.80" cy="169.53" r="3.50" fill="#bfbfbf" stroke="#555" stroke-width="0.4"/>
<circle cx="591.30" cy="181.03" r="3.00" fill="#3050a0" stroke="#0b1a40" stroke-width="0.4"/>
<line x1="602.70" y1="167.96" x2="602.70" y2="360.13" stroke="#111" stroke-width="0.6"/>
<circle cx="606.20" cy="167.96" r="3.50" fill="#bfbfbf" stroke="#555" stroke-width="0.4"/>
<circle cx="605.70" cy="178.77" r="3.00" fill="#3050a0" stroke="#0b1a40" stroke-width="0.4"/>
<line x1="617.10" y1="167.32" x2="617.10" y2="346.34" stroke="#111" stroke-width="0.6"/>
<circle cx="620.60" cy="167.32" r="3.50" fill="#bfbfbf" stroke="#555" stroke-width="0.4"/>
<circle cx="620.10" cy="177.35" r="3.00" fill="#3050a0" stroke="#0b1a40" stroke-width="0.4"/>
<line x1="631.50" y1="167.35" x2="631.50" y2="333.32" stroke="#c00" stroke-width="0.9"/>
<circle cx="635.00" cy="167.35" r="3.50" fill="#bfbfbf" stroke="#555" stroke-width="0.4"/>
<circle cx="634.50" cy="176.69" r="3.00" fill="#3050a0" stroke="#0b1a40" stroke-width="0.4"/>
<line x1="645.90" y1="168.17" x2="645.90" y2="321.00" stroke="#111" stroke-width="0.6"/>
<circle cx="649.40" cy="168.17" r="3.50" fill="#bfbfbf" stroke="#555" stroke-width="0.4"/>
<circle cx="648.90" cy="176.74" r="3.00" fill="#3050a0" stroke="#0b1a40" stroke-width="0.4"/>
<line x1="660.30" y1="169.56" x2="660.30" y2="309.33" stroke="#111" stroke-width="0.6"/>
<circle cx="663.80" cy="169.56" r="3.50" fill="#bfbfbf" stroke="#555" stroke-width="0.4"/>
<circle cx="663.30" cy="177.43" r="3.00" fill="#3050a0" stroke="#0b1a40" stroke-width="0.4"/>
<line x1="674.70" y1="171.64" x2="674.70" y2="298.26" stroke="#00c" stroke-width="0.9"/>
<circle cx="678.20" cy="171.64" r="3.50" fill="#bfbfbf" stroke="#555" stroke-width="0.4"/>
<circle cx="677.70" cy="178.73" r="3.00" fill="#3050a0" stroke="#0b1a40" stroke-width="0.4"/>
<line x1="689.10" y1="174.19" x2="689.10" y2="287.75" stroke="#111" stroke-width="0.6"/>
<circle cx="692.60" cy="174.19" r="3.50" fill="#bfbfbf" stroke="#555" stroke-width="0.4"/>
<circle cx="692.10" cy="180.59" r="3.00" fill="#3050a0" stroke="#0b1a40" stroke-width="0.4"/>
<line x1="703.50" y1="172.93" x2="703.50" y2="277.75" stroke="#111" stroke-width="0.6"/>
<circle cx="707.00" cy="172.93" r="3.50" fill="#bfbfbf" stroke="#555" stroke-width="0.4"/>
<circle cx="706.50" cy="178.81" r="3.00" fill="#3050a0" stroke="#0b1a40" stroke-width="0.4"/>
<line x1="716.80" y1="172.85" x2="716.80" y2="268.94" stroke="#111" stroke-width="0.6"/>
<circle cx="720.30" cy="172.85" r="3.50" fill="#bfbfbf" stroke="#555" stroke-width="0.4"/>
<circle cx="719.80" cy="178.21" r="3.00" fill="#3050a0" stroke="#0b1a40" stroke-width="0.4"/>
<line x1="730.10" y1="173.13" x2="730.10" y2="260.48" stroke="#c00" stroke-width="0.9"/>
<circle cx="733.60" cy="173.13" r="3.50" fill="#bfbfbf" stroke="#555" stroke-width="0.4"/>
<circle cx="733.10" cy="178.06" r="3.00" fill="#3050a0" stroke="#0b1a40" stroke-width="0.4"/>
<line x1="743.40" y1="173.73" x2="743.40" y2="252.34" stroke="#111" stroke-width="0.6"/>
<circle cx="746.90" cy="173.73" r="3.50" fill="#bfbfbf" stroke="#555" stroke-width="0.4"/>
<circle cx="746.40" cy="178.14" r="3.00" fill="#3050a0" stroke="#0b1a40" stroke-width="0.4"/>
<line x1="756.70" y1="174.62" x2="756.70" y2="244.50" stroke="#111" stroke-width="0.6"/>
<circle cx="760.20" cy="174.62" r="3.50" fill="#bfbfbf" stroke="#555" stroke-width="0.4"/>
<circle cx="759.70" cy="178.51" r="3.00" fill="#3050a0" stroke="#0b1a40" stroke-width="0.4"/>
<path d="M 120.00,230.00 A 7826.99 7826.99 0 0 0 120.00,1416.10 L 75.00,1416.10 A 7826.99 7826.99 0 0 1 75.00,230.00 Z" fill="#b08a55" fill-opacity="0.42" stroke="#3a2a10" stroke-width="0.8"/>
<path d="M 75.00,230.00 C 86.70,76.06 86.70,76.06 351.30,106.41 C 832.70,161.63 832.70,161.63 832.70,230.00 C 832.70,230.00 781.70,230.00 781.70,230.00 C 781.70,199.31 684.10,205.00 384.10,205.00 C 184.10,205.00 122.48,197.38 120.00,230.00 C 120.00,230.00 75.00,230.00 75.00,230.00 Z" fill="#c49a6c" fill-opacity="0.35" stroke="#3a2a10" stroke-width="0.8"/>
<text x="453.85" y="163.98" text-anchor="middle" font-size="11" fill="#3a2a10">NECK (arched top)</text>
<line x1="75.00" y1="230.00" x2="86.70" y2="76.06" stroke="#26c" stroke-width="0.8" stroke-dasharray="3,2"/>
<line x1="351.30" y1="106.41" x2="86.70" y2="76.06" stroke="#26c" stroke-width="0.8" stroke-dasharray="3,2"/>
<line x1="351.30" y1="106.41" x2="832.70" y2="161.63" stroke="#26c" stroke-width="0.8" stroke-dasharray="3,2"/>
<line x1="832.70" y1="230.00" x2="832.70" y2="161.63" stroke="#26c" stroke-width="0.8" stroke-dasharray="3,2"/>
<line x1="120.00" y1="230.00" x2="122.48" y2="197.38" stroke="#26c" stroke-width="0.8" stroke-dasharray="3,2"/>
<line x1="781.70" y1="230.00" x2="781.70" y2="199.31" stroke="#26c" stroke-width="0.8" stroke-dasharray="3,2"/>
<line x1="384.10" y1="205.00" x2="184.10" y2="205.00" stroke="#26c" stroke-width="0.8" stroke-dasharray="3,2"/>
<line x1="384.10" y1="205.00" x2="684.10" y2="205.00" stroke="#26c" stroke-width="0.8" stroke-dasharray="3,2"/>
<circle cx="75.00" cy="230.00" r="2.0" fill="#d13"/>
<text x="80.00" y="233.00" font-size="7" fill="#600" text-anchor="start">P0</text>
<circle cx="86.70" cy="76.06" r="1.5" fill="#26c"/>
<text x="81.70" y="79.06" font-size="7" fill="#024" text-anchor="end">P1</text>
<circle cx="86.70" cy="76.06" r="1.5" fill="#26c"/>
<text x="81.70" y="79.06" font-size="7" fill="#024" text-anchor="end">P2</text>
<circle cx="351.30" cy="106.41" r="2.0" fill="#d13"/>
<text x="351.30" y="100.41" font-size="7" fill="#600" text-anchor="middle">M</text>
<circle cx="832.70" cy="161.63" r="1.5" fill="#26c"/>
<text x="827.70" y="155.63" font-size="7" fill="#024" text-anchor="end">P3</text>
<circle cx="832.70" cy="161.63" r="1.5" fill="#26c"/>
<text x="827.70" y="164.63" font-size="7" fill="#024" text-anchor="end">P4</text>
<circle cx="832.70" cy="230.00" r="2.0" fill="#d13"/>
<text x="827.70" y="233.00" font-size="7" fill="#600" text-anchor="end">P5</text>
<circle cx="781.70" cy="230.00" r="2.0" fill="#d13"/>
<text x="776.70" y="239.00" font-size="7" fill="#600" text-anchor="end">UB3</text>
<circle cx="781.70" cy="199.31" r="1.5" fill="#26c"/>
<text x="776.70" y="208.31" font-size="7" fill="#024" text-anchor="end">UB2</text>
<circle cx="684.10" cy="205.00" r="1.5" fill="#26c"/>
<text x="679.10" y="214.00" font-size="7" fill="#024" text-anchor="end">UBM_R</text>
<circle cx="384.10" cy="205.00" r="2.0" fill="#d13"/>
<text x="379.10" y="214.00" font-size="7" fill="#600" text-anchor="end">UBM</text>
<circle cx="184.10" cy="205.00" r="1.5" fill="#26c"/>
<text x="179.10" y="214.00" font-size="7" fill="#024" text-anchor="end">UBM_L</text>
<circle cx="122.48" cy="197.38" r="1.5" fill="#26c"/>
<text x="117.48" y="206.38" font-size="7" fill="#024" text-anchor="end">UB1</text>
<circle cx="120.00" cy="230.00" r="2.0" fill="#d13"/>
<text x="125.00" y="239.00" font-size="7" fill="#600" text-anchor="start">UB0</text>
<line x1="75.00" y1="1416.10" x2="75.00" y2="1328.89" stroke="#c33" stroke-width="0.7" stroke-dasharray="3,2"/>
<line x1="310.57" y1="955.23" x2="210.61" y2="1294.14" stroke="#c33" stroke-width="0.7" stroke-dasharray="3,2"/>
<line x1="310.57" y1="955.23" x2="388.03" y2="692.58" stroke="#c33" stroke-width="0.7" stroke-dasharray="3,2"/>
<line x1="546.13" y1="422.30" x2="445.68" y2="549.73" stroke="#c33" stroke-width="0.7" stroke-dasharray="3,2"/>
<line x1="546.13" y1="422.30" x2="644.10" y2="298.02" stroke="#c33" stroke-width="0.7" stroke-dasharray="3,2"/>
<line x1="781.70" y1="230.00" x2="781.70" y2="231.00" stroke="#c33" stroke-width="0.7" stroke-dasharray="3,2"/>
<line x1="290.03" y1="1416.10" x2="290.03" y2="763.75" stroke="#1a5" stroke-width="0.7" stroke-dasharray="3,2"/>
<line x1="832.70" y1="230.00" x2="832.70" y2="882.36" stroke="#1a5" stroke-width="0.7" stroke-dasharray="3,2"/>
<circle cx="75.00" cy="1416.10" r="2.0" fill="#a11"/>
<text x="79.00" y="1413.10" font-size="7" fill="#600">SBa</text>
<circle cx="75.00" cy="1328.89" r="1.4" fill="#e66"/>
<text x="79.00" y="1325.89" font-size="7" fill="#600">SBa1</text>
<circle cx="210.61" cy="1294.14" r="1.4" fill="#e66"/>
<text x="214.61" y="1291.14" font-size="7" fill="#600">SBb1</text>
<circle cx="310.57" cy="955.23" r="2.0" fill="#a11"/>
<text x="314.57" y="952.23" font-size="7" fill="#600">SBb</text>
<circle cx="388.03" cy="692.58" r="1.4" fill="#e66"/>
<text x="392.03" y="689.58" font-size="7" fill="#600">SBb2</text>
<circle cx="445.68" cy="549.73" r="1.4" fill="#e66"/>
<text x="449.68" y="546.73" font-size="7" fill="#600">SBc1</text>
<circle cx="546.13" cy="422.30" r="2.0" fill="#a11"/>
<text x="550.13" y="419.30" font-size="7" fill="#600">SBc</text>
<circle cx="644.10" cy="298.02" r="1.4" fill="#e66"/>
<text x="648.10" y="295.02" font-size="7" fill="#600">SBc2</text>
<circle cx="781.70" cy="231.00" r="1.4" fill="#e66"/>
<text x="785.70" y="228.00" font-size="7" fill="#600">SBd1</text>
<circle cx="781.70" cy="230.00" r="2.0" fill="#a11"/>
<text x="785.70" y="227.00" font-size="7" fill="#600">SBd</text>
<circle cx="290.03" cy="1416.10" r="2.0" fill="#063"/>
<text x="294.03" y="1425.10" font-size="7" fill="#042">BKa</text>
<circle cx="290.03" cy="763.75" r="1.4" fill="#4b8"/>
<text x="294.03" y="772.75" font-size="7" fill="#042">BKa1</text>
<circle cx="832.70" cy="882.36" r="1.4" fill="#4b8"/>
<text x="836.70" y="891.36" font-size="7" fill="#042">BKd1</text>
<circle cx="832.70" cy="230.00" r="2.0" fill="#063"/>
<text x="836.70" y="239.00" font-size="7" fill="#042">BKd</text>
<text x="10" y="56" font-size="10" fill="#d13">h_L = 154 mm · h_M_L/R = 266/485 mm · h_R = 68 mm · M above string 20 at y = -72 mm</text>
<text x="52.50" y="823.05" text-anchor="middle" font-size="11" fill="#3a2a10" transform="rotate(-90 52.50 823.05)">COLUMN (45 mm wide, 40 mm bow, uniform width)</text>
<path d="M 756.70,244.50 C 765.03,239.67 781.70,239.63 781.70,230.00" fill="none" stroke="#7a2a2a" stroke-width="0.8" stroke-dasharray="4,3"/>
<line x1="137.50" y1="230.00" x2="801.70" y2="230.00" stroke="#0a7" stroke-width="0.5" stroke-dasharray="2,3"/>
<circle cx="781.70" cy="230.00" r="3" fill="#7a2a2a"/>
</svg>
