<svg xmlns="http://www.w3.org/2000/svg" viewBox="0 0 987.80 1738.92" width="790" height="1391">
<path d="M 75.00,1708.92 C 75.00,1686.93 300.54,1408.26 349.27,1247.02 C 462.45,872.50 487.85,688.72 623.53,480.46 C 751.83,283.54 897.80,325.99 897.80,230.00" fill="none" stroke="#7a2a2a" stroke-width="0.8" stroke-dasharray="4,3"/>
<path d="M 343.69,1708.92 C 343.69,895.51 957.80,1043.40 957.80,230.00" fill="none" stroke="#1a5" stroke-width="1.2"/>
<circle cx="957.80" cy="230.00" r="3" fill="#1a5"/>
<path d="M 343.69,1708.92 C 261.63,1708.92 157.06,1708.92 75.00,1708.92" fill="none" stroke="#1a5" stroke-width="1.2"/>
<circle cx="343.69" cy="1708.92" r="3" fill="#1a5"/>
<circle cx="331.34" cy="1726.78" r="1.2" fill="#1a5"/>
<circle cx="337.44" cy="1712.23" r="1.2" fill="#1a5"/>
<circle cx="344.44" cy="1697.24" r="1.2" fill="#1a5"/>
<circle cx="352.68" cy="1681.26" r="1.2" fill="#1a5"/>
<circle cx="362.46" cy="1663.75" r="1.2" fill="#1a5"/>
<circle cx="373.89" cy="1644.30" r="1.2" fill="#1a5"/>
<circle cx="386.77" cy="1622.75" r="1.2" fill="#1a5"/>
<circle cx="400.64" cy="1599.22" r="1.2" fill="#1a5"/>
<circle cx="414.83" cy="1574.04" r="1.2" fill="#1a5"/>
<circle cx="428.73" cy="1547.70" r="1.2" fill="#1a5"/>
<circle cx="441.82" cy="1520.81" r="1.2" fill="#1a5"/>
<circle cx="453.64" cy="1494.28" r="1.2" fill="#1a5"/>
<circle cx="464.37" cy="1468.12" r="1.2" fill="#1a5"/>
<circle cx="474.19" cy="1442.30" r="1.2" fill="#1a5"/>
<circle cx="483.24" cy="1416.75" r="1.2" fill="#1a5"/>
<circle cx="491.61" cy="1391.44" r="1.2" fill="#1a5"/>
<circle cx="499.41" cy="1366.35" r="1.2" fill="#1a5"/>
<circle cx="506.69" cy="1341.44" r="1.2" fill="#1a5"/>
<circle cx="513.52" cy="1316.68" r="1.2" fill="#1a5"/>
<circle cx="519.95" cy="1292.06" r="1.2" fill="#1a5"/>
<circle cx="526.02" cy="1267.57" r="1.2" fill="#1a5"/>
<circle cx="531.76" cy="1243.18" r="1.2" fill="#1a5"/>
<circle cx="537.21" cy="1218.89" r="1.2" fill="#1a5"/>
<circle cx="542.39" cy="1194.68" r="1.2" fill="#1a5"/>
<circle cx="547.31" cy="1170.59" r="1.2" fill="#1a5"/>
<circle cx="551.97" cy="1146.72" r="1.2" fill="#1a5"/>
<circle cx="556.42" cy="1123.06" r="1.2" fill="#1a5"/>
<circle cx="560.71" cy="1099.56" r="1.2" fill="#1a5"/>
<circle cx="564.87" cy="1076.21" r="1.2" fill="#1a5"/>
<circle cx="568.92" cy="1052.99" r="1.2" fill="#1a5"/>
<circle cx="572.89" cy="1029.90" r="1.2" fill="#1a5"/>
<circle cx="576.81" cy="1006.92" r="1.2" fill="#1a5"/>
<circle cx="580.69" cy="984.06" r="1.2" fill="#1a5"/>
<circle cx="584.55" cy="961.30" r="1.2" fill="#1a5"/>
<circle cx="588.41" cy="938.67" r="1.2" fill="#1a5"/>
<circle cx="592.29" cy="916.15" r="1.2" fill="#1a5"/>
<circle cx="596.20" cy="893.77" r="1.2" fill="#1a5"/>
<circle cx="600.16" cy="871.53" r="1.2" fill="#1a5"/>
<circle cx="604.20" cy="849.47" r="1.2" fill="#1a5"/>
<circle cx="608.32" cy="827.59" r="1.2" fill="#1a5"/>
<circle cx="612.56" cy="805.96" r="1.2" fill="#1a5"/>
<circle cx="616.93" cy="784.61" r="1.2" fill="#1a5"/>
<circle cx="621.47" cy="763.64" r="1.2" fill="#1a5"/>
<circle cx="626.22" cy="743.05" r="1.2" fill="#1a5"/>
<circle cx="631.27" cy="722.69" r="1.2" fill="#1a5"/>
<circle cx="636.67" cy="702.58" r="1.2" fill="#1a5"/>
<circle cx="642.42" cy="682.74" r="1.2" fill="#1a5"/>
<circle cx="648.57" cy="663.18" r="1.2" fill="#1a5"/>
<circle cx="655.14" cy="643.88" r="1.2" fill="#1a5"/>
<circle cx="662.18" cy="624.84" r="1.2" fill="#1a5"/>
<circle cx="669.73" cy="606.02" r="1.2" fill="#1a5"/>
<circle cx="677.83" cy="587.33" r="1.2" fill="#1a5"/>
<circle cx="686.56" cy="568.68" r="1.2" fill="#1a5"/>
<circle cx="695.94" cy="549.92" r="1.2" fill="#1a5"/>
<circle cx="706.01" cy="530.91" r="1.2" fill="#1a5"/>
<circle cx="716.54" cy="511.82" r="1.2" fill="#1a5"/>
<circle cx="727.28" cy="493.04" r="1.2" fill="#1a5"/>
<circle cx="738.25" cy="474.59" r="1.2" fill="#1a5"/>
<circle cx="749.47" cy="456.55" r="1.2" fill="#1a5"/>
<circle cx="760.97" cy="438.98" r="1.2" fill="#1a5"/>
<circle cx="772.77" cy="421.97" r="1.2" fill="#1a5"/>
<circle cx="784.87" cy="405.62" r="1.2" fill="#1a5"/>
<circle cx="797.28" cy="390.07" r="1.2" fill="#1a5"/>
<circle cx="810.18" cy="375.31" r="1.2" fill="#1a5"/>
<circle cx="824.19" cy="360.79" r="1.2" fill="#1a5"/>
<circle cx="839.42" cy="346.26" r="1.2" fill="#1a5"/>
<circle cx="855.84" cy="331.48" r="1.2" fill="#1a5"/>
<circle cx="873.28" cy="316.20" r="1.2" fill="#1a5"/>
<circle cx="891.44" cy="300.18" r="1.2" fill="#1a5"/>
<circle cx="909.73" cy="283.36" r="1.2" fill="#1a5"/>
<line x1="137.50" y1="103.96" x2="137.50" y2="1618.86" stroke="#111" stroke-width="0.6"/>
<circle cx="141.00" cy="103.96" r="3.50" fill="#bfbfbf" stroke="#555" stroke-width="0.4"/>
<circle cx="140.50" cy="188.96" r="3.00" fill="#3050a0" stroke="#0b1a40" stroke-width="0.4"/>
<circle cx="140.50" cy="269.26" r="3.00" fill="#d06020" stroke="#5a2a00" stroke-width="0.4"/>
<line x1="155.40" y1="92.07" x2="155.40" y2="1581.97" stroke="#111" stroke-width="0.6"/>
<circle cx="158.90" cy="92.07" r="3.50" fill="#bfbfbf" stroke="#555" stroke-width="0.4"/>
<circle cx="158.40" cy="175.67" r="3.00" fill="#3050a0" stroke="#0b1a40" stroke-width="0.4"/>
<circle cx="158.40" cy="254.57" r="3.00" fill="#d06020" stroke="#5a2a00" stroke-width="0.4"/>
<line x1="173.30" y1="87.45" x2="173.30" y2="1551.95" stroke="#111" stroke-width="0.6"/>
<circle cx="176.80" cy="87.45" r="3.50" fill="#bfbfbf" stroke="#555" stroke-width="0.4"/>
<circle cx="176.30" cy="169.65" r="3.00" fill="#3050a0" stroke="#0b1a40" stroke-width="0.4"/>
<circle cx="176.30" cy="247.25" r="3.00" fill="#d06020" stroke="#5a2a00" stroke-width="0.4"/>
<line x1="191.20" y1="87.73" x2="191.20" y2="1526.83" stroke="#111" stroke-width="0.6"/>
<circle cx="194.70" cy="87.73" r="3.50" fill="#bfbfbf" stroke="#555" stroke-width="0.4"/>
<circle cx="194.20" cy="168.53" r="3.00" fill="#3050a0" stroke="#0b1a40" stroke-width="0.4"/>
<circle cx="194.20" cy="244.73" r="3.00" fill="#d06020" stroke="#5a2a00" stroke-width="0.4"/>
<line x1="209.10" y1="95.72" x2="209.10" y2="1504.62" stroke="#111" stroke-width="0.6"/>
<circle cx="212.60" cy="95.72" r="3.50" fill="#bfbfbf" stroke="#555" stroke-width="0.4"/>
<circle cx="212.10" cy="174.82" r="3.00" fill="#3050a0" stroke="#0b1a40" stroke-width="0.4"/>
<circle cx="212.10" cy="249.42" r="3.00" fill="#d06020" stroke="#5a2a00" stroke-width="0.4"/>
<line x1="227.00" y1="104.77" x2="227.00" y2="1483.37" stroke="#111" stroke-width="0.6"/>
<circle cx="230.50" cy="104.77" r="3.50" fill="#bfbfbf" stroke="#555" stroke-width="0.4"/>
<circle cx="230.00" cy="182.17" r="3.00" fill="#3050a0" stroke="#0b1a40" stroke-width="0.4"/>
<circle cx="230.00" cy="255.17" r="3.00" fill="#d06020" stroke="#5a2a00" stroke-width="0.4"/>
<line x1="244.90" y1="112.78" x2="244.90" y2="1461.08" stroke="#111" stroke-width="0.6"/>
<circle cx="248.40" cy="112.78" r="3.50" fill="#bfbfbf" stroke="#555" stroke-width="0.4"/>
<circle cx="247.90" cy="188.48" r="3.00" fill="#3050a0" stroke="#0b1a40" stroke-width="0.4"/>
<circle cx="247.90" cy="259.88" r="3.00" fill="#d06020" stroke="#5a2a00" stroke-width="0.4"/>
<line x1="262.80" y1="117.78" x2="262.80" y2="1435.78" stroke="#111" stroke-width="0.6"/>
<circle cx="266.30" cy="117.78" r="3.50" fill="#bfbfbf" stroke="#555" stroke-width="0.4"/>
<circle cx="265.80" cy="191.78" r="3.00" fill="#3050a0" stroke="#0b1a40" stroke-width="0.4"/>
<circle cx="265.80" cy="261.58" r="3.00" fill="#d06020" stroke="#5a2a00" stroke-width="0.4"/>
<line x1="280.70" y1="122.91" x2="280.70" y2="1405.51" stroke="#111" stroke-width="0.6"/>
<circle cx="284.20" cy="122.91" r="3.50" fill="#bfbfbf" stroke="#555" stroke-width="0.4"/>
<circle cx="283.70" cy="194.91" r="3.00" fill="#3050a0" stroke="#0b1a40" stroke-width="0.4"/>
<circle cx="283.70" cy="262.81" r="3.00" fill="#d06020" stroke="#5a2a00" stroke-width="0.4"/>
<line x1="298.60" y1="126.33" x2="298.60" y2="1368.53" stroke="#111" stroke-width="0.6"/>
<circle cx="302.10" cy="126.33" r="3.50" fill="#bfbfbf" stroke="#555" stroke-width="0.4"/>
<circle cx="301.60" cy="196.03" r="3.00" fill="#3050a0" stroke="#0b1a40" stroke-width="0.4"/>
<circle cx="301.60" cy="261.83" r="3.00" fill="#d06020" stroke="#5a2a00" stroke-width="0.4"/>
<line x1="316.50" y1="103.00" x2="316.50" y2="1325.00" stroke="#111" stroke-width="0.6"/>
<circle cx="320.00" cy="103.00" r="3.50" fill="#bfbfbf" stroke="#555" stroke-width="0.4"/>
<circle cx="319.50" cy="171.60" r="3.00" fill="#3050a0" stroke="#0b1a40" stroke-width="0.4"/>
<circle cx="319.50" cy="236.30" r="3.00" fill="#d06020" stroke="#5a2a00" stroke-width="0.4"/>
<line x1="334.40" y1="89.28" x2="334.40" y2="1275.98" stroke="#111" stroke-width="0.6"/>
<circle cx="337.90" cy="89.28" r="3.50" fill="#bfbfbf" stroke="#555" stroke-width="0.4"/>
<circle cx="337.40" cy="155.88" r="3.00" fill="#3050a0" stroke="#0b1a40" stroke-width="0.4"/>
<circle cx="337.40" cy="218.78" r="3.00" fill="#d06020" stroke="#5a2a00" stroke-width="0.4"/>
<line x1="352.30" y1="111.65" x2="352.30" y2="1222.55" stroke="#111" stroke-width="0.6"/>
<circle cx="355.80" cy="111.65" r="3.50" fill="#bfbfbf" stroke="#555" stroke-width="0.4"/>
<circle cx="355.30" cy="173.95" r="3.00" fill="#3050a0" stroke="#0b1a40" stroke-width="0.4"/>
<circle cx="355.30" cy="232.85" r="3.00" fill="#d06020" stroke="#5a2a00" stroke-width="0.4"/>
<line x1="370.20" y1="110.35" x2="370.20" y2="1165.75" stroke="#111" stroke-width="0.6"/>
<circle cx="373.70" cy="110.35" r="3.50" fill="#bfbfbf" stroke="#555" stroke-width="0.4"/>
<circle cx="373.20" cy="169.55" r="3.00" fill="#3050a0" stroke="#0b1a40" stroke-width="0.4"/>
<circle cx="373.20" cy="225.45" r="3.00" fill="#d06020" stroke="#5a2a00" stroke-width="0.4"/>
<line x1="388.10" y1="116.85" x2="388.10" y2="1106.65" stroke="#111" stroke-width="0.6"/>
<circle cx="391.60" cy="116.85" r="3.50" fill="#bfbfbf" stroke="#555" stroke-width="0.4"/>
<circle cx="391.10" cy="172.35" r="3.00" fill="#3050a0" stroke="#0b1a40" stroke-width="0.4"/>
<circle cx="391.10" cy="224.85" r="3.00" fill="#d06020" stroke="#5a2a00" stroke-width="0.4"/>
<line x1="406.00" y1="122.22" x2="406.00" y2="1046.32" stroke="#111" stroke-width="0.6"/>
<circle cx="409.50" cy="122.22" r="3.50" fill="#bfbfbf" stroke="#555" stroke-width="0.4"/>
<circle cx="409.00" cy="174.12" r="3.00" fill="#3050a0" stroke="#0b1a40" stroke-width="0.4"/>
<circle cx="409.00" cy="223.02" r="3.00" fill="#d06020" stroke="#5a2a00" stroke-width="0.4"/>
<line x1="423.40" y1="123.99" x2="423.40" y2="987.49" stroke="#111" stroke-width="0.6"/>
<circle cx="426.90" cy="123.99" r="3.50" fill="#bfbfbf" stroke="#555" stroke-width="0.4"/>
<circle cx="426.40" cy="172.49" r="3.00" fill="#3050a0" stroke="#0b1a40" stroke-width="0.4"/>
<circle cx="426.40" cy="218.19" r="3.00" fill="#d06020" stroke="#5a2a00" stroke-width="0.4"/>
<line x1="440.80" y1="136.67" x2="440.80" y2="929.47" stroke="#111" stroke-width="0.6"/>
<circle cx="444.30" cy="136.67" r="3.50" fill="#bfbfbf" stroke="#555" stroke-width="0.4"/>
<circle cx="443.80" cy="181.17" r="3.00" fill="#3050a0" stroke="#0b1a40" stroke-width="0.4"/>
<circle cx="443.80" cy="223.17" r="3.00" fill="#d06020" stroke="#5a2a00" stroke-width="0.4"/>
<line x1="457.20" y1="143.89" x2="457.20" y2="876.09" stroke="#111" stroke-width="0.6"/>
<circle cx="460.70" cy="143.89" r="3.50" fill="#bfbfbf" stroke="#555" stroke-width="0.4"/>
<circle cx="460.20" cy="184.99" r="3.00" fill="#3050a0" stroke="#0b1a40" stroke-width="0.4"/>
<circle cx="460.20" cy="223.79" r="3.00" fill="#d06020" stroke="#5a2a00" stroke-width="0.4"/>
<line x1="473.60" y1="157.72" x2="473.60" y2="824.32" stroke="#111" stroke-width="0.6"/>
<circle cx="477.10" cy="157.72" r="3.50" fill="#bfbfbf" stroke="#555" stroke-width="0.4"/>
<circle cx="476.60" cy="195.12" r="3.00" fill="#3050a0" stroke="#0b1a40" stroke-width="0.4"/>
<circle cx="476.60" cy="230.42" r="3.00" fill="#d06020" stroke="#5a2a00" stroke-width="0.4"/>
<line x1="490.00" y1="153.33" x2="490.00" y2="774.43" stroke="#111" stroke-width="0.6"/>
<circle cx="493.50" cy="153.33" r="3.50" fill="#bfbfbf" stroke="#555" stroke-width="0.4"/>
<circle cx="493.00" cy="188.23" r="3.00" fill="#3050a0" stroke="#0b1a40" stroke-width="0.4"/>
<circle cx="493.00" cy="221.13" r="3.00" fill="#d06020" stroke="#5a2a00" stroke-width="0.4"/>
<line x1="506.40" y1="156.14" x2="506.40" y2="726.74" stroke="#111" stroke-width="0.6"/>
<circle cx="509.90" cy="156.14" r="3.50" fill="#bfbfbf" stroke="#555" stroke-width="0.4"/>
<circle cx="509.40" cy="188.14" r="3.00" fill="#3050a0" stroke="#0b1a40" stroke-width="0.4"/>
<circle cx="509.40" cy="218.44" r="3.00" fill="#d06020" stroke="#5a2a00" stroke-width="0.4"/>
<line x1="522.80" y1="156.34" x2="522.80" y2="681.54" stroke="#111" stroke-width="0.6"/>
<circle cx="526.30" cy="156.34" r="3.50" fill="#bfbfbf" stroke="#555" stroke-width="0.4"/>
<circle cx="525.80" cy="185.84" r="3.00" fill="#3050a0" stroke="#0b1a40" stroke-width="0.4"/>
<circle cx="525.80" cy="213.64" r="3.00" fill="#d06020" stroke="#5a2a00" stroke-width="0.4"/>
<line x1="539.20" y1="154.33" x2="539.20" y2="639.13" stroke="#111" stroke-width="0.6"/>
<circle cx="542.70" cy="154.33" r="3.50" fill="#bfbfbf" stroke="#555" stroke-width="0.4"/>
<circle cx="542.20" cy="181.53" r="3.00" fill="#3050a0" stroke="#0b1a40" stroke-width="0.4"/>
<circle cx="542.20" cy="207.23" r="3.00" fill="#d06020" stroke="#5a2a00" stroke-width="0.4"/>
<line x1="555.60" y1="150.40" x2="555.60" y2="599.80" stroke="#111" stroke-width="0.6"/>
<circle cx="559.10" cy="150.40" r="3.50" fill="#bfbfbf" stroke="#555" stroke-width="0.4"/>
<circle cx="558.60" cy="175.60" r="3.00" fill="#3050a0" stroke="#0b1a40" stroke-width="0.4"/>
<circle cx="558.60" cy="199.40" r="3.00" fill="#d06020" stroke="#5a2a00" stroke-width="0.4"/>
<line x1="571.00" y1="151.85" x2="571.00" y2="565.95" stroke="#111" stroke-width="0.6"/>
<circle cx="574.50" cy="151.85" r="3.50" fill="#bfbfbf" stroke="#555" stroke-width="0.4"/>
<circle cx="574.00" cy="175.05" r="3.00" fill="#3050a0" stroke="#0b1a40" stroke-width="0.4"/>
<circle cx="574.00" cy="197.05" r="3.00" fill="#d06020" stroke="#5a2a00" stroke-width="0.4"/>
<line x1="586.40" y1="151.52" x2="586.40" y2="535.32" stroke="#111" stroke-width="0.6"/>
<circle cx="589.90" cy="151.52" r="3.50" fill="#bfbfbf" stroke="#555" stroke-width="0.4"/>
<circle cx="589.40" cy="173.02" r="3.00" fill="#3050a0" stroke="#0b1a40" stroke-width="0.4"/>
<circle cx="589.40" cy="193.42" r="3.00" fill="#d06020" stroke="#5a2a00" stroke-width="0.4"/>
<line x1="601.80" y1="154.34" x2="601.80" y2="507.84" stroke="#111" stroke-width="0.6"/>
<circle cx="605.30" cy="154.34" r="3.50" fill="#bfbfbf" stroke="#555" stroke-width="0.4"/>
<circle cx="604.80" cy="174.14" r="3.00" fill="#3050a0" stroke="#0b1a40" stroke-width="0.4"/>
<circle cx="604.80" cy="192.94" r="3.00" fill="#d06020" stroke="#5a2a00" stroke-width="0.4"/>
<line x1="617.20" y1="154.98" x2="617.20" y2="483.18" stroke="#111" stroke-width="0.6"/>
<circle cx="620.70" cy="154.98" r="3.50" fill="#bfbfbf" stroke="#555" stroke-width="0.4"/>
<circle cx="620.20" cy="173.38" r="3.00" fill="#3050a0" stroke="#0b1a40" stroke-width="0.4"/>
<circle cx="620.20" cy="190.78" r="3.00" fill="#d06020" stroke="#5a2a00" stroke-width="0.4"/>
<line x1="632.60" y1="157.96" x2="632.60" y2="460.96" stroke="#111" stroke-width="0.6"/>
<circle cx="636.10" cy="157.96" r="3.50" fill="#bfbfbf" stroke="#555" stroke-width="0.4"/>
<circle cx="635.60" cy="174.96" r="3.00" fill="#3050a0" stroke="#0b1a40" stroke-width="0.4"/>
<circle cx="635.60" cy="191.06" r="3.00" fill="#d06020" stroke="#5a2a00" stroke-width="0.4"/>
<line x1="648.00" y1="163.12" x2="648.00" y2="440.82" stroke="#111" stroke-width="0.6"/>
<circle cx="651.50" cy="163.12" r="3.50" fill="#bfbfbf" stroke="#555" stroke-width="0.4"/>
<circle cx="651.00" cy="178.72" r="3.00" fill="#3050a0" stroke="#0b1a40" stroke-width="0.4"/>
<circle cx="651.00" cy="193.42" r="3.00" fill="#d06020" stroke="#5a2a00" stroke-width="0.4"/>
<line x1="663.40" y1="159.80" x2="663.40" y2="422.40" stroke="#111" stroke-width="0.6"/>
<circle cx="666.90" cy="159.80" r="3.50" fill="#bfbfbf" stroke="#555" stroke-width="0.4"/>
<circle cx="666.40" cy="174.50" r="3.00" fill="#3050a0" stroke="#0b1a40" stroke-width="0.4"/>
<circle cx="666.40" cy="188.40" r="3.00" fill="#d06020" stroke="#5a2a00" stroke-width="0.4"/>
<line x1="677.80" y1="169.11" x2="677.80" y2="406.41" stroke="#111" stroke-width="0.6"/>
<circle cx="681.30" cy="169.11" r="3.50" fill="#bfbfbf" stroke="#555" stroke-width="0.4"/>
<circle cx="680.80" cy="182.41" r="3.00" fill="#3050a0" stroke="#0b1a40" stroke-width="0.4"/>
<circle cx="680.80" cy="195.01" r="3.00" fill="#d06020" stroke="#5a2a00" stroke-width="0.4"/>
<line x1="692.20" y1="169.10" x2="692.20" y2="391.30" stroke="#111" stroke-width="0.6"/>
<circle cx="695.70" cy="169.10" r="3.50" fill="#bfbfbf" stroke="#555" stroke-width="0.4"/>
<circle cx="695.20" cy="181.60" r="3.00" fill="#3050a0" stroke="#0b1a40" stroke-width="0.4"/>
<circle cx="695.20" cy="193.30" r="3.00" fill="#d06020" stroke="#5a2a00" stroke-width="0.4"/>
<line x1="706.60" y1="169.78" x2="706.60" y2="376.78" stroke="#111" stroke-width="0.6"/>
<circle cx="710.10" cy="169.78" r="3.50" fill="#bfbfbf" stroke="#555" stroke-width="0.4"/>
<circle cx="709.60" cy="181.38" r="3.00" fill="#3050a0" stroke="#0b1a40" stroke-width="0.4"/>
<circle cx="709.60" cy="192.38" r="3.00" fill="#d06020" stroke="#5a2a00" stroke-width="0.4"/>
<line x1="721.00" y1="170.66" x2="721.00" y2="362.56" stroke="#111" stroke-width="0.6"/>
<circle cx="724.50" cy="170.66" r="3.50" fill="#bfbfbf" stroke="#555" stroke-width="0.4"/>
<circle cx="724.00" cy="181.46" r="3.00" fill="#3050a0" stroke="#0b1a40" stroke-width="0.4"/>
<circle cx="724.00" cy="191.56" r="3.00" fill="#d06020" stroke="#5a2a00" stroke-width="0.4"/>
<line x1="735.40" y1="171.66" x2="735.40" y2="348.36" stroke="#111" stroke-width="0.6"/>
<circle cx="738.90" cy="171.66" r="3.50" fill="#bfbfbf" stroke="#555" stroke-width="0.4"/>
<circle cx="738.40" cy="181.56" r="3.00" fill="#3050a0" stroke="#0b1a40" stroke-width="0.4"/>
<circle cx="738.40" cy="190.96" r="3.00" fill="#d06020" stroke="#5a2a00" stroke-width="0.4"/>
<line x1="749.80" y1="172.57" x2="749.80" y2="334.17" stroke="#111" stroke-width="0.6"/>
<circle cx="753.30" cy="172.57" r="3.50" fill="#bfbfbf" stroke="#555" stroke-width="0.4"/>
<circle cx="752.80" cy="181.67" r="3.00" fill="#3050a0" stroke="#0b1a40" stroke-width="0.4"/>
<circle cx="752.80" cy="190.17" r="3.00" fill="#d06020" stroke="#5a2a00" stroke-width="0.4"/>
<line x1="764.20" y1="173.79" x2="764.20" y2="320.19" stroke="#111" stroke-width="0.6"/>
<circle cx="767.70" cy="173.79" r="3.50" fill="#bfbfbf" stroke="#555" stroke-width="0.4"/>
<circle cx="767.20" cy="181.99" r="3.00" fill="#3050a0" stroke="#0b1a40" stroke-width="0.4"/>
<circle cx="767.20" cy="189.79" r="3.00" fill="#d06020" stroke="#5a2a00" stroke-width="0.4"/>
<line x1="778.60" y1="175.30" x2="778.60" y2="306.60" stroke="#111" stroke-width="0.6"/>
<circle cx="782.10" cy="175.30" r="3.50" fill="#bfbfbf" stroke="#555" stroke-width="0.4"/>
<circle cx="781.60" cy="182.70" r="3.00" fill="#3050a0" stroke="#0b1a40" stroke-width="0.4"/>
<circle cx="781.60" cy="189.60" r="3.00" fill="#d06020" stroke="#5a2a00" stroke-width="0.4"/>
<line x1="793.00" y1="172.37" x2="793.00" y2="293.57" stroke="#111" stroke-width="0.6"/>
<circle cx="796.50" cy="172.37" r="3.50" fill="#bfbfbf" stroke="#555" stroke-width="0.4"/>
<circle cx="796.00" cy="179.17" r="3.00" fill="#3050a0" stroke="#0b1a40" stroke-width="0.4"/>
<circle cx="796.00" cy="185.57" r="3.00" fill="#d06020" stroke="#5a2a00" stroke-width="0.4"/>
<line x1="806.30" y1="171.10" x2="806.30" y2="282.20" stroke="#111" stroke-width="0.6"/>
<circle cx="809.80" cy="171.10" r="3.50" fill="#bfbfbf" stroke="#555" stroke-width="0.4"/>
<circle cx="809.30" cy="177.30" r="3.00" fill="#3050a0" stroke="#0b1a40" stroke-width="0.4"/>
<circle cx="809.30" cy="183.20" r="3.00" fill="#d06020" stroke="#5a2a00" stroke-width="0.4"/>
<line x1="819.60" y1="170.61" x2="819.60" y2="271.61" stroke="#111" stroke-width="0.6"/>
<circle cx="823.10" cy="170.61" r="3.50" fill="#bfbfbf" stroke="#555" stroke-width="0.4"/>
<circle cx="822.60" cy="176.31" r="3.00" fill="#3050a0" stroke="#0b1a40" stroke-width="0.4"/>
<circle cx="822.60" cy="181.61" r="3.00" fill="#d06020" stroke="#5a2a00" stroke-width="0.4"/>
<line x1="832.90" y1="171.04" x2="832.90" y2="261.94" stroke="#111" stroke-width="0.6"/>
<circle cx="836.40" cy="171.04" r="3.50" fill="#bfbfbf" stroke="#555" stroke-width="0.4"/>
<circle cx="835.90" cy="176.14" r="3.00" fill="#3050a0" stroke="#0b1a40" stroke-width="0.4"/>
<circle cx="835.90" cy="180.94" r="3.00" fill="#d06020" stroke="#5a2a00" stroke-width="0.4"/>
<line x1="846.20" y1="172.55" x2="846.20" y2="253.35" stroke="#111" stroke-width="0.6"/>
<circle cx="849.70" cy="172.55" r="3.50" fill="#bfbfbf" stroke="#555" stroke-width="0.4"/>
<circle cx="849.20" cy="177.05" r="3.00" fill="#3050a0" stroke="#0b1a40" stroke-width="0.4"/>
<circle cx="849.20" cy="181.35" r="3.00" fill="#d06020" stroke="#5a2a00" stroke-width="0.4"/>
<line x1="859.50" y1="175.27" x2="859.50" y2="245.97" stroke="#111" stroke-width="0.6"/>
<circle cx="863.00" cy="175.27" r="3.50" fill="#bfbfbf" stroke="#555" stroke-width="0.4"/>
<circle cx="862.50" cy="179.27" r="3.00" fill="#3050a0" stroke="#0b1a40" stroke-width="0.4"/>
<circle cx="862.50" cy="182.97" r="3.00" fill="#d06020" stroke="#5a2a00" stroke-width="0.4"/>
<line x1="872.80" y1="179.35" x2="872.80" y2="239.95" stroke="#111" stroke-width="0.6"/>
<circle cx="876.30" cy="179.35" r="3.50" fill="#bfbfbf" stroke="#555" stroke-width="0.4"/>
<circle cx="875.80" cy="182.75" r="3.00" fill="#3050a0" stroke="#0b1a40" stroke-width="0.4"/>
<circle cx="875.80" cy="185.95" r="3.00" fill="#d06020" stroke="#5a2a00" stroke-width="0.4"/>
<path d="M 120.00,274.62 A 11440.16 11440.16 0 0 0 120.00,1708.92 L 75.00,1708.92 A 11440.16 11440.16 0 0 1 75.00,274.62 Z" fill="#b08a55" fill-opacity="0.42" stroke="#3a2a10" stroke-width="0.8"/>
<path d="M 75.00,274.62 C 88.24,63.82 88.24,63.82 473.60,107.44 C 957.80,162.26 957.80,162.26 957.80,230.00 C 957.80,230.00 897.80,230.00 897.80,230.00 C 897.80,199.31 806.40,227.45 506.40,227.45 C 306.40,227.45 210.00,274.62 120.00,274.62 C 120.00,274.62 75.00,274.62 75.00,274.62 Z" fill="#c49a6c" fill-opacity="0.35" stroke="#3a2a10" stroke-width="0.8"/>
<text x="516.40" y="155.41" text-anchor="middle" font-size="11" fill="#3a2a10">NECK (arched top)</text>
<line x1="75.00" y1="274.62" x2="88.24" y2="63.82" stroke="#26c" stroke-width="0.8" stroke-dasharray="3,2"/>
<line x1="473.60" y1="107.44" x2="88.24" y2="63.82" stroke="#26c" stroke-width="0.8" stroke-dasharray="3,2"/>
<line x1="473.60" y1="107.44" x2="957.80" y2="162.26" stroke="#26c" stroke-width="0.8" stroke-dasharray="3,2"/>
<line x1="957.80" y1="230.00" x2="957.80" y2="162.26" stroke="#26c" stroke-width="0.8" stroke-dasharray="3,2"/>
<line x1="120.00" y1="274.62" x2="210.00" y2="274.62" stroke="#26c" stroke-width="0.8" stroke-dasharray="3,2"/>
<line x1="897.80" y1="230.00" x2="897.80" y2="199.31" stroke="#26c" stroke-width="0.8" stroke-dasharray="3,2"/>
<line x1="506.40" y1="227.45" x2="306.40" y2="227.45" stroke="#26c" stroke-width="0.8" stroke-dasharray="3,2"/>
<line x1="506.40" y1="227.45" x2="806.40" y2="227.45" stroke="#26c" stroke-width="0.8" stroke-dasharray="3,2"/>
<circle cx="75.00" cy="274.62" r="2.0" fill="#d13"/>
<text x="80.00" y="277.62" font-size="7" fill="#600" text-anchor="start">NTa</text>
<circle cx="88.24" cy="63.82" r="1.5" fill="#26c"/>
<text x="83.24" y="66.82" font-size="7" fill="#024" text-anchor="end">NTa1</text>
<circle cx="88.24" cy="63.82" r="1.5" fill="#26c"/>
<text x="83.24" y="66.82" font-size="7" fill="#024" text-anchor="end">NTb1</text>
<circle cx="473.60" cy="107.44" r="2.0" fill="#d13"/>
<text x="473.60" y="101.44" font-size="7" fill="#600" text-anchor="middle">NTb</text>
<circle cx="957.80" cy="162.26" r="1.5" fill="#26c"/>
<text x="952.80" y="156.26" font-size="7" fill="#024" text-anchor="end">NTb2</text>
<circle cx="957.80" cy="162.26" r="1.5" fill="#26c"/>
<text x="952.80" y="165.26" font-size="7" fill="#024" text-anchor="end">NTc1</text>
<circle cx="957.80" cy="230.00" r="2.0" fill="#d13"/>
<text x="952.80" y="233.00" font-size="7" fill="#600" text-anchor="end">NTc</text>
<circle cx="897.80" cy="230.00" r="2.0" fill="#d13"/>
<text x="892.80" y="239.00" font-size="7" fill="#600" text-anchor="end">NBc</text>
<circle cx="897.80" cy="199.31" r="1.5" fill="#26c"/>
<text x="892.80" y="208.31" font-size="7" fill="#024" text-anchor="end">NBc1</text>
<circle cx="806.40" cy="227.45" r="1.5" fill="#26c"/>
<text x="801.40" y="236.45" font-size="7" fill="#024" text-anchor="end">NBb2</text>
<circle cx="506.40" cy="227.45" r="2.0" fill="#d13"/>
<text x="501.40" y="236.45" font-size="7" fill="#600" text-anchor="end">NBb</text>
<circle cx="306.40" cy="227.45" r="1.5" fill="#26c"/>
<text x="301.40" y="236.45" font-size="7" fill="#024" text-anchor="end">NBb1</text>
<circle cx="210.00" cy="274.62" r="1.5" fill="#26c"/>
<text x="205.00" y="283.62" font-size="7" fill="#024" text-anchor="end">NBa1</text>
<circle cx="120.00" cy="274.62" r="2.0" fill="#d13"/>
<text x="125.00" y="283.62" font-size="7" fill="#600" text-anchor="start">NBa</text>
<line x1="75.00" y1="1708.92" x2="75.00" y2="1686.93" stroke="#c33" stroke-width="0.7" stroke-dasharray="3,2"/>
<line x1="349.27" y1="1247.02" x2="300.54" y2="1408.26" stroke="#c33" stroke-width="0.7" stroke-dasharray="3,2"/>
<line x1="349.27" y1="1247.02" x2="462.45" y2="872.50" stroke="#c33" stroke-width="0.7" stroke-dasharray="3,2"/>
<line x1="623.53" y1="480.46" x2="487.85" y2="688.72" stroke="#c33" stroke-width="0.7" stroke-dasharray="3,2"/>
<line x1="623.53" y1="480.46" x2="751.83" y2="283.54" stroke="#c33" stroke-width="0.7" stroke-dasharray="3,2"/>
<line x1="897.80" y1="230.00" x2="897.80" y2="325.99" stroke="#c33" stroke-width="0.7" stroke-dasharray="3,2"/>
<line x1="343.69" y1="1708.92" x2="343.69" y2="895.51" stroke="#1a5" stroke-width="0.7" stroke-dasharray="3,2"/>
<line x1="957.80" y1="230.00" x2="957.80" y2="1043.40" stroke="#1a5" stroke-width="0.7" stroke-dasharray="3,2"/>
<circle cx="75.00" cy="1708.92" r="2.0" fill="#a11"/>
<text x="79.00" y="1705.92" font-size="7" fill="#600">SBa</text>
<circle cx="75.00" cy="1686.93" r="1.4" fill="#e66"/>
<text x="79.00" y="1683.93" font-size="7" fill="#600">SBa1</text>
<circle cx="300.54" cy="1408.26" r="1.4" fill="#e66"/>
<text x="304.54" y="1405.26" font-size="7" fill="#600">SBb1</text>
<circle cx="349.27" cy="1247.02" r="2.0" fill="#a11"/>
<text x="353.27" y="1244.02" font-size="7" fill="#600">SBb</text>
<circle cx="462.45" cy="872.50" r="1.4" fill="#e66"/>
<text x="466.45" y="869.50" font-size="7" fill="#600">SBb2</text>
<circle cx="487.85" cy="688.72" r="1.4" fill="#e66"/>
<text x="491.85" y="685.72" font-size="7" fill="#600">SBc1</text>
<circle cx="623.53" cy="480.46" r="2.0" fill="#a11"/>
<text x="627.53" y="477.46" font-size="7" fill="#600">SBc</text>
<circle cx="751.83" cy="283.54" r="1.4" fill="#e66"/>
<text x="755.83" y="280.54" font-size="7" fill="#600">SBc2</text>
<circle cx="897.80" cy="325.99" r="1.4" fill="#e66"/>
<text x="901.80" y="322.99" font-size="7" fill="#600">SBd1</text>
<circle cx="897.80" cy="230.00" r="2.0" fill="#a11"/>
<text x="901.80" y="227.00" font-size="7" fill="#600">SBd</text>
<circle cx="343.69" cy="1708.92" r="2.0" fill="#063"/>
<text x="347.69" y="1717.92" font-size="7" fill="#042">BKa</text>
<circle cx="343.69" cy="895.51" r="1.4" fill="#4b8"/>
<text x="347.69" y="904.51" font-size="7" fill="#042">BKa1</text>
<circle cx="957.80" cy="1043.40" r="1.4" fill="#4b8"/>
<text x="961.80" y="1052.40" font-size="7" fill="#042">BKd1</text>
<circle cx="957.80" cy="230.00" r="2.0" fill="#063"/>
<text x="961.80" y="239.00" font-size="7" fill="#042">BKd</text>
<text x="10" y="56" font-size="10" fill="#d13">h_L = 211 mm · h_M_L/R = 388/487 mm · h_R = 68 mm · M above string 20 at y = -72 mm</text>
<text x="52.50" y="991.77" text-anchor="middle" font-size="11" fill="#3a2a10" transform="rotate(-90 52.50 991.77)">COLUMN (45 mm wide, 40 mm bow, uniform width)</text>
<path d="M 872.80,239.95 C 881.13,236.63 897.80,238.97 897.80,230.00" fill="none" stroke="#7a2a2a" stroke-width="0.8" stroke-dasharray="4,3"/>
<line x1="137.50" y1="230.00" x2="917.80" y2="230.00" stroke="#0a7" stroke-width="0.5" stroke-dasharray="2,3"/>
<circle cx="897.80" cy="230.00" r="3" fill="#7a2a2a"/>
</svg>
